<?xml version="1.0" encoding="UTF-8"?>
<svg version="1.1" xmlns="http://www.w3.org/2000/svg" width="512" height="410">
<path d="M0 0 C1.60099929 -0.00542936 3.20199357 -0.01255656 4.80297852 -0.02124023 C9.12536008 -0.03937997 13.44735711 -0.03244502 17.76974487 -0.01972389 C22.30809512 -0.00954749 26.84641398 -0.0190024 31.38476562 -0.02526855 C39.00396594 -0.03253151 46.62301082 -0.02299286 54.2421875 -0.00390625 C63.03213204 0.01785991 71.82170537 0.01080758 80.61164093 -0.01121187 C88.17884737 -0.02940452 95.7459425 -0.03190535 103.31316376 -0.0214572 C107.8238279 -0.01524346 112.33431796 -0.01432794 116.8449707 -0.02760315 C121.08707933 -0.0392175 125.32871261 -0.03103487 129.57077026 -0.00802612 C131.12107558 -0.00276868 132.67142138 -0.0042016 134.22171021 -0.01307678 C143.81916597 -0.06292594 152.9500693 -0.01707323 160.42640686 6.73820496 C161.00120285 7.54349136 161.57599884 8.34877777 162.16821289 9.1784668 C162.85556015 10.09571533 163.54290741 11.01296387 164.25108337 11.95800781 C164.97388992 12.9405957 165.69669647 13.92318359 166.44140625 14.93554688 C186.48512747 40.66810573 186.48512747 40.66810573 215.47050381 53.05843639 C232.03514614 54.85672165 249.11260299 53.91799825 265.6544342 52.19946289 C280.96192525 50.72179687 293.85951848 54.67977036 305.8046875 64.45117188 C314.48825572 72.74288232 321.43075596 84.67455756 322.09755117 96.87409592 C322.10023402 98.1046414 322.10023402 98.1046414 322.10297108 99.36004639 C322.10742892 100.31295154 322.11188676 101.26585669 322.11647969 102.24763775 C322.11620315 103.80583343 322.11620315 103.80583343 322.11592102 105.39550781 C322.11959771 106.50541738 322.1232744 107.61532694 322.1270625 108.75887012 C322.13809372 112.48573579 322.14194226 116.21257358 322.14575195 119.93945312 C322.15201707 122.60872055 322.1586513 125.27798501 322.16566467 127.94725037 C322.18540413 135.96309252 322.19549255 143.9789359 322.20439246 151.99479628 C322.20877989 155.77368215 322.21414556 159.55256664 322.21938133 163.33145142 C322.23639185 175.90063689 322.2508844 188.46982151 322.25813007 201.03901672 C322.26003983 204.29896038 322.26196018 207.55890403 322.26391602 210.81884766 C322.26439976 211.62904795 322.2648835 212.43924824 322.2653819 213.27400005 C322.27367619 226.38875902 322.29900372 239.50342661 322.33149669 252.6181457 C322.36461596 266.0960265 322.38258326 279.57386092 322.38577431 293.05178261 C322.38793502 300.61372166 322.39661892 308.17552748 322.42223549 315.73742676 C322.4440092 322.17965523 322.45196034 328.62171811 322.44226871 335.06397921 C322.43774301 338.34670407 322.44171859 341.62901864 322.45903015 344.91171074 C322.55883705 364.96599543 321.20668224 381.1873002 307.00390625 396.63867188 C296.99898195 405.87546379 284.25587248 410.63586436 270.76526546 410.64900589 C269.68819871 410.65208484 269.68819871 410.65208484 268.58937302 410.65522599 C266.17674721 410.66089267 263.76417854 410.65943915 261.35154724 410.65802002 C259.60686825 410.66060385 257.86218986 410.66361706 256.11751229 410.66702342 C251.31770614 410.67509468 246.51791494 410.67688307 241.71810281 410.67762089 C236.54340296 410.67947125 231.36871087 410.68701855 226.1940155 410.6937561 C214.87568606 410.70734132 203.55736016 410.71336457 192.23902392 410.71776676 C185.17150024 410.72052913 178.10397792 410.7247665 171.03645515 410.72927094 C151.46818217 410.74146434 131.89991027 410.75176319 112.33163357 410.75514603 C111.07906075 410.75536559 109.82648793 410.75558516 108.53595835 410.75581138 C107.28038642 410.75602966 106.02481448 410.75624793 104.73119491 410.75647283 C102.18692617 410.75691629 99.64265742 410.75736286 97.09838867 410.7578125 C95.83634324 410.75803393 94.57429781 410.75825536 93.27400858 410.7584835 C72.82879358 410.76243068 52.38361424 410.77988197 31.93841302 410.80317202 C10.94708501 410.82689112 -10.04422512 410.83934815 -31.03556675 410.84051394 C-42.82114569 410.84143044 -54.60667819 410.84717636 -66.39224434 410.86533356 C-76.42911028 410.88074212 -86.46591542 410.88585056 -96.50279094 410.87759545 C-101.62220676 410.87369152 -106.74150016 410.87460608 -111.86090088 410.8886528 C-116.55222288 410.90140701 -121.24333067 410.9001808 -125.93465244 410.88806209 C-127.62717033 410.88610772 -129.31970347 410.88917145 -131.01219995 410.89790645 C-148.34877906 410.98167897 -162.93939661 408.01249857 -175.96484375 395.77929688 C-184.13761928 386.83404729 -190.13872358 374.94338513 -190.16547108 362.67510986 C-190.17215784 361.24575214 -190.17215784 361.24575214 -190.17897969 359.7875185 C-190.17879533 358.74872138 -190.17861097 357.70992426 -190.17842102 356.63964844 C-190.18209771 355.52973887 -190.1857744 354.41982931 -190.1895625 353.27628613 C-190.20059372 349.54942046 -190.20444226 345.82258267 -190.20825195 342.09570312 C-190.21451707 339.4264357 -190.2211513 336.75717124 -190.22816467 334.08790588 C-190.24790413 326.07206373 -190.25799255 318.05622035 -190.26689246 310.04035997 C-190.27127989 306.2614741 -190.27664556 302.48258961 -190.28188133 298.70370483 C-190.29889185 286.13451936 -190.3133844 273.56533474 -190.32063007 260.99613953 C-190.32253983 257.73619587 -190.32446018 254.47625222 -190.32641602 251.21630859 C-190.32689976 250.4061083 -190.3273835 249.59590801 -190.3278819 248.7611562 C-190.33617619 235.64639723 -190.36150372 222.53172964 -190.39399669 209.41701055 C-190.42711596 195.93912975 -190.44508326 182.46129533 -190.44827431 168.98337364 C-190.45043502 161.42143459 -190.45911892 153.85962877 -190.48473549 146.29772949 C-190.5065092 139.85550102 -190.51446034 133.41343814 -190.50476871 126.97117704 C-190.50024301 123.68845218 -190.50421859 120.40613761 -190.52153015 117.12344551 C-190.61568046 98.20574278 -189.81452113 81.9414895 -176.62890625 67.01757812 C-167.0222738 57.99814814 -155.1060979 51.20707557 -141.63684082 51.62219238 C-138.37283202 51.89171542 -135.11438143 52.19624327 -131.85541344 52.5205555 C-94.38045899 56.62130323 -94.38045899 56.62130323 -60.71115112 43.29776001 C-49.99160114 34.18932756 -40.63607901 23.27158871 -32.31355286 11.95799255 C-31.28254707 10.5821273 -31.28254707 10.5821273 -30.23071289 9.1784668 C-29.36851891 7.97053719 -29.36851891 7.97053719 -28.48890686 6.73820496 C-20.42208689 -0.55060625 -10.25199914 -0.05869125 0 0 Z M-37.03952026 88.40694809 C-42.22243148 95.15980686 -47.86809662 99.796527 -56.03125 102.51757812 C-83.09125 102.84757812 -110.15125 103.17757812 -138.03125 103.51757812 C-138.03125 187.66757813 -138.03125 271.81757813 -138.03125 358.51757812 C-3.39125 358.51757812 131.24875 358.51757812 269.96875 358.51757812 C269.96875 274.36757813 269.96875 190.21757812 269.96875 103.51757812 C242.90875 103.18757813 215.84875 102.85757813 187.96875 102.51757812 C176.46374177 97.40424114 169.52989361 91.10752115 162.14409637 81.22292519 C150.17011064 65.28028287 137.87628786 52.20501624 117.4453125 48.97949219 C102.71469994 47.08709297 87.90864998 47.22796912 73.08866501 47.56533885 C67.94292722 47.66459831 62.82826458 47.56321345 57.68652344 47.35107422 C14.92942729 45.62671144 -10.60231459 53.51038869 -37.03952026 88.40694809 Z " fill="#FFFFFF" transform="translate(190.03125,-0.517578125)"/>
<path d="M0 0 C22.01865863 18.62651314 35.23912536 44.24183437 37.6796875 72.99609375 C39.47726477 100.0035961 31.00202297 125.61263465 13.83984375 146.40234375 C13.22753906 147.17835938 12.61523438 147.954375 11.984375 148.75390625 C-3.56504367 167.51930277 -27.30389757 178.94833695 -51.16015625 182.40234375 C-72.9496025 184.08164127 -93.7881912 181.93797386 -113.16015625 171.40234375 C-114.12566406 170.91378906 -115.09117187 170.42523438 -116.0859375 169.921875 C-138.60827986 157.8403536 -155.26397639 136.51216472 -163.16015625 112.40234375 C-171.2074246 85.02676344 -169.37539809 56.49347714 -155.9831543 31.08764648 C-151.81559176 23.52581887 -146.99252016 16.79111717 -141.16015625 10.40234375 C-140.41378906 9.56316406 -139.66742188 8.72398437 -138.8984375 7.859375 C-102.72730768 -30.70323448 -40.57688292 -31.86238457 0 0 Z M-104.9453125 48.375 C-113.35933524 58.85486975 -117.41365673 72.03167196 -116.16015625 85.40234375 C-113.79667106 100.02020173 -107.07840873 112.84217557 -95.04296875 121.6953125 C-82.11200637 130.04719291 -69.4972624 132.86435938 -54.2890625 130.1171875 C-41.86289458 127.27825026 -30.4034921 120.03285104 -23.16015625 109.40234375 C-14.84459155 95.1859591 -11.95111494 81.96396466 -16.06640625 65.76953125 C-20.20120267 53.04026512 -28.29828999 42.13266076 -40.0234375 35.42578125 C-63.55902755 24.15279296 -87.51952943 29.11893774 -104.9453125 48.375 Z " fill="#FFFFFF" transform="translate(321.16015625,137.59765625)"/>
</svg>
