<?xml version="1.0" encoding="UTF-8"?>
<svg version="1.1" xmlns="http://www.w3.org/2000/svg" width="512" height="487">
<path d="M0 0 C1.20323914 -0.00191345 2.40647827 -0.0038269 3.6461792 -0.00579834 C6.16711641 -0.00714873 8.68806085 -0.00353321 11.20898438 0.00488281 C15.05094039 0.01563638 18.8924329 0.00492863 22.734375 -0.0078125 C25.19791769 -0.00649144 27.66146009 -0.00393015 30.125 0 C31.26269836 -0.00404846 32.40039673 -0.00809692 33.5725708 -0.01226807 C43.96856248 0.04849996 52.06934039 0.89240966 59.796875 8.265625 C65.18409858 14.35017955 67.28873176 20.48162277 67.1171875 28.60546875 C66.33058094 35.13814032 63.53327604 41.66079065 58.796875 46.265625 C52.87555648 50.55980434 48.47083874 52.39543465 41.11035156 52.37915039 C39.96947083 52.37907486 38.82859009 52.37899933 37.65313721 52.37892151 C36.42697693 52.37376022 35.20081665 52.36859894 33.9375 52.36328125 C32.67798523 52.3618663 31.41847046 52.36045135 30.12078857 52.35899353 C26.78022381 52.35434573 23.43972779 52.34536781 20.09918213 52.33428955 C16.6872212 52.32404098 13.27525315 52.31948854 9.86328125 52.31445312 C3.1744602 52.30342463 -3.51432843 52.28668689 -10.203125 52.265625 C-10.19623657 52.93955292 -10.18934814 53.61348083 -10.18225098 54.30783081 C-10.17689331 55.19866364 -10.17153564 56.08949646 -10.16601562 57.00732422 C-10.1591272 57.88750214 -10.15223877 58.76768005 -10.1451416 59.67453003 C-10.56958935 78.64175966 -20.90421519 96.37763656 -34.203125 109.265625 C-48.0504418 121.85206965 -66.08046915 129.34883039 -84.82177734 129.4074707 C-86.72943375 129.41802238 -86.72943375 129.41802238 -88.67562866 129.42878723 C-89.3456126 129.43060312 -90.01559654 129.43241901 -90.70588303 129.43428993 C-92.82612357 129.44153285 -94.94614285 129.45725513 -97.0663147 129.47563171 C-103.09007783 129.52774316 -109.11371144 129.57604491 -115.13769531 129.59155273 C-118.83538636 129.60169071 -122.53250516 129.63115141 -126.22996902 129.67287254 C-127.62919391 129.68509582 -129.02849986 129.69031983 -130.42777634 129.68807411 C-140.02706987 129.67645541 -147.51623896 130.30781012 -155.015625 136.640625 C-159.15152254 141.60370205 -162.32329521 145.79988599 -162.33455276 152.39461899 C-162.34031448 153.66157596 -162.34031448 153.66157596 -162.3461926 154.95412803 C-162.34532612 155.88222415 -162.34445963 156.81032028 -162.34356689 157.76654053 C-162.34653802 158.75238451 -162.34950914 159.7382285 -162.3525703 160.75394654 C-162.36127389 164.0726265 -162.36276695 167.39127046 -162.36425781 170.70996094 C-162.36888482 173.08325274 -162.37390932 175.4565438 -162.37930298 177.82983398 C-162.3924405 184.28859673 -162.39891121 190.74735257 -162.40331364 197.20612621 C-162.40607622 201.23932972 -162.41031362 205.27253084 -162.41481781 209.30573273 C-162.42701099 220.47314682 -162.43730991 231.64055898 -162.4406929 242.80797958 C-162.44091247 243.52277521 -162.44113203 244.23757083 -162.44135825 244.97402693 C-162.44157653 245.69053183 -162.44179481 246.40703673 -162.4420197 247.1452539 C-162.44246317 248.59716145 -162.44290973 250.04906901 -162.44335938 251.50097656 C-162.44369152 252.58127071 -162.44369152 252.58127071 -162.44403037 253.68338898 C-162.44797755 265.35057842 -162.46542889 277.01770538 -162.4887189 288.68487069 C-162.51243906 300.66426342 -162.52489507 312.6436248 -162.52606082 324.62304139 C-162.52697726 331.34866123 -162.53272153 338.07419966 -162.55088043 344.79979706 C-162.56733539 351.12644567 -162.56952905 357.4529397 -162.56074142 363.77960205 C-162.55996967 366.10197615 -162.56433196 368.42435847 -162.57419968 370.74671173 C-162.58688009 373.91691768 -162.58106325 377.08657294 -162.57061768 380.2567749 C-162.57867408 381.17594814 -162.58673048 382.09512138 -162.59503102 383.04214835 C-162.52907531 391.60026905 -159.90380532 397.20654963 -154.1015625 403.53515625 C-148.50030126 408.64083265 -141.26693199 409.38871738 -133.96233082 409.39705276 C-132.69755337 409.40089391 -131.43277591 409.40473505 -130.12967187 409.4086926 C-128.72852244 409.4079124 -127.32737307 409.40703363 -125.92622375 409.40606689 C-124.43585689 409.40865127 -122.94549072 409.41166463 -121.45512551 409.4150703 C-117.35835519 409.42313507 -113.2616024 409.42492958 -109.16482508 409.42566776 C-104.74681607 409.42751923 -100.32881614 409.43506704 -95.91081238 409.44180298 C-86.24958936 409.45538312 -76.58837049 409.46141052 -66.92713952 409.46581364 C-60.8941713 409.4685766 -54.86120467 409.47281405 -48.82823753 409.47731781 C-32.12341697 409.48951006 -15.41859769 409.49980946 1.28622723 409.5031929 C2.35531127 409.50341247 3.42439532 409.50363203 4.52587586 409.50385825 C5.59751193 409.50407653 6.66914801 409.50429481 7.77325791 409.5045197 C9.94478587 409.50496317 12.11631384 409.50540973 14.2878418 409.50585938 C15.36499373 409.5060808 16.44214567 409.50630223 17.55193857 409.50653037 C35.00450577 409.51047814 52.45703121 409.52793172 69.90958228 409.5512189 C87.82952717 409.57493664 105.74945111 409.58739495 123.66941196 409.58856082 C133.73012333 409.58947734 143.79078029 409.59522393 153.85147667 409.61338043 C162.41863499 409.62878711 170.98572209 409.63389852 179.55289163 409.62564233 C183.92271891 409.62173785 188.29240278 409.62265557 192.66221237 409.63669968 C196.66631829 409.64945058 200.6701732 409.6482307 204.67427883 409.63610896 C206.11911844 409.63415403 207.56397591 409.63722101 209.00879046 409.64595333 C220.33653131 409.71005627 229.73626583 409.11361261 238.171875 401.03515625 C243.39875704 395.34338326 243.94614477 390.21325026 243.93490601 382.75265503 C243.93772729 381.9926687 243.94054857 381.23268236 243.94345534 380.44966614 C243.95179311 377.90116685 243.9531389 375.35271104 243.95458984 372.80419922 C243.95925877 370.97749204 243.96440247 369.15078603 243.96998596 367.32408142 C243.98126487 363.38829533 243.98970015 359.45251681 243.99610519 355.51671982 C244.00679106 349.28830908 244.02703848 343.05995256 244.04922485 336.83157349 C244.11112621 319.11951181 244.16512631 301.4074531 244.19824219 283.6953125 C244.21660937 273.91448632 244.24557281 264.13375076 244.2862469 254.35299122 C244.30728376 249.17940517 244.32276945 244.00593317 244.32505417 238.83230209 C244.32720759 233.9616309 244.34314767 229.09119705 244.36944389 224.22059822 C244.37661227 222.43809507 244.37874986 220.65556309 244.37534142 218.87304878 C244.33688039 194.92441844 244.33688039 194.92441844 252.796875 186.265625 C258.9995255 180.95310429 266.34292715 179.01588736 274.44140625 179.38671875 C282.03048099 180.51750254 286.92745712 184.24110345 292.109375 189.703125 C295.97853335 195.5785136 297.24202303 200.44776694 297.18455505 207.44065857 C297.19263336 208.63326084 297.19263336 208.63326084 297.20087487 209.8499561 C297.21511965 212.4996587 297.2080592 215.14885924 297.20092773 217.79858398 C297.20663348 219.7046702 297.21359853 221.61075301 297.22172546 223.51683044 C297.23965881 228.68679617 297.23848697 233.85659214 297.23278308 239.02657962 C297.22968851 243.35239155 297.23578735 247.67817101 297.24182183 252.00397831 C297.25586884 262.22102284 297.254307 272.43798379 297.24291992 282.6550293 C297.23146534 293.16421041 297.24546918 303.67313552 297.2723164 314.18228287 C297.29454837 323.22635416 297.30109315 332.27034556 297.29523998 341.31444222 C297.29188385 346.70619044 297.29419439 352.09777501 297.31149101 357.48950005 C297.32707556 362.56955405 297.3228782 367.64923304 297.30418587 372.72927284 C297.30053021 374.58183602 297.30351885 376.43442768 297.31407166 378.28696442 C297.39027004 392.78414894 296.02209101 406.68909005 288.984375 419.703125 C288.46508423 420.69711304 288.46508423 420.69711304 287.93530273 421.71118164 C285.08328872 427.02994333 281.8625215 431.78992403 277.796875 436.265625 C277.15492188 436.99910156 276.51296875 437.73257812 275.8515625 438.48828125 C262.22098073 453.14995869 243.57994627 460.79739825 223.796875 462.265625 C218.85099636 462.40907506 213.906224 462.4051935 208.95870972 462.39933777 C207.4560799 462.40120817 205.95345056 462.40350978 204.450822 462.40620309 C200.33853531 462.41229931 196.22626903 462.41219007 192.11397886 462.41100872 C187.67208769 462.41080415 183.23020297 462.41632879 178.78831482 462.42106628 C170.09158603 462.42936172 161.39486402 462.43212064 152.69813161 462.43267866 C145.62562848 462.4331544 138.55312758 462.43521204 131.48062515 462.43837929 C111.41158443 462.44718327 91.34254905 462.45179913 71.27350639 462.45104881 C70.19228248 462.45100886 69.11105858 462.4509689 67.99707031 462.45092773 C66.91452009 462.45088685 65.83196987 462.45084597 64.7166151 462.45080385 C47.18039198 462.45039758 29.64419035 462.4599631 12.10797344 462.4740661 C-5.91495322 462.48844568 -23.93786942 462.4953354 -41.96080196 462.49447232 C-52.07246043 462.49414088 -62.18409637 462.49686507 -72.29574966 462.50765038 C-80.90657541 462.51677625 -89.51736841 462.51891356 -98.12819691 462.51214095 C-102.51686812 462.50888611 -106.90547661 462.50878139 -111.29414177 462.5174942 C-115.32112606 462.52540632 -119.34799837 462.52388017 -123.37498008 462.51521007 C-124.82247896 462.51368537 -126.26998641 462.5154518 -127.71747519 462.52107015 C-152.18594292 462.60966133 -173.62840117 457.9453703 -191.93359375 440.52734375 C-192.68253906 439.78097656 -193.43148437 439.03460938 -194.203125 438.265625 C-195.24919922 437.25435547 -195.24919922 437.25435547 -196.31640625 436.22265625 C-209.54690993 422.5297272 -215.35391628 403.78146873 -215.35029602 385.08486938 C-215.35397271 384.06197669 -215.3576494 383.039084 -215.3614375 381.98519456 C-215.37244771 378.55864673 -215.37631371 375.13212926 -215.38012695 371.70556641 C-215.38639373 369.24791366 -215.39304073 366.79026186 -215.40003967 364.33261108 C-215.41924584 356.95788483 -215.4298658 349.58316663 -215.43876746 342.20842272 C-215.44315818 338.72878498 -215.44852302 335.24914874 -215.45375633 331.76951218 C-215.4707659 320.19023518 -215.48525705 308.61095909 -215.49250507 297.03167152 C-215.49441473 294.02974064 -215.49633509 291.02780976 -215.49829102 288.02587891 C-215.49877476 287.27983396 -215.4992585 286.53378901 -215.4997569 285.76513664 C-215.50804597 273.6968081 -215.53336507 261.62857904 -215.56587169 249.56029387 C-215.59903019 237.14796848 -215.61696183 224.73569349 -215.62014931 212.32332361 C-215.62230652 205.36324858 -215.63093842 198.40331853 -215.65661049 191.4432869 C-215.68073342 184.88838806 -215.68408832 178.3337018 -215.67384911 171.77875137 C-215.67335578 169.38274773 -215.6796158 166.98673092 -215.69340515 164.59076691 C-215.77976675 148.68538747 -215.25640184 133.48266232 -207.640625 119.078125 C-207.30401855 118.42650391 -206.96741211 117.77488281 -206.62060547 117.10351562 C-196.67223804 98.71939804 -179.74629421 85.96175505 -159.98583984 79.7746582 C-151.27447584 77.22140364 -142.75926383 77.11344822 -133.74926758 77.06639481 C-131.66283206 77.05445696 -129.57659009 77.03497183 -127.49023438 77.01327515 C-121.56386822 76.95213344 -115.63753083 76.89763844 -109.7109375 76.86425781 C-106.07052523 76.8432147 -102.43048285 76.80784908 -98.7902832 76.76350021 C-97.41256073 76.7494318 -96.03477302 76.74063868 -94.65698242 76.73744583 C-85.35685709 76.71359726 -76.79763846 76.59126833 -69.58203125 69.8671875 C-63.64013393 62.96583367 -62.70417405 55.67896445 -61.92944336 46.94824219 C-60.59993041 32.71725444 -54.02013803 20.58742614 -43.0625 11.33984375 C-29.60738476 1.57937081 -16.28962515 -0.05838159 0 0 Z " fill="#FFFFFF" transform="translate(215.203125,24.734375)"/>
<path d="M0 0 C23.80094481 20.92937772 35.60171009 46.49853455 37.96875 77.8125 C38.74987142 103.05248583 29.57885706 128.54925245 12.78125 147.33203125 C12.018125 148.34265625 11.255 149.35328125 10.46875 150.39453125 C-2.90039698 165.00731981 -22.0588139 175.64684739 -41.21875 180.33203125 C-42.52005859 180.66847656 -42.52005859 180.66847656 -43.84765625 181.01171875 C-70.0893807 186.58856267 -97.2551042 180.96760492 -120.01953125 167.41796875 C-124.69913716 164.36679713 -128.97067697 160.94935283 -133.21875 157.33203125 C-134.06566406 156.66945313 -134.91257813 156.006875 -135.78515625 155.32421875 C-154.43957024 140.05335016 -165.18241838 114.31895602 -167.75463867 90.85693359 C-170.28002036 64.32226957 -163.49212765 37.39313737 -146.78125 16.33203125 C-145.28698836 14.64150057 -143.76551539 12.97465982 -142.21875 11.33203125 C-141.37699219 10.41164062 -140.53523438 9.49125 -139.66796875 8.54296875 C-103.50487278 -29.45183251 -40.34264835 -34.19014789 0 0 Z M-103.5 45.890625 C-112.6785261 57.8000858 -117.2634688 70.18360863 -116.21875 85.33203125 C-114.16892049 99.6287235 -107.76216854 111.51705257 -96.40625 120.51953125 C-83.90342514 129.39484406 -71.23230199 131.65656164 -56.21875 130.33203125 C-47.77363817 128.78052845 -40.94804933 125.60419883 -34.21875 120.33203125 C-33.60515625 119.88085938 -32.9915625 119.4296875 -32.359375 118.96484375 C-21.93696665 110.8021611 -15.80133877 98.30535156 -14.21875 85.33203125 C-13.15132628 72.59785353 -16.31733405 59.80863717 -24.296875 49.69921875 C-26.5290369 47.15576896 -28.82825064 44.72668078 -31.21875 42.33203125 C-31.79625 41.74292969 -32.37375 41.15382813 -32.96875 40.546875 C-42.83724317 31.27144031 -56.01745929 28.65639151 -69.11328125 29.01953125 C-82.03928195 29.74350795 -94.89757341 36.24235546 -103.5 45.890625 Z " fill="#FFFFFF" transform="translate(321.21875,201.66796875)"/>
<path d="M0 0 C5.48780111 3.94684246 9.32771411 8.98349895 11.15625 15.55078125 C11.5654629 20.01068719 11.50544025 24.4465154 11.44921875 28.921875 C11.44497391 30.19934097 11.44072906 31.47680695 11.43635559 32.79298401 C11.4224545 36.16826422 11.3955615 39.54292177 11.36224365 42.91802979 C11.33140321 46.37042904 11.3178206 49.82289295 11.30273438 53.27539062 C11.26972325 60.03402451 11.21956661 66.79236698 11.15625 73.55078125 C11.8606723 73.53967819 12.5650946 73.52857513 13.29086304 73.51713562 C19.96875387 73.4164465 26.64642916 73.34057161 33.32491112 73.29172039 C36.75746742 73.26575964 40.18939022 73.23061591 43.62158203 73.17358398 C47.57837013 73.10825552 51.53491259 73.08448886 55.4921875 73.0625 C57.31778702 73.02379036 57.31778702 73.02379036 59.18026733 72.98429871 C67.69175663 72.98152874 74.62324284 74.40883101 81.06137085 80.29154968 C87.27872487 86.92215164 88.80268271 93.3243049 88.56640625 102.26171875 C87.62081947 109.84442418 84.02532465 115.486397 78.1953125 120.296875 C70.69275611 124.910516 64.48107673 124.95299211 55.78515625 124.84375 C54.50769028 124.83950516 53.2302243 124.83526031 51.91404724 124.83088684 C48.53876703 124.81698575 45.16410948 124.79009275 41.78900146 124.7567749 C38.33660221 124.72593446 34.8841383 124.71235185 31.43164062 124.69726562 C24.67300674 124.6642545 17.91466427 124.61409786 11.15625 124.55078125 C11.16735306 125.25520355 11.17845612 125.95962585 11.18989563 126.68539429 C11.29058475 133.36328512 11.36645964 140.04096041 11.41531086 146.71944237 C11.44127161 150.15199867 11.47641534 153.58392147 11.53344727 157.01611328 C11.59877573 160.97290138 11.62254239 164.92944384 11.64453125 168.88671875 C11.67033768 170.1037851 11.6961441 171.32085144 11.72273254 172.57479858 C11.72550251 181.08628788 10.29820024 188.01777409 4.41548157 194.4559021 C-2.21512039 200.67325612 -8.61727365 202.19721396 -17.5546875 201.9609375 C-25.13739293 201.01535072 -30.77936575 197.4198559 -35.58984375 191.58984375 C-40.20348475 184.08728736 -40.24596086 177.87560798 -40.13671875 169.1796875 C-40.13247391 167.90222153 -40.12822906 166.62475555 -40.12385559 165.30857849 C-40.1099545 161.93329828 -40.0830615 158.55864073 -40.04974365 155.18353271 C-40.01890321 151.73113346 -40.0053206 148.27866955 -39.99023438 144.82617188 C-39.95722325 138.06753799 -39.90706661 131.30919552 -39.84375 124.55078125 C-40.90038345 124.56743584 -40.90038345 124.56743584 -41.97836304 124.58442688 C-48.65625387 124.685116 -55.33392916 124.76099089 -62.01241112 124.80984211 C-65.44496742 124.83580286 -68.87689022 124.87094659 -72.30908203 124.92797852 C-76.26587013 124.99330698 -80.22241259 125.01707364 -84.1796875 125.0390625 C-85.39675385 125.06486893 -86.61382019 125.09067535 -87.86776733 125.11726379 C-96.37925663 125.12003376 -103.31074284 123.69273149 -109.74887085 117.81001282 C-115.96622487 111.17941086 -117.49018271 104.7772576 -117.25390625 95.83984375 C-116.30831947 88.25713832 -112.71282465 82.6151655 -106.8828125 77.8046875 C-99.38025611 73.1910465 -93.16857673 73.14857039 -84.47265625 73.2578125 C-82.55645729 73.26417976 -82.55645729 73.26417976 -80.60154724 73.27067566 C-77.22626703 73.28457675 -73.85160948 73.31146975 -70.47650146 73.3447876 C-67.02410221 73.37562804 -63.5716383 73.38921065 -60.11914062 73.40429688 C-53.36050674 73.437308 -46.60216427 73.48746464 -39.84375 73.55078125 C-39.85485306 72.84635895 -39.86595612 72.14193665 -39.87739563 71.41616821 C-39.97808475 64.73827738 -40.05395964 58.06060209 -40.10281086 51.38212013 C-40.12877161 47.94956383 -40.16391534 44.51764103 -40.22094727 41.08544922 C-40.28627573 37.12866112 -40.31004239 33.17211866 -40.33203125 29.21484375 C-40.35783768 27.9977774 -40.3836441 26.78071106 -40.41023254 25.52676392 C-40.41300251 17.01527462 -38.98570024 10.08378841 -33.10298157 3.6456604 C-23.80785401 -5.07015439 -11.08326867 -6.38727334 0 0 Z " fill="#FFFFFF" transform="translate(423.84375,3.44921875)"/>
</svg>
