<?xml version="1.0" encoding="UTF-8"?>
<svg version="1.1" xmlns="http://www.w3.org/2000/svg" width="491" height="512">
<path d="M0 0 C0.99451172 -0.02835938 1.98902344 -0.05671875 3.01367188 -0.0859375 C13.48283125 -0.11343365 20.29219917 4.4604225 27.6875 11.5 C28.8940625 12.7375 28.8940625 12.7375 30.125 14 C32.17532656 16.00031859 34.06529349 17.53836955 36.375 19.1875 C39.75513406 21.6498074 42.59715957 24.36618285 45.5 27.375 C49.76033808 31.74710621 54.26688838 35.25216458 59.26171875 38.7421875 C62.07657523 40.78193857 64.35526381 42.93454019 66.6875 45.5 C67.0175 45.83 67.3475 46.16 67.6875 46.5 C70.0381839 46.48722454 72.34301576 46.39399853 74.6875 46.25 C75.45860107 46.20625244 76.22970215 46.16250488 77.02416992 46.11743164 C82.52322065 45.77572386 88.00491495 45.29537921 93.48828125 44.76171875 C119.82008873 42.19978311 119.82008873 42.19978311 130.6875 42.0625 C131.48583252 42.04050537 132.28416504 42.01851074 133.10668945 41.99584961 C139.02702673 42.01687761 143.47196991 43.79468438 148.6875 46.5 C149.698125 47.015625 150.70875 47.53125 151.75 48.0625 C160.36103675 55.20782837 164.06367388 63.95001741 166.4375 74.625 C166.72278564 75.81424072 167.00807129 77.00348145 167.30200195 78.22875977 C167.86476756 80.58661155 168.41698763 82.94701068 168.95751953 85.31005859 C169.57103103 87.99104229 170.20938497 90.66265758 170.87109375 93.33203125 C172.96991439 101.86249879 174.72756577 110.45259363 176.3815918 119.07983398 C176.53797119 119.88751221 176.69435059 120.69519043 176.85546875 121.52734375 C176.99235107 122.24656006 177.1292334 122.96577637 177.27026367 123.70678711 C177.63472844 125.58852499 177.63472844 125.58852499 178.6875 127.5 C180.13894288 128.28289949 181.62513631 129.00191488 183.125 129.6875 C187.84197566 131.96882536 191.94896615 134.68445376 196.19140625 137.7421875 C201.93818812 141.78921698 208.06211439 145.18198334 214.25 148.5 C226.57157229 155.17201875 241.15118125 163.43188818 245.6875 177.5 C248.29356326 191.83334796 243.64765855 203.73801848 237.6875 216.5 C236.89800553 218.24863238 236.11155816 219.99864361 235.328125 221.75 C234.17542893 224.32287922 233.01983453 226.89402566 231.84960938 229.45898438 C228.84717769 236.04750785 226.20017017 242.70872681 223.6875 249.5 C223.31367188 250.37527344 222.93984375 251.25054687 222.5546875 252.15234375 C221.01861246 256.31081718 221.98281652 259.81721585 223.6640625 263.83203125 C224.51641477 265.6659634 225.37938125 267.49498115 226.25 269.3203125 C227.80523462 272.76042385 229.10030984 276.26269047 230.375 279.8125 C233.24346333 287.72580395 236.70465416 295.33668084 240.26049805 302.9621582 C245.63108404 314.5233866 248.08780806 326.0036356 244.8828125 338.68359375 C238.27919806 353.27985877 219.71008504 362.21035207 206.25 369.4375 C200.5440111 372.51615503 195.12338385 375.97202092 189.6875 379.5 C188.19028207 380.46267401 186.69057435 381.42149579 185.1875 382.375 C184.5790625 382.76429688 183.970625 383.15359375 183.34375 383.5546875 C181.6875 384.5 181.6875 384.5 178.6875 385.5 C177.55218105 388.29566807 177.55218105 388.29566807 176.75 391.8125 C176.58089111 392.48128174 176.41178223 393.15006348 176.23754883 393.83911133 C174.94412833 399.08894743 173.89792775 404.37961157 172.875 409.6875 C171.21706816 418.2677859 169.26653258 426.7621355 167.1875 435.25 C166.90285889 436.44004639 166.61821777 437.63009277 166.32495117 438.85620117 C163.26900351 451.13663184 158.8738293 460.70501149 147.8125 467.45703125 C141.86927985 470.37401614 136.70566897 470.81900124 130.20703125 470.75 C129.29025101 470.74468262 128.37347076 470.73936523 127.4289093 470.73388672 C117.02257902 470.59429708 106.71863906 469.57654045 96.375 468.5 C93.5315597 468.21127176 90.68786519 467.92558458 87.84370422 467.64404297 C86.0990835 467.4706479 84.35488537 467.29291904 82.61125183 467.10986328 C77.60874844 466.60435893 72.71525805 466.24607631 67.6875 466.5 C65.14507422 468.5385032 65.14507422 468.5385032 62.6875 471.5 C61.10372926 472.8165955 59.49711569 474.10594754 57.875 475.375 C51.98170121 480.03542768 46.30354372 484.79736751 41.0625 490.1875 C38.18866352 493.1201195 35.13194165 495.25362501 31.6875 497.5 C30.924375 498.263125 30.16125 499.02625 29.375 499.8125 C21.69830808 507.48919192 14.51964791 512.86152615 3.42382812 513.0078125 C2.41771484 513.00523437 1.41160156 513.00265625 0.375 513 C-0.61951172 513.02835938 -1.61402344 513.05671875 -2.63867188 513.0859375 C-13.10783125 513.11343365 -19.91719917 508.5395775 -27.3125 501.5 C-28.116875 500.675 -28.92125 499.85 -29.75 499 C-31.80032656 496.99968141 -33.69029349 495.46163045 -36 493.8125 C-39.38013406 491.3501926 -42.22215957 488.63381715 -45.125 485.625 C-49.38533808 481.25289379 -53.89188838 477.74783542 -58.88671875 474.2578125 C-61.70157523 472.21806143 -63.98026381 470.06545981 -66.3125 467.5 C-66.6425 467.17 -66.9725 466.84 -67.3125 466.5 C-69.6631839 466.51277546 -71.96801576 466.60600147 -74.3125 466.75 C-75.08360107 466.79374756 -75.85470215 466.83749512 -76.64916992 466.88256836 C-82.14822065 467.22427614 -87.62991495 467.70462079 -93.11328125 468.23828125 C-119.44508873 470.80021689 -119.44508873 470.80021689 -130.3125 470.9375 C-131.11083252 470.95949463 -131.90916504 470.98148926 -132.73168945 471.00415039 C-141.48271081 470.9730683 -149.81126617 466.86025559 -156.05859375 460.80859375 C-170.12615701 444.86535539 -172.3224579 413.52244628 -176.15844727 393.26269531 C-176.86952 389.26662954 -176.86952 389.26662954 -178.3125 385.5 C-179.76394288 384.71710051 -181.25013631 383.99808512 -182.75 383.3125 C-187.46697566 381.03117464 -191.57396615 378.31554624 -195.81640625 375.2578125 C-201.56318812 371.21078302 -207.68711439 367.81801666 -213.875 364.5 C-226.19657229 357.82798125 -240.77618125 349.56811182 -245.3125 335.5 C-247.91856326 321.16665204 -243.27265855 309.26198152 -237.3125 296.5 C-236.52300553 294.75136762 -235.73655816 293.00135639 -234.953125 291.25 C-233.80042893 288.67712078 -232.64483453 286.10597434 -231.47460938 283.54101562 C-228.47217769 276.95249215 -225.82517017 270.29127319 -223.3125 263.5 C-222.93867188 262.62472656 -222.56484375 261.74945313 -222.1796875 260.84765625 C-220.64361246 256.68918282 -221.60781652 253.18278415 -223.2890625 249.16796875 C-224.14141477 247.3340366 -225.00438125 245.50501885 -225.875 243.6796875 C-227.43023462 240.23957615 -228.72530984 236.73730953 -230 233.1875 C-232.86846333 225.27419605 -236.32965416 217.66331916 -239.88549805 210.0378418 C-245.25608404 198.4766134 -247.71280806 186.9963644 -244.5078125 174.31640625 C-237.90419806 159.72014123 -219.33508504 150.78964793 -205.875 143.5625 C-200.1690111 140.48384497 -194.74838385 137.02797908 -189.3125 133.5 C-187.81528207 132.53732599 -186.31557435 131.57850421 -184.8125 130.625 C-184.2040625 130.23570312 -183.595625 129.84640625 -182.96875 129.4453125 C-181.3125 128.5 -181.3125 128.5 -178.3125 127.5 C-177.17718105 124.70433193 -177.17718105 124.70433193 -176.375 121.1875 C-176.20589111 120.51871826 -176.03678223 119.84993652 -175.86254883 119.16088867 C-174.56912833 113.91105257 -173.52292775 108.62038843 -172.5 103.3125 C-170.84206816 94.7322141 -168.89153258 86.2378645 -166.8125 77.75 C-166.38553833 75.96493042 -166.38553833 75.96493042 -165.94995117 74.14379883 C-162.89400351 61.86336816 -158.4988293 52.29498851 -147.4375 45.54296875 C-141.49427985 42.62598386 -136.33066897 42.18099876 -129.83203125 42.25 C-128.91525101 42.25531738 -127.99847076 42.26063477 -127.0539093 42.26611328 C-116.64757902 42.40570292 -106.34363906 43.42345955 -96 44.5 C-93.1565597 44.78872824 -90.31286519 45.07441542 -87.46870422 45.35595703 C-85.7240835 45.5293521 -83.97988537 45.70708096 -82.23625183 45.89013672 C-77.23374844 46.39564107 -72.34025805 46.75392369 -67.3125 46.5 C-64.77007422 44.4614968 -64.77007422 44.4614968 -62.3125 41.5 C-60.72872926 40.1834045 -59.12211569 38.89405246 -57.5 37.625 C-51.60670121 32.96457232 -45.92854372 28.20263249 -40.6875 22.8125 C-37.81366352 19.8798805 -34.75694165 17.74637499 -31.3125 15.5 C-30.1678125 14.3553125 -30.1678125 14.3553125 -29 13.1875 C-20.11035508 4.29785508 -12.63546349 -0.03237787 0 0 Z M-0.3125 39.5 C-2.14827501 40.65645101 -2.14827501 40.65645101 -3.9375 42.4375 C-4.64390625 43.0871875 -5.3503125 43.736875 -6.078125 44.40625 C-6.81546875 45.0971875 -7.5528125 45.788125 -8.3125 46.5 C-12.95589784 50.70912322 -17.64192326 54.80360263 -22.5625 58.6875 C-26.05111316 61.44506325 -29.20743821 64.31101763 -32.3125 67.5 C-34.59479707 69.56238824 -36.94961897 71.53093247 -39.3125 73.5 C-40.10140625 74.17804688 -40.8903125 74.85609375 -41.703125 75.5546875 C-51.97825774 84.1593232 -61.18071528 86.15555476 -74.54663086 85.15454102 C-76.79115486 84.9477589 -79.03472871 84.73045566 -81.27734375 84.50390625 C-82.4730751 84.39151108 -83.66880646 84.27911591 -84.90077209 84.16331482 C-88.6848198 83.80581802 -92.46736908 83.43466091 -96.25 83.0625 C-100.05785085 82.69679051 -103.86595631 82.33389005 -107.67420959 81.97239685 C-110.03504987 81.74733544 -112.39560945 81.51930525 -114.75584412 81.28797913 C-115.82117874 81.18464767 -116.88651337 81.08131622 -117.98413086 80.97485352 C-119.38664345 80.83709251 -119.38664345 80.83709251 -120.81748962 80.69654846 C-122.97679447 80.52644574 -125.14650546 80.5 -127.3125 80.5 C-132.48510366 98.33075173 -132.48510366 98.33075173 -136.33032227 116.47216797 C-141.6595593 148.59329729 -141.6595593 148.59329729 -156.1875 159.3125 C-160.26928784 161.98785252 -164.49845188 164.16350253 -168.89453125 166.26953125 C-172.03465596 167.86749455 -174.87308129 169.77822846 -177.77734375 171.765625 C-186.99277117 178.07017011 -196.18223336 183.76883151 -206.3125 188.5 C-203.55935051 197.44535422 -199.67629355 205.78918561 -195.78320312 214.28710938 C-192.86475954 220.74128937 -190.28732052 227.15064578 -188.18188477 233.91674805 C-187.34854063 236.39291045 -186.34685848 238.66175113 -185.1875 241 C-181.23937716 249.66393622 -180.37165528 258.44164339 -183.3125 267.5 C-184.45521742 270.50170337 -185.68372014 273.4470101 -186.96875 276.390625 C-188.27823347 279.42070884 -189.46436772 282.47270866 -190.625 285.5625 C-195.14120565 297.40151228 -200.06997657 309.11691605 -205.5 320.56640625 C-206.44163027 322.45774432 -206.44163027 322.45774432 -206.3125 324.5 C-205.4153125 324.96148437 -204.518125 325.42296875 -203.59375 325.8984375 C-196.50882206 329.58578556 -189.58373869 333.44826896 -182.8125 337.6875 C-182.16732422 338.09081543 -181.52214844 338.49413086 -180.85742188 338.90966797 C-177.73297467 340.88789217 -174.69553839 342.93179537 -171.71484375 345.12109375 C-168.7447924 347.26909968 -165.72028212 348.85727469 -162.375 350.375 C-153.75850258 354.58631311 -145.95686349 360.63908257 -142.3996582 369.8684082 C-141.58374386 372.54323256 -140.86690459 375.22482189 -140.1875 377.9375 C-139.93162109 378.91614014 -139.67574219 379.89478027 -139.41210938 380.90307617 C-137.69942839 387.58570771 -136.34056764 394.261796 -135.1640625 401.05859375 C-134.07141084 407.04820777 -132.60963156 412.95684135 -131.1875 418.875 C-130.92130859 419.9885083 -130.65511719 421.1020166 -130.38085938 422.24926758 C-129.23033491 427.50911556 -129.23033491 427.50911556 -127.3125 432.5 C-126.32781738 432.41959473 -125.34313477 432.33918945 -124.32861328 432.25634766 C-122.93001363 432.14224509 -121.53141332 432.02815075 -120.1328125 431.9140625 C-119.38142502 431.85271622 -118.63003754 431.79136993 -117.85588074 431.72816467 C-113.68826358 431.38833623 -109.52046324 431.05102165 -105.35229492 430.71801758 C-97.70422508 430.10607884 -90.05844259 429.48625401 -82.41796875 428.78515625 C-81.25700684 428.68315918 -80.09604492 428.58116211 -78.89990234 428.47607422 C-76.78591918 428.28979659 -74.67282702 428.09296553 -72.56103516 427.88330078 C-62.34044651 427.00982011 -52.58379211 428.49061423 -44.390625 435.03515625 C-43.06660322 436.19764737 -41.75698825 437.37671636 -40.4609375 438.5703125 C-37.31647507 441.39461148 -33.96098794 443.9353962 -30.609375 446.5078125 C-28.3125 448.5 -28.3125 448.5 -26.3671875 450.98046875 C-24.06473485 453.80381848 -21.66369604 455.59473946 -18.6875 457.6875 C-13.34863702 461.57565602 -8.90311705 465.70899861 -4.37109375 470.53125 C-2.38198566 472.71414592 -2.38198566 472.71414592 0.6875 473.5 C2.52327501 472.34354899 2.52327501 472.34354899 4.3125 470.5625 C5.01890625 469.9128125 5.7253125 469.263125 6.453125 468.59375 C7.19046875 467.9028125 7.9278125 467.211875 8.6875 466.5 C13.33089784 462.29087678 18.01692326 458.19639737 22.9375 454.3125 C26.42611316 451.55493675 29.58243821 448.68898237 32.6875 445.5 C36.80161823 441.74831599 41.05179719 438.59046854 45.6875 435.5 C46.30625 434.819375 46.925 434.13875 47.5625 433.4375 C53.95708316 427.60714477 63.52366977 427.31546579 71.76095581 427.60983276 C75.06453284 427.85611223 78.35638733 428.16313559 81.65234375 428.49609375 C82.8480751 428.60848892 84.04380646 428.72088409 85.27577209 428.83668518 C89.0598198 429.19418198 92.84236908 429.56533909 96.625 429.9375 C100.43285085 430.30320949 104.24095631 430.66610995 108.04920959 431.02760315 C110.41004987 431.25266456 112.77060945 431.48069475 115.13084412 431.71202087 C116.19617874 431.81535233 117.26151337 431.91868378 118.35913086 432.02514648 C119.29413925 432.11698715 120.22914764 432.20882782 121.19248962 432.30345154 C123.35179447 432.47355426 125.52150546 432.5 127.6875 432.5 C132.86010366 414.66924827 132.86010366 414.66924827 136.70532227 396.52783203 C142.0345593 364.40670271 142.0345593 364.40670271 156.5625 353.6875 C160.64428784 351.01214748 164.87345188 348.83649747 169.26953125 346.73046875 C172.40965596 345.13250545 175.24808129 343.22177154 178.15234375 341.234375 C187.36777117 334.92982989 196.55723336 329.23116849 206.6875 324.5 C203.93435051 315.55464578 200.05129355 307.21081439 196.15820312 298.71289062 C193.23975954 292.25871063 190.66232052 285.84935422 188.55688477 279.08325195 C187.72354063 276.60708955 186.72185848 274.33824887 185.5625 272 C181.61437716 263.33606378 180.74665528 254.55835661 183.6875 245.5 C184.83021742 242.49829663 186.05872014 239.5529899 187.34375 236.609375 C188.65323347 233.57929116 189.83936772 230.52729134 191 227.4375 C195.51620565 215.59848772 200.44497657 203.88308395 205.875 192.43359375 C206.81663027 190.54225568 206.81663027 190.54225568 206.6875 188.5 C205.7903125 188.03851563 204.893125 187.57703125 203.96875 187.1015625 C196.88382206 183.41421444 189.95873869 179.55173104 183.1875 175.3125 C182.54232422 174.90918457 181.89714844 174.50586914 181.23242188 174.09033203 C178.10797467 172.11210783 175.07053839 170.06820463 172.08984375 167.87890625 C169.1197924 165.73090032 166.09528212 164.14272531 162.75 162.625 C154.13350258 158.41368689 146.33186349 152.36091743 142.7746582 143.1315918 C141.95874386 140.45676744 141.24190459 137.77517811 140.5625 135.0625 C140.30662109 134.08385986 140.05074219 133.10521973 139.78710938 132.09692383 C138.07442839 125.41429229 136.71556764 118.738204 135.5390625 111.94140625 C134.44641084 105.95179223 132.98463156 100.04315865 131.5625 94.125 C131.29630859 93.0114917 131.03011719 91.8979834 130.75585938 90.75073242 C129.60533491 85.49088444 129.60533491 85.49088444 127.6875 80.5 C126.21047607 80.62060791 126.21047607 80.62060791 124.70361328 80.74365234 C123.30501363 80.85775491 121.90641332 80.97184925 120.5078125 81.0859375 C119.75642502 81.14728378 119.00503754 81.20863007 118.23088074 81.27183533 C114.06326358 81.61166377 109.89546324 81.94897835 105.72729492 82.28198242 C98.07922508 82.89392116 90.43344259 83.51374599 82.79296875 84.21484375 C81.63200684 84.31684082 80.47104492 84.41883789 79.27490234 84.52392578 C77.16091918 84.71020341 75.04782702 84.90703447 72.93603516 85.11669922 C63.5373317 85.91993923 54.71857373 84.7392332 46.6875 79.5 C44.97865995 77.87660195 43.31303283 76.20680947 41.6875 74.5 C39.07419008 72.42755955 36.3789854 70.46937956 33.6875 68.5 C31.00984153 66.49175615 28.92038062 64.80711768 26.8984375 62.140625 C24.51538106 59.29443038 22.0941941 57.4442849 19.0625 55.3125 C13.72363702 51.42434398 9.27811705 47.29100139 4.74609375 42.46875 C2.75698566 40.28585408 2.75698566 40.28585408 -0.3125 39.5 Z " fill="#FFFFFF" transform="translate(245.3125,-0.49999999999999994)"/>
<path d="M0 0 C3.86017979 3.27503942 6.35737062 7.39631448 6.96484375 12.4453125 C7.17008299 18.54847933 5.7921388 22.19588448 2.7265625 27.46484375 C2.0665625 27.46484375 1.4065625 27.46484375 0.7265625 27.46484375 C0.49621685 28.01967375 0.2658712 28.57450375 0.02854538 29.14614677 C-1.63340693 32.10591212 -3.70774587 34.15754946 -6.10516357 36.56399536 C-6.60083242 37.06419532 -7.09650126 37.56439527 -7.60719037 38.0797528 C-9.26821646 39.75343224 -10.93630283 41.41988827 -12.60449219 43.08642578 C-13.79740854 44.28532675 -14.98991354 45.48463714 -16.18203735 46.68432617 C-19.4211273 49.94108901 -22.66668584 53.19133056 -25.91398525 56.43990564 C-28.62430514 59.15212466 -31.33188964 61.86706678 -34.03961301 64.58187759 C-40.42780999 70.98636064 -46.82169461 77.3851279 -53.21875 83.78076172 C-59.81825659 90.37906645 -66.40652542 96.98844552 -72.98962092 103.60311997 C-78.64202059 109.28166592 -84.30209948 114.9524792 -89.96822667 120.61732757 C-93.35225641 124.00084724 -96.73310435 127.38740347 -100.1062851 130.7817421 C-103.27885357 133.97366527 -106.46087187 137.15585437 -109.65040207 140.33082581 C-110.81887687 141.49720808 -111.98394841 142.66701128 -113.14532089 143.84046555 C-114.73237907 145.44295848 -116.33130324 147.0326031 -117.93377686 148.61965942 C-118.82531841 149.51229052 -119.71685997 150.40492161 -120.63541794 151.32460213 C-125.53853118 155.30252829 -130.63188365 155.93460119 -136.7578125 155.76953125 C-146.12209945 154.63534743 -152.11922201 147.32875773 -157.7734375 140.40234375 C-159.76487116 138.0624092 -161.57304144 136.29336473 -163.8984375 134.33984375 C-167.48271138 131.29659234 -170.63978439 127.9603829 -173.7734375 124.46484375 C-176.77039096 121.12508983 -179.75790263 117.90606929 -183.2109375 115.02734375 C-186.95766386 111.87261574 -190.3045059 108.41044887 -193.6484375 104.83984375 C-194.17300537 104.2888501 -194.69757324 103.73785645 -195.23803711 103.17016602 C-200.79360934 97.1577479 -201.80014253 92.48725661 -201.65234375 84.4765625 C-200.87815017 78.32292072 -197.93106889 74.75779623 -193.1484375 71.02734375 C-187.85170097 68.14868259 -183.19486879 67.84010559 -177.2734375 68.46484375 C-171.77673503 70.73934133 -168.3295166 74.19264746 -164.24609375 78.45703125 C-162.47460728 80.26008876 -160.66442334 81.86534528 -158.7109375 83.46484375 C-156.21784169 85.54895979 -154.1160665 87.72953614 -152.0234375 90.21484375 C-148.2648971 94.65831179 -143.98986966 98.43399232 -139.62890625 102.265625 C-137.2734375 104.46484375 -137.2734375 104.46484375 -135.2734375 107.46484375 C-127.23643591 104.03923651 -120.66170154 96.10085087 -115.1484375 89.52734375 C-111.9858696 86.04851906 -108.40489497 83.02766454 -104.8984375 79.90234375 C-102.67955947 77.84195701 -100.71510825 75.77991272 -98.7734375 73.46484375 C-96.00501012 70.16402649 -92.98965262 67.33147027 -89.7734375 64.46484375 C-85.83819499 60.95430638 -82.28914902 57.36831791 -78.890625 53.34375 C-75.50197633 49.40669683 -71.88095604 45.71067062 -67.7734375 42.52734375 C-65.58144602 40.71895078 -63.96723609 38.99912833 -62.1484375 36.83984375 C-59.2418923 33.42560507 -56.12197496 30.4464182 -52.7734375 27.46484375 C-48.904213 24.01618713 -45.47869855 20.49962385 -42.15625 16.53515625 C-38.95374442 13.01372895 -35.33537634 9.94744862 -31.7734375 6.796875 C-29.77426837 4.93202505 -28.22361282 3.23149532 -26.6484375 1.02734375 C-19.34960991 -6.84770707 -8.25261352 -5.67161686 0 0 Z " fill="#FFFFFF" transform="translate(355.2734375,192.53515625)"/>
</svg>
