<?xml version="1.0" encoding="UTF-8"?>
<svg version="1.1" xmlns="http://www.w3.org/2000/svg" width="512" height="512">
<path d="M0 0 C0.78014511 -0.00297112 1.56029021 -0.00594224 2.36407608 -0.0090034 C4.96301959 -0.01763444 7.56191674 -0.01919389 10.16087341 -0.02069092 C12.03079322 -0.02532313 13.9007121 -0.03034833 15.77062988 -0.03573608 C20.84124126 -0.04882495 25.91183941 -0.0552984 30.98246503 -0.05974674 C34.15541526 -0.0626837 37.32836192 -0.06678972 40.50131035 -0.07125092 C50.44320297 -0.08491782 60.38508739 -0.09458791 70.32698876 -0.09845281 C81.77616319 -0.10292893 93.22521797 -0.12045959 104.67435604 -0.1494534 C113.54173637 -0.17112405 122.40908317 -0.18115999 131.27648968 -0.18249393 C136.56420083 -0.18353828 141.85179939 -0.18936686 147.1394825 -0.20731354 C152.11932529 -0.22388708 157.09897195 -0.22590499 162.07883263 -0.21717453 C163.89676568 -0.21640905 165.71470968 -0.22068158 167.53261566 -0.23063278 C185.84360524 -0.32491056 202.68360699 1.67908121 216.96336365 14.14044189 C217.56922302 14.61739502 218.1750824 15.09434814 218.79930115 15.58575439 C227.75780451 23.32817133 233.53384594 37.63353201 234.96336365 49.14044189 C236.72673637 78.42399212 229.76103952 110.2971198 210.0610199 132.73419189 C208.12532368 134.95465534 206.46698654 137.23302886 204.77586365 139.64044189 C200.30999074 145.46594823 194.33911993 149.56184396 188.52098083 153.93927002 C186.62771849 155.39927797 184.85400147 156.96689909 183.08836365 158.57794189 C180.9303746 160.46686963 178.84493671 161.81175419 176.2641449 163.05841064 C175.55870544 163.4017041 174.85326599 163.74499756 174.12644958 164.09869385 C173.41263123 164.4424707 172.69881287 164.78624756 171.96336365 165.14044189 C171.31399841 165.46166016 170.66463318 165.78287842 169.99559021 166.11383057 C148.18973928 176.8929217 125.79837224 184.23449251 101.2797699 184.34356689 C100.26599777 184.34926697 99.25222565 184.35496704 98.20773315 184.36083984 C96.06712371 184.37024871 93.92650004 184.37680738 91.78587341 184.38067627 C88.56677283 184.39031935 85.34832874 184.42135696 82.12937927 184.45294189 C70.02746082 184.51477046 58.78980618 183.77990882 46.96336365 181.14044189 C45.59901585 180.85628254 44.23434873 180.57365211 42.86936951 180.2925415 C32.12925093 178.00968358 22.32961329 173.80316952 12.37254333 169.24249268 C10.24696764 168.27017319 8.111393 167.32596895 5.97117615 166.38653564 C-2.38930621 162.52283834 -8.75436167 157.57161457 -15.51808167 151.4631958 C-17.77804999 149.49462532 -20.20143223 147.74950243 -22.59913635 145.95294189 C-36.23660284 134.82031619 -46.99141864 116.83821264 -52.03663635 100.14044189 C-52.23885803 99.49091553 -52.44107971 98.84138916 -52.64942932 98.17218018 C-59.91517324 74.63458653 -63.18793085 50.12045205 -51.91163635 27.32794189 C-43.34436251 12.41318036 -31.08495866 5.56521793 -15.03663635 1.14044189 C-10.00320907 0.27548119 -5.09536354 -0.00615661 0 0 Z M-13.03663635 42.14044189 C-14.02663635 42.80044189 -15.01663635 43.46044189 -16.03663635 44.14044189 C-16.03663635 44.80044189 -16.03663635 45.46044189 -16.03663635 46.14044189 C-16.69663635 46.14044189 -17.35663635 46.14044189 -18.03663635 46.14044189 C-23.89543377 57.15498103 -20.54573194 71.27701266 -17.2124176 82.69512939 C-15.81438549 86.7916886 -14.18285484 90.69047359 -12.2827301 94.57794189 C-11.03663635 97.14044189 -11.03663635 97.14044189 -9.8061676 100.48028564 C-7.88065018 105.0076715 -4.67578562 108.21011612 -1.28663635 111.70294189 C-0.69108948 112.33651611 -0.0955426 112.97009033 0.51805115 113.62286377 C18.04297436 132.03920624 41.64795275 143.09596691 66.96336365 145.14044189 C67.84250427 145.24872314 68.7216449 145.35700439 69.62742615 145.46856689 C91.75984189 148.07238051 114.9183763 146.47805246 135.96336365 139.14044189 C136.86957458 138.84395752 137.77578552 138.54747314 138.7094574 138.24200439 C146.10984562 135.59293275 152.69860099 131.29741039 159.33055115 127.14337158 C160.70011112 126.30214067 162.1038603 125.51692382 163.5141449 124.74591064 C166.86502498 122.54940074 169.53753137 119.86546911 172.33836365 117.01544189 C172.91199646 116.43214111 173.48562927 115.84884033 174.0766449 115.24786377 C182.30546113 106.78580445 187.14254331 99.41716858 190.96336365 88.14044189 C191.52023865 86.65157471 191.52023865 86.65157471 192.08836365 85.13262939 C195.96919938 74.43179558 200.18051894 59.18871031 195.17490005 48.21185875 C192.64458946 43.88567591 189.4727161 41.30488387 184.96336365 39.14044189 C178.7412114 38.11886128 172.59463474 38.22293515 166.30418396 38.29815674 C164.40950847 38.29521701 162.51483565 38.28923634 160.62017822 38.28045654 C155.49409441 38.26567675 150.36909511 38.29438999 145.2431612 38.33188963 C139.87368996 38.36457559 134.50424173 38.35979764 129.13468933 38.35983276 C120.12313092 38.36539095 111.11198721 38.39766855 102.10057068 38.4475708 C91.68202969 38.50509528 81.26388372 38.52788624 70.84519315 38.53045499 C59.74678772 38.53337851 48.6485276 38.55918508 37.55017757 38.59302187 C34.35336297 38.60138103 31.15656291 38.60572762 27.95973969 38.60929489 C22.93960225 38.61619863 17.91976181 38.63861134 12.89974022 38.67306519 C11.05708908 38.68342742 9.21440154 38.68872829 7.37172127 38.68861771 C4.85787153 38.68938467 2.34482046 38.70858289 -0.16889954 38.73257446 C-1.26427414 38.72662893 -1.26427414 38.72662893 -2.38177752 38.72056329 C-6.80074142 38.78775892 -9.46934227 39.54184292 -13.03663635 42.14044189 Z " fill="#FEFEFE" transform="translate(168.03663635253906,327.85955810546875)"/>
<path d="M0 0 C0.63164062 0.2578125 1.26328125 0.515625 1.9140625 0.78125 C22.24024225 9.25703152 35.06657143 24.56642554 43.3671875 44.72265625 C45.36493492 49.821005 46.67310618 54.51386889 47 60 C47.04092773 60.67611328 47.08185547 61.35222656 47.12402344 62.04882812 C48.28281154 84.4009888 42.07410371 103.72099994 27.35546875 120.921875 C14.32279152 134.71758954 -4.86432622 143.28439787 -23.73046875 144.12109375 C-34.21921459 144.35176475 -43.56091756 142.73941081 -53.375 139.125 C-54.04112305 138.88056152 -54.70724609 138.63612305 -55.39355469 138.38427734 C-59.66759986 136.73074403 -63.24906355 134.67631619 -67 132 C-67.90621094 131.37480469 -68.81242187 130.74960937 -69.74609375 130.10546875 C-86.3371967 118.2822009 -96.32580915 102.50988086 -100.60522461 82.39599609 C-103.90646177 62.35991603 -98.71883283 41.60858877 -87.125 25.0625 C-85.78151038 23.34980712 -84.40700905 21.66090541 -83 20 C-82.33484375 19.21109375 -81.6696875 18.4221875 -80.984375 17.609375 C-61.78891316 -3.29235011 -26.02245084 -11.00949843 0 0 Z M-56 48 C-61.68128804 57.10626006 -64.33301212 65.74865495 -62.609375 76.41796875 C-59.90542762 87.32042323 -52.46464138 96.16791464 -43 102 C-34.31282874 106.51064662 -25.27974497 106.77791718 -16 104 C-6.02769927 100.23788655 0.76472246 93.15835374 6 84 C9.86058756 75.09200115 10.10699341 66.6445518 7.02734375 57.4765625 C2.83742694 47.37615467 -4.88334592 40.1249941 -14.75 35.5 C-30.25600288 30.08019021 -45.68248608 35.77658652 -56 48 Z " fill="#FEFEFE" transform="translate(283,150)"/>
<path d="M0 0 C1.26714844 -0.01546875 2.53429687 -0.0309375 3.83984375 -0.046875 C19.71923846 0.0185396 36.36451822 6.2220532 47.875 17.5 C47.875 18.16 47.875 18.82 47.875 19.5 C48.9578125 19.809375 48.9578125 19.809375 50.0625 20.125 C53.64477606 21.87633496 55.56711711 24.35984664 57.875 27.5 C58.31287842 28.08958496 58.75075684 28.67916992 59.2019043 29.28662109 C71.76909759 46.55040759 75.21493454 67.31666394 72.36328125 88.2578125 C71.70331185 91.42413967 70.87942293 94.42646584 69.875 97.5 C69.51148438 98.62019531 69.14796875 99.74039063 68.7734375 100.89453125 C66.3715477 107.67405892 63.61958591 113.10989219 58.875 118.5 C58.19308594 119.30050781 57.51117188 120.10101563 56.80859375 120.92578125 C54.55406875 123.50966295 52.23526128 126.0125866 49.875 128.5 C49.23304688 129.20382813 48.59109375 129.90765625 47.9296875 130.6328125 C35.60817431 142.95432569 16.43311682 147.696835 -0.4375 147.9375 C-18.49661694 147.80905678 -36.03260295 142.08389386 -50.125 130.5 C-52.56640625 127.88671875 -52.56640625 127.88671875 -54.6875 125.1875 C-55.82638672 123.74117187 -55.82638672 123.74117187 -56.98828125 122.265625 C-57.69339844 121.35296875 -58.39851563 120.4403125 -59.125 119.5 C-59.98158203 118.44039062 -59.98158203 118.44039062 -60.85546875 117.359375 C-72.81114188 102.23806091 -75.49913013 83.3147246 -74.125 64.5 C-71.87566881 46.56021218 -64.48021746 31.85357615 -51.125 19.5 C-50.60035156 18.98179688 -50.07570313 18.46359375 -49.53515625 17.9296875 C-35.58357879 4.7745003 -18.92695277 -0.23247025 0 0 Z M-28.4375 50.75 C-33.9736222 57.67015275 -36.56530897 66.90941185 -36.4765625 75.6953125 C-36.01843153 79.35017955 -35.01315573 82.76084398 -33.875 86.25 C-33.67052246 86.8879248 -33.46604492 87.52584961 -33.25537109 88.18310547 C-30.73604631 95.45163358 -26.69462341 99.18075514 -20.3125 103.1875 C-19.42594727 103.77241211 -19.42594727 103.77241211 -18.52148438 104.36914062 C-11.15483836 109.06869124 -3.76449461 110.41064943 4.875 109.5 C13.38928422 107.59991962 22.96290734 103.21613197 28.01855469 95.82910156 C33.58026789 86.33907858 36.55906486 77.14867209 34.4140625 66.1328125 C31.22209278 55.58053614 25.38220513 47.46090747 16 41.75 C0.17967929 35.42187172 -16.53434573 38.13265647 -28.4375 50.75 Z " fill="#FEFEFE" transform="translate(366.125,-0.5)"/>
<path d="M0 0 C1.9837986 -0.01698212 3.96730931 -0.06082071 5.95068359 -0.10522461 C25.68738919 -0.23338504 42.58331507 7.56753265 56.64990234 21.29516602 C71.23999567 37.60174091 77.70921136 55.88410143 76.99755859 77.63500977 C75.79698309 97.94151793 68.39909145 112.64968629 54.64990234 127.29516602 C53.86873047 128.1549707 53.08755859 129.01477539 52.28271484 129.90063477 C39.72570576 142.52281863 20.62992222 147.48598242 3.33740234 147.73266602 C-14.17763773 147.60809247 -32.82298781 142.53108261 -45.69775391 129.99438477 C-46.24302734 129.43364258 -46.78830078 128.87290039 -47.35009766 128.29516602 C-47.92630859 127.76536133 -48.50251953 127.23555664 -49.09619141 126.68969727 C-62.37180307 114.24196339 -69.71468068 97.52630782 -70.72119141 79.39282227 C-71.2476424 57.66494861 -65.68983527 39.37606586 -51.71728516 22.59594727 C-49.29809165 20.24461893 -48.45409217 20.00788579 -45.35009766 19.29516602 C-44.67432221 17.9664261 -44.00908508 16.63231141 -43.35009766 15.29516602 C-30.83657674 4.76419612 -16.08266976 0.09533642 0 0 Z M-22.35009766 48.29516602 C-29.89438023 57.80824163 -33.50200937 67.12009912 -32.35009766 79.29516602 C-29.71893882 89.83410115 -25.26551916 97.81084868 -16.08837891 103.75219727 C-6.77775765 108.99855304 2.52491975 111.15510663 13.02490234 108.35766602 C19.95634092 105.7129399 29.20710496 100.45153917 33.21240234 93.98266602 C33.68677734 92.76579102 34.16115234 91.54891602 34.64990234 90.29516602 C35.01470703 89.37606445 35.37951172 88.45696289 35.75537109 87.51000977 C40.08720488 75.81553699 39.02658762 67.4956874 34.33740234 56.10766602 C29.53197019 48.09861242 23.24983488 42.60957189 14.32177734 39.47875977 C1.20948273 36.20068611 -12.71338674 38.37164822 -22.35009766 48.29516602 Z " fill="#FEFEFE" transform="translate(143.35009765625,-0.295166015625)"/>
<path d="M0 0 C1.05455383 -0.00029205 2.10910767 -0.00058411 3.19561768 -0.00088501 C6.65849219 0.00050102 10.12114775 0.01602808 13.58398438 0.03173828 C15.99393598 0.03547099 18.40388911 0.03831674 20.81384277 0.04031372 C27.13985423 0.04792984 33.46577305 0.067561 39.79174805 0.08972168 C46.25373074 0.11022367 52.71572849 0.11932474 59.17773438 0.12939453 C71.84444044 0.15080877 84.51108247 0.18453287 97.17773438 0.22705078 C96.86115223 1.66131915 96.54398075 3.09545745 96.2265625 4.52954102 C96.05000122 5.32819077 95.87343994 6.12684052 95.69152832 6.94969177 C95.06194851 9.74026428 94.36538599 12.51278364 93.67773438 15.28955078 C92.48874563 20.40028465 91.69514538 25.45834459 91.08398438 30.66064453 C90.99536133 31.39246948 90.90673828 32.12429443 90.81542969 32.8782959 C90.59997797 34.66086767 90.38844341 36.44391218 90.17773438 38.22705078 C89.00533203 38.23069641 87.83292969 38.23434204 86.625 38.23809814 C75.5607858 38.27508518 64.49684897 38.33289867 53.43284607 38.41095352 C47.7450955 38.45041443 42.05749944 38.48260987 36.36962891 38.49804688 C30.87756221 38.51322234 25.38592032 38.54768435 19.89404297 38.5953598 C17.80179543 38.6101643 15.70948724 38.61809126 13.6171875 38.61893463 C10.67988115 38.62130879 7.74374449 38.64842522 4.80664062 38.68115234 C3.94708267 38.67612198 3.08752472 38.67109161 2.20191956 38.66590881 C-4.27997959 38.77719694 -9.52424755 40.34222669 -14.47215271 44.67023087 C-19.5893557 50.57089549 -18.04401542 60.05696575 -17.54492188 67.19189453 C-15.80896199 87.07055904 -6.86840439 106.14612901 8.58398438 119.18408203 C12.03043585 121.98293116 15.57598617 124.63234049 19.17773438 127.22705078 C20.27601562 128.03142578 20.27601562 128.03142578 21.39648438 128.85205078 C26.3471642 132.20844388 31.82604357 134.1607697 37.41992188 136.21142578 C40.17773438 137.22705078 40.17773438 137.22705078 42.17773438 138.22705078 C41.68178416 142.57452925 38.82924858 145.27692426 36.11523438 148.47705078 C30.10879498 155.78795374 26.06791525 163.64413024 22.17773438 172.22705078 C17.70672116 171.61736716 14.09560665 169.85480828 10.17773438 167.72705078 C9.52417969 167.37537842 8.870625 167.02370605 8.19726562 166.66137695 C1.50924329 162.98506681 -4.6435741 158.69802062 -10.82226562 154.22705078 C-11.54414062 153.73076172 -12.26601563 153.23447266 -13.00976562 152.72314453 C-18.89001128 148.68047564 -23.57088652 143.50403009 -28.38476562 138.28955078 C-29.08762695 137.5402832 -29.08762695 137.5402832 -29.8046875 136.77587891 C-35.74905329 130.33268522 -39.734038 122.92566124 -43.82226562 115.22705078 C-44.24636719 114.46779297 -44.67046875 113.70853516 -45.10742188 112.92626953 C-47.98455295 107.56981008 -50.05894839 102.03316115 -52.00976562 96.28955078 C-52.25984375 95.56243896 -52.50992188 94.83532715 -52.76757812 94.08618164 C-56.26497417 83.44393631 -57.19538408 73.04242381 -57.19287109 61.90234375 C-57.19725999 59.72984214 -57.23375478 57.55935375 -57.27148438 55.38720703 C-57.39113726 40.62889675 -52.63625993 27.98911741 -42.63476562 16.94580078 C-30.47472844 5.41473103 -16.57103166 -0.1214481 0 0 Z " fill="#FEFEFE" transform="translate(56.822265625,181.77294921875)"/>
<path d="M0 0 C13.85686417 -0.09381341 27.71367846 -0.16389249 41.57079601 -0.20724869 C48.0062129 -0.22806444 54.44141543 -0.25627219 60.87670898 -0.30175781 C67.09480693 -0.34542991 73.31269954 -0.36918226 79.5309391 -0.37950897 C81.89544211 -0.38686207 84.25993473 -0.40122034 86.62434959 -0.42292023 C107.29797036 -0.60499681 124.00968011 1.68275343 139.7109375 16.51171875 C154.87067904 32.99082346 154.73653848 51.03442395 154.17480469 72.05224609 C153.83490813 79.72840164 152.46770439 86.74286371 150 94 C149.74798828 94.75796875 149.49597656 95.5159375 149.23632812 96.296875 C146.26727587 105.01179096 142.88322518 113.05482754 137.578125 120.640625 C135.89775995 123.03177599 135.89775995 123.03177599 134.5703125 125.984375 C132.91504288 129.16315148 131.07251434 131.39377312 128.625 134 C124.84551968 138.07621096 124.84551968 138.07621096 121.25 142.3125 C116.51221697 147.97151862 111.31514784 152.12567496 105.25 156.25 C104.42105225 156.81412598 103.59210449 157.37825195 102.73803711 157.95947266 C97.15300524 161.69768246 91.47486122 165.17905902 85.5625 168.375 C84.85963867 168.76204102 84.15677734 169.14908203 83.43261719 169.54785156 C78.60843569 172.06286134 78.60843569 172.06286134 75.89453125 171.7824707 C72.59974347 170.4216724 71.78797404 166.9113811 70.4375 163.8125 C67.25237975 156.91634067 63.42211044 151.21005916 58.50561523 145.4309082 C55 141.27190332 55 141.27190332 55 138 C56.66503034 137.22563847 58.33212662 136.45571885 60 135.6875 C61.3921875 135.04361328 61.3921875 135.04361328 62.8125 134.38671875 C64.47338861 133.66415079 66.14346912 132.95205151 67.86132812 132.37792969 C73.53395984 130.48053218 77.8178351 127.5575897 82.5 123.875 C83.24757568 123.29169922 83.99515137 122.70839844 84.76538086 122.10742188 C100.53171705 109.58684232 111.38108761 92.12908246 114 72 C114.11085938 71.24074219 114.22171875 70.48148437 114.3359375 69.69921875 C115.45308817 61.19981566 116.50355367 52.60945275 112 45 C106.11097724 39.26595152 100.54942251 38.70060559 92.71166992 38.68115234 C91.78435059 38.67110672 90.85703125 38.6610611 89.90161133 38.65071106 C86.84456995 38.61988548 83.78761614 38.60284554 80.73046875 38.5859375 C78.60768379 38.56722537 76.48490626 38.54765192 74.36213684 38.5272522 C68.78089786 38.4759299 63.19963476 38.43630458 57.61828613 38.39910889 C51.92059361 38.35906995 46.22300141 38.30797707 40.52539062 38.2578125 C29.35033089 38.16105199 18.17521451 38.0766475 7 38 C6.92057663 37.40639679 6.84115326 36.81279358 6.75932312 36.20120239 C6.39061177 33.46929961 6.01371879 30.73858329 5.63671875 28.0078125 C5.51196167 27.07428955 5.38720459 26.1407666 5.25866699 25.17895508 C4.31742614 18.42034334 2.85204367 12.12211394 0.76953125 5.6171875 C0 3 0 3 0 0 Z " fill="#FEFEFE" transform="translate(358,182)"/>
</svg>
