<?xml version="1.0" encoding="UTF-8"?>
<svg version="1.1" xmlns="http://www.w3.org/2000/svg" width="512" height="397">
<path d="M0 0 C0.72399994 0.00370605 1.44799988 0.00741211 2.19393921 0.01123047 C23.07218707 0.16311202 48.07579103 4.65933785 64.75 18.4375 C64.75 19.0975 64.75 19.7575 64.75 20.4375 C65.554375 20.56125 65.554375 20.56125 66.375 20.6875 C71.93998666 22.44486421 75.76674308 26.35210829 79.75 30.4375 C80.61625 31.0975 81.4825 31.7575 82.375 32.4375 C84.91672535 34.57790029 86.05440339 36.61150565 87.75 39.4375 C88.53375 40.03949219 89.3175 40.64148437 90.125 41.26171875 C92.90458724 43.56563257 94.40146428 45.66765389 96.25 48.75 C98.11498112 51.8333768 99.96968373 54.72192145 102.17578125 57.578125 C105.55172406 62.25471976 107.41288218 67.51165978 109.4375 72.875 C110.02241211 74.37256836 110.02241211 74.37256836 110.61914062 75.90039062 C121.41169737 103.96103816 120.28660439 136.7868122 108.3125 164.25 C107.47606401 165.98781267 106.62189493 167.71720431 105.75 169.4375 C105.07324219 170.78908203 105.07324219 170.78908203 104.3828125 172.16796875 C98.18292709 184.0482897 89.91183441 193.78725897 80.75 203.4375 C83.43705841 205.02158362 86.12472829 206.604627 88.8125 208.1875 C89.56466797 208.6309375 90.31683594 209.074375 91.09179688 209.53125 C94.57169461 211.58002096 98.05579561 213.61567674 101.57421875 215.59765625 C111.91545834 221.58870649 121.055341 229.93275967 129.9375 237.875 C130.85917969 238.69871094 131.78085937 239.52242187 132.73046875 240.37109375 C134.75 242.4375 134.75 242.4375 134.75 244.4375 C135.74 244.7675 136.73 245.0975 137.75 245.4375 C140.98729253 248.90231309 143.83390768 252.70082208 146.75 256.4375 C147.85794922 257.84128906 147.85794922 257.84128906 148.98828125 259.2734375 C173.34290924 290.85226243 186.57500493 328.4567925 186.9375 368.3125 C186.95071289 369.30008301 186.96392578 370.28766602 186.97753906 371.30517578 C186.9855598 379.17485671 186.49750924 385.53465268 180.75 391.4375 C172.91909801 397.76658517 165.63085792 398.36603823 155.75 397.4375 C151.37473302 395.86779244 148.02475398 393.71225398 144.75 390.4375 C144.75 389.4475 144.75 388.4575 144.75 387.4375 C144.09 387.4375 143.43 387.4375 142.75 387.4375 C139.87190347 381.23955258 138.46617537 375.50670357 138.25 368.6875 C137.64583944 351.91248503 134.47919145 335.81850903 127.75 320.4375 C127.28722656 319.32375 126.82445312 318.21 126.34765625 317.0625 C119.43990862 301.14215088 108.54178952 284.19509582 94.75 273.4375 C93.99847656 272.67050781 93.24695313 271.90351563 92.47265625 271.11328125 C89.50183238 268.19360499 86.37838623 265.69600736 83.0625 263.1875 C82.48177734 262.74148438 81.90105469 262.29546875 81.30273438 261.8359375 C78.16258086 259.42495765 78.16258086 259.42495765 74.75 257.4375 C74.75 256.7775 74.75 256.1175 74.75 255.4375 C74.0590625 255.34726563 73.368125 255.25703125 72.65625 255.1640625 C69.1400323 254.28500808 66.34727416 252.62047217 63.25 250.8125 C57.10327423 247.38868293 50.86039727 244.8440531 44.1875 242.625 C43.3625 242.34769043 42.5375 242.07038086 41.6875 241.78466797 C28.83859949 237.65788577 16.71149457 235.94250257 3.2824707 236.04638672 C0.81860831 236.06246015 -1.64360902 236.04645257 -4.10742188 236.02734375 C-17.97200222 236.007222 -30.70622948 238.19241557 -43.875 242.6875 C-45.21256348 243.13875244 -45.21256348 243.13875244 -46.57714844 243.59912109 C-53.95431206 246.17084148 -60.5272339 249.44464326 -67.25 253.4375 C-68.74926073 254.20977021 -70.24920827 254.98070928 -71.75 255.75 C-80.86764576 260.84713407 -89.1483281 267.82292957 -96.25 275.4375 C-97.4875 276.6440625 -97.4875 276.6440625 -98.75 277.875 C-104.98814172 284.26909527 -110.26163893 291.03325106 -115.25 298.4375 C-115.80429688 299.18773437 -116.35859375 299.93796875 -116.9296875 300.7109375 C-127.7011152 316.04905344 -133.88792367 336.34172227 -135.875 354.8125 C-135.99617188 355.85921875 -136.11734375 356.9059375 -136.2421875 357.984375 C-136.95510029 364.26110716 -137.51104757 370.53086392 -137.91479492 376.83520508 C-138.81065887 383.79005853 -143.18441154 389.76727454 -148.25 394.4375 C-154.7322949 398.71305621 -162.72550833 398.26543759 -170.25 397.4375 C-174.40840343 395.77210766 -177.36300342 393.73654772 -180.5 390.5625 C-181.49773437 389.57636719 -181.49773437 389.57636719 -182.515625 388.5703125 C-187.4125601 382.54840582 -186.59600573 375.622232 -186.5625 368.25 C-186.55758545 366.99074707 -186.5526709 365.73149414 -186.54760742 364.43408203 C-186.35040171 348.6394211 -183.26357289 334.44161543 -178.79931641 319.36474609 C-178.08759437 316.86770887 -177.52346261 314.34159024 -176.9375 311.8125 C-175.07315762 304.93444589 -171.59359875 298.75832291 -168.30517578 292.47607422 C-167.27007058 290.47627587 -166.26774824 288.46366939 -165.27734375 286.44140625 C-164.96700195 285.80887939 -164.65666016 285.17635254 -164.33691406 284.5246582 C-163.48890228 282.79249516 -162.64093411 281.06031077 -161.79296875 279.328125 C-160.43616423 276.78626336 -158.9815429 274.72296217 -157.25 272.4375 C-156.33154297 270.78041016 -156.33154297 270.78041016 -155.39453125 269.08984375 C-153.29647101 265.3527673 -150.75272464 262.2168412 -147.9375 259 C-147.44749512 258.43216797 -146.95749023 257.86433594 -146.45263672 257.27929688 C-145.48401271 256.15823683 -144.51307054 255.03917453 -143.53955078 253.92236328 C-142.49285818 252.71714095 -141.46093336 251.49910461 -140.43359375 250.27734375 C-131.6597664 239.92026936 -121.23908858 227.87219888 -109.11816406 221.51977539 C-107.13585616 220.37137354 -105.41679422 219.06887052 -103.6171875 217.65234375 C-99.25838006 214.34609495 -94.67158711 211.67810187 -89.875 209.0625 C-88.66650391 208.38767578 -88.66650391 208.38767578 -87.43359375 207.69921875 C-81.51491261 204.4375 -81.51491261 204.4375 -79.25 204.4375 C-80.00796875 203.60605469 -80.00796875 203.60605469 -80.78125 202.7578125 C-81.4309375 202.03335938 -82.080625 201.30890625 -82.75 200.5625 C-83.3996875 199.84320313 -84.049375 199.12390625 -84.71875 198.3828125 C-86.25 196.4375 -86.25 196.4375 -86.25 194.4375 C-86.84296875 194.19644531 -87.4359375 193.95539063 -88.046875 193.70703125 C-92.35391233 191.22513917 -94.59120545 186.5229648 -97.25 182.4375 C-97.90484375 181.46296875 -98.5596875 180.4884375 -99.234375 179.484375 C-103.07219276 173.56402046 -106.26227482 167.61738375 -109 161.125 C-109.26941406 160.49907959 -109.53882812 159.87315918 -109.81640625 159.22827148 C-114.95917325 146.47427267 -116.91900333 134.02581858 -116.77148438 120.35620117 C-116.75003642 118.00399416 -116.77142291 115.65485001 -116.796875 113.30273438 C-116.8248443 98.94587937 -114.06854422 85.55379333 -108.5625 72.25 C-108.22436279 71.41831299 -107.88622559 70.58662598 -107.5378418 69.72973633 C-104.285549 62.0197451 -100.08865083 55.23575798 -95.25 48.4375 C-94.75371094 47.70015625 -94.25742188 46.9628125 -93.74609375 46.203125 C-89.69887141 40.26550727 -84.55094477 35.78356598 -79.15234375 31.12890625 C-77.10190051 29.35323982 -77.10190051 29.35323982 -74.8125 26.875 C-71.27498445 23.51004618 -67.35793588 21.05331567 -63.25 18.4375 C-62.33605469 17.80585938 -61.42210938 17.17421875 -60.48046875 16.5234375 C-54.00198034 12.21553378 -47.63196761 9.20184701 -40.3125 6.625 C-39.52705811 6.3472876 -38.74161621 6.0695752 -37.93237305 5.78344727 C-25.37595058 1.5775125 -13.1749877 -0.12140923 0 0 Z M-35.25 58.4375 C-36.91565032 59.48079105 -38.58230134 60.52248635 -40.25 61.5625 C-43.44942682 63.58499481 -44.5868991 65.09743902 -46.25 68.4375 C-47.24 68.7675 -48.23 69.0975 -49.25 69.4375 C-49.25 70.0975 -49.25 70.7575 -49.25 71.4375 C-49.8275 71.64117187 -50.405 71.84484375 -51 72.0546875 C-55.90455676 75.06894634 -58.42143948 81.52105357 -61.25 86.4375 C-61.67925781 87.12199219 -62.10851562 87.80648437 -62.55078125 88.51171875 C-70.79325992 102.67350643 -69.77780429 123.2779144 -65.84960938 138.51660156 C-64.16335124 143.91866957 -61.2430209 148.67674608 -58.25 153.4375 C-57.71761719 154.31664062 -57.18523437 155.19578125 -56.63671875 156.1015625 C-53.92581426 160.40258409 -51.35998901 163.38135432 -47.25 166.4375 C-46.18652344 167.83162109 -46.18652344 167.83162109 -45.1015625 169.25390625 C-42.05186837 172.98068326 -38.40221492 174.97004229 -34.1875 177.1875 C-33.12692383 177.76564453 -33.12692383 177.76564453 -32.04492188 178.35546875 C-30.12129252 179.39946666 -28.19207418 180.42826955 -26.25 181.4375 C-25.59016113 181.79021973 -24.93032227 182.14293945 -24.25048828 182.50634766 C-10.32032064 188.99031878 8.36557174 187.37000867 22.75 183.4375 C27.00629704 181.79971941 30.85234883 179.79569427 34.75 177.4375 C35.55953125 176.96183594 36.3690625 176.48617187 37.203125 175.99609375 C42.79944649 172.50315159 47.24182562 168.2210606 51.75 163.4375 C52.23855469 162.98761719 52.72710937 162.53773438 53.23046875 162.07421875 C59.78302455 155.01632446 64.02829301 145.55305832 66.75 136.4375 C66.96269531 135.77621094 67.17539063 135.11492187 67.39453125 134.43359375 C71.88538355 118.95792289 69.71359218 100.89978067 62.296875 86.64453125 C61.2875127 84.95971185 60.24940821 83.29168827 59.1796875 81.64453125 C57.93122202 79.7172553 56.90168852 77.79883418 55.875 75.75 C53.11776175 71.45195214 49.71043176 68.60142034 45.75 65.4375 C44.95335937 64.78265625 44.15671875 64.1278125 43.3359375 63.453125 C40.74020018 61.42986147 38.09133948 59.63690248 35.3125 57.875 C34.40628906 57.29621094 33.50007813 56.71742187 32.56640625 56.12109375 C27.00683832 52.79769045 22.02391651 50.8014516 15.625 49.75 C14.87001221 49.6255249 14.11502441 49.5010498 13.3371582 49.37280273 C-2.99271353 46.8304379 -21.65729608 48.28694107 -35.25 58.4375 Z " fill="#FFFFFF" transform="translate(186.25,-0.4375)"/>
<path d="M0 0 C1.65914429 0.00918457 1.65914429 0.00918457 3.35180664 0.01855469 C15.53228211 0.2484584 26.71081658 2.54453555 37.8984375 7.46484375 C40.10046137 8.46446415 40.10046137 8.46446415 42.3515625 9.19140625 C64.3933781 16.8212655 82.52977464 35.42803951 95.125 54.4375 C95.640625 55.19546875 96.15625 55.9534375 96.6875 56.734375 C101.45948839 64.14089864 104.27475736 72.15597308 107.125 80.4375 C107.53105469 81.57960938 107.93710937 82.72171875 108.35546875 83.8984375 C113.19167211 98.31975148 112.37507063 113.40384191 112.125 128.4375 C112.09986328 130.28988281 112.09986328 130.28988281 112.07421875 132.1796875 C111.71723243 140.35977412 109.54933643 147.78570078 106.83105469 155.4453125 C106.15915197 157.3411376 105.52006553 159.24849879 104.8828125 161.15625 C100.41794103 173.52050945 93.0025875 184.00486303 85.125 194.4375 C86.115 195.05625 87.105 195.675 88.125 196.3125 C89.115 197.01375 90.105 197.715 91.125 198.4375 C91.125 199.0975 91.125 199.7575 91.125 200.4375 C91.846875 200.705625 92.56875 200.97375 93.3125 201.25 C97.23910781 202.90790108 100.31189607 204.61863959 103.33203125 207.66015625 C105.92474113 210.23836146 108.59826104 212.58644113 111.39013672 214.93994141 C118.57504352 221.00431664 125.04301723 227.24780216 131.125 234.4375 C131.91648437 235.365625 132.70796875 236.29375 133.5234375 237.25 C137.59498735 242.11962773 141.36349315 247.05971738 144.796875 252.3984375 C146.01045636 254.26164183 147.29277085 256.03338386 148.625 257.8125 C151.36747438 261.6043456 153.51993645 265.68261711 155.71484375 269.80859375 C156.84325578 271.91225385 158.01829407 273.95681722 159.25 276 C161.13741138 279.4602542 162.59834487 282.8872578 164.00390625 286.5625 C164.7822545 288.55854291 165.6061168 290.53719555 166.46484375 292.5 C171.7109082 304.74545549 174.98372819 317.51430775 178.125 330.4375 C178.42180664 331.61771729 178.42180664 331.61771729 178.72460938 332.82177734 C181.39475738 343.80161008 181.45320527 354.94558792 181.5625 366.1875 C181.57489716 366.94554932 181.58729431 367.70359863 181.60006714 368.48461914 C181.62975129 370.67264678 181.63006867 372.85870019 181.62109375 375.046875 C181.62294678 376.32530273 181.6247998 377.60373047 181.62670898 378.92089844 C180.82779083 384.52071209 177.58558357 388.26240893 173.6875 392.1875 C173.13191406 392.75984375 172.57632813 393.3321875 172.00390625 393.921875 C165.76761167 398.95239952 157.67817241 398.05687623 150.125 397.4375 C143.8256823 395.97778252 140.41562916 391.93024521 136.5703125 386.94921875 C132.62327977 380.08991592 132.61555554 372.66388838 132.125 364.9375 C131.95420444 362.58966929 131.78104372 360.24200939 131.60546875 357.89453125 C131.52216309 356.77256348 131.43885742 355.6505957 131.35302734 354.49462891 C131.24015381 352.9813501 131.24015381 352.9813501 131.125 351.4375 C131.06908691 350.66712402 131.01317383 349.89674805 130.95556641 349.10302734 C129.6509723 332.53015527 123.23025592 315.06053006 115.625 300.3125 C115.20863281 299.49523437 114.79226563 298.67796875 114.36328125 297.8359375 C113.54844497 296.25767417 112.7333479 294.67954544 111.91796875 293.1015625 C109.125 287.63405477 109.125 287.63405477 109.125 285.4375 C108.465 285.4375 107.805 285.4375 107.125 285.4375 C105.76961317 283.60803168 104.49293422 281.72015361 103.25 279.8125 C99.75836019 274.59793033 96.01821582 269.70535984 91.9375 264.9375 C91.45104004 264.36306152 90.96458008 263.78862305 90.46337891 263.19677734 C88.05610924 260.41990997 85.63150206 257.95813424 82.76171875 255.65625 C81.89160156 254.9240625 81.02148438 254.191875 80.125 253.4375 C80.125 252.7775 80.125 252.1175 80.125 251.4375 C79.59648437 251.20804688 79.06796875 250.97859375 78.5234375 250.7421875 C75.3399287 249.01044167 72.58397269 246.80225261 69.75 244.5625 C63.97126826 240.01242384 58.14660958 235.88570736 51.625 232.4375 C48.5878466 230.80810824 45.73831851 229.17723361 42.875 227.25 C40.14163873 225.31839703 40.14163873 225.31839703 36.84375 224.11328125 C30.27074707 221.3441154 23.49750679 216.24124729 19.6875 210.1328125 C16.3471605 201.10747211 17.978973 192.23888506 21.125 183.4375 C21.785 183.4375 22.445 183.4375 23.125 183.4375 C23.351875 182.81875 23.57875 182.2 23.8125 181.5625 C25.50429835 178.82339791 27.11744161 178.38725528 30.125 177.4375 C30.125 176.7775 30.125 176.1175 30.125 175.4375 C30.69347656 175.169375 31.26195312 174.90125 31.84765625 174.625 C37.25014159 171.88317104 40.85653204 168.95781098 44.6171875 164.20703125 C46.125 162.4375 46.125 162.4375 49.125 160.4375 C50.16255118 158.45672047 51.15495879 156.45220098 52.125 154.4375 C52.94800767 153.15995541 53.78202691 151.88945964 54.625 150.625 C57.28944412 146.39698986 58.81246046 142.24272949 60.125 137.4375 C60.40472656 136.4578125 60.68445313 135.478125 60.97265625 134.46875 C65.17667491 118.35660407 63.70588473 101.39711254 56.125 86.4375 C54.66124206 84.03385539 53.12644813 81.71594132 51.5078125 79.4140625 C50.125 77.4375 50.125 77.4375 48.4375 74.5 C47.141397 72.15653522 47.141397 72.15653522 44.125 70.4375 C44.125 69.7775 44.125 69.1175 44.125 68.4375 C42.64 67.9425 42.64 67.9425 41.125 67.4375 C40.38378906 66.67824219 39.64257812 65.91898437 38.87890625 65.13671875 C35.82218806 62.14070134 32.79085724 60.27825797 29.0625 58.25 C28.45083984 57.90775391 27.83917969 57.56550781 27.20898438 57.21289062 C25.52207797 56.27369409 23.82391624 55.35479328 22.125 54.4375 C21.48820312 54.06109375 20.85140625 53.6846875 20.1953125 53.296875 C16.93776546 51.94468566 13.52253572 51.45255864 10.0625 50.875 C8.92458008 50.67668579 8.92458008 50.67668579 7.76367188 50.47436523 C3.54742203 49.76195513 -0.60232534 49.25454232 -4.875 49 C-11.53453403 48.48383551 -16.71384084 46.31676884 -21.75 41.9375 C-27.45674317 35.2236845 -29.34143903 30.34345603 -29.19921875 21.44921875 C-28.73407734 17.12844737 -27.25929201 14.01824178 -24.875 10.4375 C-24.33875 9.6125 -23.8025 8.7875 -23.25 7.9375 C-22.569375 7.195 -22.569375 7.195 -21.875 6.4375 C-21.215 6.4375 -20.555 6.4375 -19.875 6.4375 C-19.545 5.4475 -19.215 4.4575 -18.875 3.4375 C-12.79835977 -0.13946967 -6.92082568 -0.06481251 0 0 Z " fill="#FFFFFF" transform="translate(330.875,-0.43749999999999994)"/>
</svg>
