<?xml version="1.0" encoding="UTF-8"?>
<svg version="1.1" xmlns="http://www.w3.org/2000/svg" width="512" height="512">
<path d="M0 0 C1.87706635 -0.0099852 1.87706635 -0.0099852 3.79205322 -0.02017212 C6.4347562 -0.03027668 9.07704747 -0.03585775 11.71972656 -0.03466797 C14.41010458 -0.03450555 17.09980083 -0.04837568 19.79003906 -0.07568359 C23.69356832 -0.1125274 27.59631362 -0.12214986 31.5 -0.125 C32.68994568 -0.13937103 33.87989136 -0.15374207 35.105896 -0.16854858 C49.56130616 -0.09037181 61.3266773 5.69547688 71.765625 15.5859375 C81.11373194 25.40396723 85.00027203 35.01768881 86.2265625 48.234375 C86.65434439 53.63277022 86.65434439 53.63277022 89.015625 58.3359375 C91.45801498 59.86799267 91.45801498 59.86799267 94.328125 61.0234375 C95.74544922 61.64798828 95.74544922 61.64798828 97.19140625 62.28515625 C101.01509671 63.71679298 101.01509671 63.71679298 105.015625 64.3359375 C108.78639336 62.52478104 111.99457714 59.91186505 115.328125 57.3984375 C129.02173141 47.48739434 142.35329208 46.34726972 159.015625 48.3359375 C159.87027344 48.43777344 160.72492188 48.53960937 161.60546875 48.64453125 C167.90085554 49.71773427 172.74203872 52.86837392 178.015625 56.3359375 C179.5934375 57.2640625 179.5934375 57.2640625 181.203125 58.2109375 C184.40457028 60.62980727 186.78278459 63.33190761 189.36328125 66.38671875 C192.41892074 69.99136202 195.76086218 73.13976743 199.390625 76.1484375 C202.727136 78.96157423 205.53359649 82.07090123 208.33984375 85.40625 C210.00852588 87.38642618 210.00852588 87.38642618 211.99609375 89.23828125 C214.25644802 91.5860767 215.90501263 94.01710156 217.640625 96.7734375 C218.52621094 98.16369141 218.52621094 98.16369141 219.4296875 99.58203125 C225.80493831 110.65235594 225.57977762 124.0067345 224.015625 136.3359375 C223.92539062 137.14546875 223.83515625 137.955 223.7421875 138.7890625 C222.36855142 147.27508098 217.27048352 154.998947 211.640625 161.3359375 C208.7953075 164.49200272 208.7953075 164.49200272 208.015625 168.3359375 C208.68597233 170.79789716 208.68597233 170.79789716 209.828125 173.2734375 C210.36373047 174.52447266 210.36373047 174.52447266 210.91015625 175.80078125 C211.27496094 176.63738281 211.63976562 177.47398437 212.015625 178.3359375 C212.45455078 179.66818359 212.45455078 179.66818359 212.90234375 181.02734375 C213.8268417 183.38038859 213.8268417 183.38038859 215.62890625 184.59375 C219.09642109 185.67202794 222.604676 185.90263299 226.203125 186.2109375 C239.86290655 187.63464115 250.51354784 193.96131655 260.0625 203.8984375 C269.14883148 215.23817919 272.3249656 226.00347972 272.3515625 240.3203125 C272.3582193 241.57169006 272.3648761 242.82306763 272.37173462 244.11236572 C272.38183918 246.7550687 272.38742025 249.39735997 272.38623047 252.04003906 C272.38606805 254.73041708 272.39993818 257.42011333 272.42724609 260.11035156 C272.4640899 264.01388082 272.47371236 267.91662612 272.4765625 271.8203125 C272.49093353 273.01025818 272.50530457 274.20020386 272.52011108 275.4262085 C272.44193431 289.88161866 266.65608562 301.6469898 256.765625 312.0859375 C246.94759527 321.43404444 237.33387369 325.32058453 224.1171875 326.546875 C218.71879228 326.97465689 218.71879228 326.97465689 214.015625 329.3359375 C212.48356983 331.77832748 212.48356983 331.77832748 211.328125 334.6484375 C210.91175781 335.59332031 210.49539063 336.53820312 210.06640625 337.51171875 C208.63476952 341.33540921 208.63476952 341.33540921 208.015625 345.3359375 C209.82678146 349.10670586 212.43969745 352.31488964 214.953125 355.6484375 C224.86416816 369.34204391 226.00429278 382.67360458 224.015625 399.3359375 C223.91378906 400.19058594 223.81195313 401.04523438 223.70703125 401.92578125 C222.63382823 408.22116804 219.48318858 413.06235122 216.015625 418.3359375 C215.396875 419.3878125 214.778125 420.4396875 214.140625 421.5234375 C211.72175523 424.72488278 209.01965489 427.10309709 205.96484375 429.68359375 C202.36020048 432.73923324 199.21179507 436.08117468 196.203125 439.7109375 C193.38998827 443.0474485 190.28066127 445.85390899 186.9453125 448.66015625 C184.96513632 450.32883838 184.96513632 450.32883838 183.11328125 452.31640625 C180.7654858 454.57676052 178.33446094 456.22532513 175.578125 457.9609375 C174.65128906 458.55132812 173.72445313 459.14171875 172.76953125 459.75 C161.69920656 466.12525081 148.344828 465.90009012 136.015625 464.3359375 C135.20609375 464.24570312 134.3965625 464.15546875 133.5625 464.0625 C125.07648152 462.68886392 117.3526155 457.59079602 111.015625 451.9609375 C107.85955978 449.11562 107.85955978 449.11562 104.015625 448.3359375 C101.55366534 449.00628483 101.55366534 449.00628483 99.078125 450.1484375 C98.24410156 450.50550781 97.41007812 450.86257813 96.55078125 451.23046875 C95.71417969 451.59527344 94.87757813 451.96007812 94.015625 452.3359375 C93.12746094 452.62855469 92.23929687 452.92117188 91.32421875 453.22265625 C88.97117391 454.1471542 88.97117391 454.1471542 87.7578125 455.94921875 C86.67953456 459.41673359 86.44892951 462.9249885 86.140625 466.5234375 C84.71692135 480.18321905 78.39024595 490.83386034 68.453125 500.3828125 C57.11338331 509.46914398 46.34808278 512.6452781 32.03125 512.671875 C30.77987244 512.6785318 29.52849487 512.6851886 28.23919678 512.69204712 C25.5964938 512.70215168 22.95420253 512.70773275 20.31152344 512.70654297 C17.62114542 512.70638055 14.93144917 512.72025068 12.24121094 512.74755859 C8.33768168 512.7844024 4.43493638 512.79402486 0.53125 512.796875 C-0.65869568 512.81124603 -1.84864136 512.82561707 -3.074646 512.84042358 C-17.53005616 512.76224681 -29.2954273 506.97639812 -39.734375 497.0859375 C-49.08248194 487.26790777 -52.96902203 477.65418619 -54.1953125 464.4375 C-54.62309439 459.03910478 -54.62309439 459.03910478 -56.984375 454.3359375 C-59.42676498 452.80388233 -59.42676498 452.80388233 -62.296875 451.6484375 C-63.24175781 451.23207031 -64.18664062 450.81570313 -65.16015625 450.38671875 C-68.98384671 448.95508202 -68.98384671 448.95508202 -72.984375 448.3359375 C-76.75514336 450.14709396 -79.96332714 452.76000995 -83.296875 455.2734375 C-96.99048141 465.18448066 -110.32204208 466.32460528 -126.984375 464.3359375 C-127.83902344 464.23410156 -128.69367188 464.13226563 -129.57421875 464.02734375 C-135.86960554 462.95414073 -140.71078872 459.80350108 -145.984375 456.3359375 C-147.03625 455.7171875 -148.088125 455.0984375 -149.171875 454.4609375 C-152.37332028 452.04206773 -154.75153459 449.33996739 -157.33203125 446.28515625 C-160.38767074 442.68051298 -163.72961218 439.53210757 -167.359375 436.5234375 C-170.695886 433.71030077 -173.50234649 430.60097377 -176.30859375 427.265625 C-177.97727588 425.28544882 -177.97727588 425.28544882 -179.96484375 423.43359375 C-182.22519802 421.0857983 -183.87376263 418.65477344 -185.609375 415.8984375 C-186.19976562 414.97160156 -186.79015625 414.04476563 -187.3984375 413.08984375 C-193.80040057 401.97313447 -193.48172021 388.70794137 -191.984375 376.3359375 C-191.92894531 375.48773438 -191.87351563 374.63953125 -191.81640625 373.765625 C-190.82306894 365.04153213 -184.5697736 355.87377553 -178.38378906 349.75195312 C-176.59891599 347.9459057 -176.22138186 346.85936347 -175.984375 344.3359375 C-176.65472233 341.87397784 -176.65472233 341.87397784 -177.796875 339.3984375 C-178.15394531 338.56441406 -178.51101562 337.73039062 -178.87890625 336.87109375 C-179.42611328 335.61619141 -179.42611328 335.61619141 -179.984375 334.3359375 C-180.27699219 333.44777344 -180.56960937 332.55960937 -180.87109375 331.64453125 C-181.7955917 329.29148641 -181.7955917 329.29148641 -183.59765625 328.078125 C-187.06517109 326.99984706 -190.573426 326.76924201 -194.171875 326.4609375 C-207.83165655 325.03723385 -218.48229784 318.71055845 -228.03125 308.7734375 C-237.11758148 297.43369581 -240.2937156 286.66839528 -240.3203125 272.3515625 C-240.3302977 270.47449615 -240.3302977 270.47449615 -240.34048462 268.55950928 C-240.35058918 265.9168063 -240.35617025 263.27451503 -240.35498047 260.63183594 C-240.35481805 257.94145792 -240.36868818 255.25176167 -240.39599609 252.56152344 C-240.4328399 248.65799418 -240.44246236 244.75524888 -240.4453125 240.8515625 C-240.45968353 239.66161682 -240.47405457 238.47167114 -240.48886108 237.2456665 C-240.41068431 222.79025634 -234.62483562 211.0248852 -224.734375 200.5859375 C-214.91634527 191.23783056 -205.30262369 187.35129047 -192.0859375 186.125 C-186.68754228 185.69721811 -186.68754228 185.69721811 -181.984375 183.3359375 C-180.45231983 180.89354752 -180.45231983 180.89354752 -179.296875 178.0234375 C-178.67232422 176.60611328 -178.67232422 176.60611328 -178.03515625 175.16015625 C-176.60351952 171.33646579 -176.60351952 171.33646579 -175.984375 167.3359375 C-177.79553146 163.56516914 -180.40844745 160.35698536 -182.921875 157.0234375 C-192.83291816 143.32983109 -193.97304278 129.99827042 -191.984375 113.3359375 C-191.88253906 112.48128906 -191.78070313 111.62664062 -191.67578125 110.74609375 C-190.60257823 104.45070696 -187.45193858 99.60952378 -183.984375 94.3359375 C-183.365625 93.2840625 -182.746875 92.2321875 -182.109375 91.1484375 C-179.69050523 87.94699222 -176.98840489 85.56877791 -173.93359375 82.98828125 C-170.32895048 79.93264176 -167.18054507 76.59070032 -164.171875 72.9609375 C-161.35873827 69.6244265 -158.24941127 66.81796601 -154.9140625 64.01171875 C-152.93388632 62.34303662 -152.93388632 62.34303662 -151.08203125 60.35546875 C-148.7342358 58.09511448 -146.30321094 56.44654987 -143.546875 54.7109375 C-142.62003906 54.12054688 -141.69320312 53.53015625 -140.73828125 52.921875 C-129.66795656 46.54662419 -116.313578 46.77178488 -103.984375 48.3359375 C-103.17484375 48.42617188 -102.3653125 48.51640625 -101.53125 48.609375 C-93.04523152 49.98301108 -85.3213655 55.08107898 -78.984375 60.7109375 C-75.82830978 63.556255 -75.82830978 63.556255 -71.984375 64.3359375 C-69.52241534 63.66559017 -69.52241534 63.66559017 -67.046875 62.5234375 C-66.21285156 62.16636719 -65.37882813 61.80929688 -64.51953125 61.44140625 C-63.26462891 60.89419922 -63.26462891 60.89419922 -61.984375 60.3359375 C-61.09621094 60.04332031 -60.20804688 59.75070313 -59.29296875 59.44921875 C-56.93992391 58.5247208 -56.93992391 58.5247208 -55.7265625 56.72265625 C-54.64828456 53.25514141 -54.41767951 49.7468865 -54.109375 46.1484375 C-52.68567135 32.48865595 -46.35899595 21.83801466 -36.421875 12.2890625 C-25.08213331 3.20273102 -14.31683278 0.0265969 0 0 Z M-5.984375 51.3359375 C-6.61561842 54.18538211 -7.04069461 56.82766705 -7.359375 59.7109375 C-9.46604007 75.04388914 -16.21407899 87.24794076 -28.265625 97.0859375 C-31.63387498 99.53557385 -35.30059317 101.41032427 -38.984375 103.3359375 C-39.7578125 103.77164063 -40.53125 104.20734375 -41.328125 104.65625 C-55.54180655 112.36301889 -71.37024579 113.52446636 -86.984375 110.3359375 C-87.9228125 110.17480469 -88.86125 110.01367188 -89.828125 109.84765625 C-97.03537332 108.3254357 -101.94435712 104.77038641 -107.55078125 100.19921875 C-109.73820778 98.13329648 -109.73820778 98.13329648 -111.984375 98.3359375 C-111.984375 97.6759375 -111.984375 97.0159375 -111.984375 96.3359375 C-114.77375712 95.91703532 -114.77375712 95.91703532 -117.984375 96.3359375 C-120.19349872 98.1536493 -120.19349872 98.1536493 -121.51171875 99.72265625 C-123.32513618 101.70923821 -125.31812087 103.39731086 -127.359375 105.1484375 C-131.03292637 108.38262725 -134.27282183 111.77570609 -137.41015625 115.52734375 C-138.984375 117.3359375 -138.984375 117.3359375 -141.921875 119.9609375 C-144.29873615 122.23268745 -144.29873615 122.23268745 -144.296875 125.6484375 C-144.1421875 126.97875 -144.1421875 126.97875 -143.984375 128.3359375 C-143.324375 128.3359375 -142.664375 128.3359375 -141.984375 128.3359375 C-141.72398437 129.08101563 -141.46359375 129.82609375 -141.1953125 130.59375 C-139.96329994 133.38366232 -138.6577335 134.98368306 -136.609375 137.2109375 C-129.09603105 146.61827024 -127.36245599 161.01179078 -128.23828125 172.734375 C-130.21913528 188.90242681 -135.72539234 206.57826938 -148.546875 217.5234375 C-149.35125 218.1215625 -150.155625 218.7196875 -150.984375 219.3359375 C-152.0671875 220.5425 -152.0671875 220.5425 -153.171875 221.7734375 C-162.16743384 229.96939111 -174.20808282 232.50092942 -185.9453125 233.61328125 C-188.96931641 234.07013115 -188.96931641 234.07013115 -190.64941406 235.87329102 C-192.52907954 239.34077194 -192.41377958 242.61465108 -192.3828125 246.4609375 C-192.38568268 247.24484863 -192.38855286 248.02875977 -192.39151001 248.83642578 C-192.39354764 250.49056726 -192.38803881 252.144733 -192.37548828 253.79882812 C-192.3594294 256.32737221 -192.37534617 258.85431799 -192.39453125 261.3828125 C-192.39254876 262.99219102 -192.38870497 264.60156855 -192.3828125 266.2109375 C-192.38888519 266.9652002 -192.39495789 267.71946289 -192.4012146 268.49658203 C-192.35907687 271.64932784 -192.17274705 273.97710302 -190.6953125 276.79150391 C-187.85156521 279.35850524 -184.27610095 279.30566381 -180.609375 279.7109375 C-164.3451517 281.94555429 -152.08074591 289.43501911 -141.984375 302.3359375 C-141.654375 303.3259375 -141.324375 304.3159375 -140.984375 305.3359375 C-140.324375 305.3359375 -139.664375 305.3359375 -138.984375 305.3359375 C-138.7575 306.1196875 -138.530625 306.9034375 -138.296875 307.7109375 C-137.22051248 310.68374826 -136.04112732 313.13947162 -134.546875 315.8984375 C-127.6467552 329.4747794 -126.9899155 344.67216007 -129.984375 359.3359375 C-130.14550781 360.274375 -130.30664062 361.2128125 -130.47265625 362.1796875 C-131.9948768 369.38693582 -135.54992609 374.29591962 -140.12109375 379.90234375 C-142.18701602 382.08977028 -142.18701602 382.08977028 -141.984375 384.3359375 C-142.644375 384.3359375 -143.304375 384.3359375 -143.984375 384.3359375 C-144.40327718 387.12531962 -144.40327718 387.12531962 -143.984375 390.3359375 C-142.1666632 392.54506122 -142.1666632 392.54506122 -140.59765625 393.86328125 C-138.61107429 395.67669868 -136.92300164 397.66968337 -135.171875 399.7109375 C-131.93768525 403.38448887 -128.54460641 406.62438433 -124.79296875 409.76171875 C-122.984375 411.3359375 -122.984375 411.3359375 -120.359375 414.2734375 C-118.08762505 416.65029865 -118.08762505 416.65029865 -114.671875 416.6484375 C-113.785 416.5453125 -112.898125 416.4421875 -111.984375 416.3359375 C-111.984375 415.6759375 -111.984375 415.0159375 -111.984375 414.3359375 C-110.86675781 413.94535156 -110.86675781 413.94535156 -109.7265625 413.546875 C-106.93665018 412.31486244 -105.33662944 411.009296 -103.109375 408.9609375 C-93.97452056 401.67733263 -79.36837057 399.42270745 -67.92724609 400.53613281 C-59.18522924 401.64380721 -50.95260576 403.48256166 -42.984375 407.3359375 C-42.14519531 407.7175 -41.30601562 408.0990625 -40.44140625 408.4921875 C-32.65488374 412.16752036 -26.16561441 416.3680638 -20.984375 423.3359375 C-19.7778125 424.41875 -19.7778125 424.41875 -18.546875 425.5234375 C-10.35092139 434.51899634 -7.81938308 446.55964532 -6.70703125 458.296875 C-6.25018135 461.32087891 -6.25018135 461.32087891 -4.44702148 463.00097656 C-0.97954056 464.88064204 2.29433858 464.76534208 6.140625 464.734375 C6.92453613 464.73724518 7.70844727 464.74011536 8.51611328 464.74307251 C10.17025476 464.74511014 11.8244205 464.73960131 13.47851562 464.72705078 C16.00705971 464.7109919 18.53400549 464.72690867 21.0625 464.74609375 C22.67187852 464.74411126 24.28125605 464.74026747 25.890625 464.734375 C27.02201904 464.74348404 27.02201904 464.74348404 28.17626953 464.7527771 C31.32901534 464.71063937 33.65679052 464.52430955 36.47119141 463.046875 C39.03819274 460.20312771 38.98535131 456.62766345 39.390625 452.9609375 C41.49729007 437.62798586 48.24532899 425.42393424 60.296875 415.5859375 C63.66512498 413.13630115 67.33184317 411.26155073 71.015625 409.3359375 C71.7890625 408.90023438 72.5625 408.46453125 73.359375 408.015625 C87.57305655 400.30885611 103.40149579 399.14740864 119.015625 402.3359375 C119.9540625 402.49707031 120.8925 402.65820312 121.859375 402.82421875 C129.06662332 404.3464393 133.97560712 407.90148859 139.58203125 412.47265625 C141.76945778 414.53857852 141.76945778 414.53857852 144.015625 414.3359375 C144.015625 414.9959375 144.015625 415.6559375 144.015625 416.3359375 C146.80500712 416.75483968 146.80500712 416.75483968 150.015625 416.3359375 C152.22474872 414.5182257 152.22474872 414.5182257 153.54296875 412.94921875 C155.35638618 410.96263679 157.34937087 409.27456414 159.390625 407.5234375 C163.06417637 404.28924775 166.30407183 400.89616891 169.44140625 397.14453125 C171.015625 395.3359375 171.015625 395.3359375 173.953125 392.7109375 C176.32998615 390.43918755 176.32998615 390.43918755 176.328125 387.0234375 C176.225 386.1365625 176.121875 385.2496875 176.015625 384.3359375 C175.355625 384.3359375 174.695625 384.3359375 174.015625 384.3359375 C173.62503906 383.21832031 173.62503906 383.21832031 173.2265625 382.078125 C171.99454994 379.28821268 170.6889835 377.68819194 168.640625 375.4609375 C161.35702013 366.32608306 159.10239495 351.71993307 160.21582031 340.27880859 C161.56442052 329.63535077 164.43406299 320.41369823 169.265625 310.8359375 C171.1646962 307.6899816 171.1646962 307.6899816 171.015625 305.3359375 C171.675625 305.3359375 172.335625 305.3359375 173.015625 305.3359375 C173.36625 304.4696875 173.716875 303.6034375 174.078125 302.7109375 C176.12706522 299.14181582 178.10739322 297.29788865 181.26953125 294.7734375 C183.20721557 293.25014205 183.20721557 293.25014205 185.328125 290.7734375 C194.27760643 282.65646597 206.33237081 280.16212826 217.9765625 279.05859375 C221.00056641 278.60174385 221.00056641 278.60174385 222.68066406 276.79858398 C224.56032954 273.33110306 224.44502958 270.05722392 224.4140625 266.2109375 C224.41693268 265.42702637 224.41980286 264.64311523 224.42276001 263.83544922 C224.42479764 262.18130774 224.41928881 260.527142 224.40673828 258.87304688 C224.3906794 256.34450279 224.40659617 253.81755701 224.42578125 251.2890625 C224.42379876 249.67968398 224.41995497 248.07030645 224.4140625 246.4609375 C224.42317154 245.32954346 224.42317154 245.32954346 224.4324646 244.17529297 C224.39032687 241.02254716 224.20399705 238.69477198 222.7265625 235.88037109 C219.88281521 233.31336976 216.30735095 233.36621119 212.640625 232.9609375 C197.30767336 230.85427243 185.10362174 224.10623351 175.265625 212.0546875 C172.81598865 208.68643752 170.94123823 205.01971933 169.015625 201.3359375 C168.57992188 200.5625 168.14421875 199.7890625 167.6953125 198.9921875 C158.60218564 182.22163018 159.21801274 164.82818353 163.60546875 146.9296875 C165.3244674 141.44686828 168.89192303 137.15723122 172.37109375 132.65625 C174.20837366 130.53798325 174.20837366 130.53798325 174.015625 128.3359375 C174.675625 128.3359375 175.335625 128.3359375 176.015625 128.3359375 C176.43452718 125.54655538 176.43452718 125.54655538 176.015625 122.3359375 C174.1979132 120.12681378 174.1979132 120.12681378 172.62890625 118.80859375 C170.64232429 116.99517632 168.95425164 115.00219163 167.203125 112.9609375 C163.96893525 109.28738613 160.57585641 106.04749067 156.82421875 102.91015625 C155.015625 101.3359375 155.015625 101.3359375 152.390625 98.3984375 C150.11887505 96.02157635 150.11887505 96.02157635 146.703125 96.0234375 C145.81625 96.1265625 144.929375 96.2296875 144.015625 96.3359375 C144.015625 96.9959375 144.015625 97.6559375 144.015625 98.3359375 C143.27054687 98.59632812 142.52546875 98.85671875 141.7578125 99.125 C138.96790018 100.35701256 137.36787944 101.662579 135.140625 103.7109375 C125.73329226 111.22428145 111.33977172 112.95785651 99.6171875 112.08203125 C88.6383015 110.73693595 78.1968514 108.12474486 68.72265625 102.2890625 C67.05043491 101.17343488 67.05043491 101.17343488 65.015625 101.3359375 C65.015625 100.6759375 65.015625 100.0159375 65.015625 99.3359375 C64.149375 98.9853125 63.283125 98.6346875 62.390625 98.2734375 C58.82150332 96.22449728 56.97757615 94.24416928 54.453125 91.08203125 C52.92982955 89.14434693 52.92982955 89.14434693 50.453125 87.0234375 C42.33615347 78.07395607 39.84181576 66.01919169 38.73828125 54.375 C38.28143135 51.35099609 38.28143135 51.35099609 36.47827148 49.67089844 C33.01079056 47.79123296 29.73691142 47.90653292 25.890625 47.9375 C25.10671387 47.93462982 24.32280273 47.93175964 23.51513672 47.92880249 C21.86099524 47.92676486 20.2068295 47.93227369 18.55273438 47.94482422 C16.02419029 47.9608831 13.49724451 47.94496633 10.96875 47.92578125 C9.35937148 47.92776374 7.74999395 47.93160753 6.140625 47.9375 C5.00923096 47.92839096 5.00923096 47.92839096 3.85498047 47.9190979 C-0.31741956 47.97486372 -3.10873553 48.15027809 -5.984375 51.3359375 Z " fill="#FFFFFF" transform="translate(239.984375,-0.3359375)"/>
<path d="M0 0 C2.31452751 0.91324009 4.63118044 1.66947986 7.0078125 2.40234375 C12.08089212 4.05660884 16.73682313 6.47789634 21.4453125 8.96484375 C21.4453125 9.62484375 21.4453125 10.28484375 21.4453125 10.96484375 C22.4146875 11.12984375 23.3840625 11.29484375 24.3828125 11.46484375 C29.86272433 13.02264127 33.41092437 17.14058 37.4453125 20.96484375 C38.75368711 22.07389567 40.06604604 23.17826852 41.3828125 24.27734375 C52.41021752 33.9180691 60.73916684 45.04789273 67.4453125 57.96484375 C67.8165625 58.63257813 68.1878125 59.3003125 68.5703125 59.98828125 C81.04217696 83.08071778 83.36245258 114.87555599 76.4453125 139.96484375 C75.52326587 142.8627046 74.52849841 145.69202467 73.41015625 148.51953125 C72.49691616 150.83405876 71.74067639 153.15071169 71.0078125 155.52734375 C69.35354741 160.60042337 66.93225991 165.25635438 64.4453125 169.96484375 C63.7853125 169.96484375 63.1253125 169.96484375 62.4453125 169.96484375 C62.2803125 170.93421875 62.1153125 171.90359375 61.9453125 172.90234375 C60.38751498 178.38225558 56.26957625 181.93045562 52.4453125 185.96484375 C51.33626058 187.27321836 50.23188773 188.58557729 49.1328125 189.90234375 C42.54689014 197.43555632 33.33750559 207.95462076 23.4453125 210.83984375 C22.7853125 210.88109375 22.1253125 210.92234375 21.4453125 210.96484375 C21.4453125 211.62484375 21.4453125 212.28484375 21.4453125 212.96484375 C12.64706429 217.66076034 4.13497983 221.39922986 -5.5546875 223.96484375 C-6.62203125 224.25230469 -7.689375 224.53976562 -8.7890625 224.8359375 C-30.24511356 230.41344331 -54.35803238 230.15364444 -75.11328125 221.92578125 C-77.40649246 221.02317332 -79.69551219 220.29718026 -82.0546875 219.58984375 C-87.59912836 217.76483996 -92.52609662 214.88879271 -97.5546875 211.96484375 C-98.22113281 211.59746094 -98.88757813 211.23007812 -99.57421875 210.8515625 C-119.05407499 199.57375099 -133.23750888 181.52790315 -143.5546875 161.96484375 C-144.09480469 160.94132813 -144.63492188 159.9178125 -145.19140625 158.86328125 C-156.84149809 134.09431809 -158.7598454 101.80178587 -149.5546875 76.02734375 C-149.21179688 75.16238281 -148.86890625 74.29742187 -148.515625 73.40625 C-147.61301707 71.11303879 -146.88702401 68.82401906 -146.1796875 66.46484375 C-144.35468371 60.92040289 -141.47863646 55.99343463 -138.5546875 50.96484375 C-138.18730469 50.29839844 -137.81992188 49.63195312 -137.44140625 48.9453125 C-126.16359474 29.46545626 -108.1177469 15.28202237 -88.5546875 4.96484375 C-87.01941406 4.15466797 -87.01941406 4.15466797 -85.453125 3.328125 C-59.85518301 -8.71187736 -26.33188279 -10.41484916 0 0 Z M-86.5546875 61.96484375 C-93.7962517 69.44856217 -98.39275194 77.52132148 -102.5546875 86.96484375 C-102.9053125 87.72152344 -103.2559375 88.47820312 -103.6171875 89.2578125 C-109.35808669 103.52725904 -107.3188182 122.8944225 -101.9296875 136.75 C-95.22101469 152.43533444 -83.50739978 166.22292368 -67.5546875 172.96484375 C-66.801875 173.31160156 -66.0490625 173.65835938 -65.2734375 174.015625 C-58.35966241 177.18443858 -52.15943641 179.2817267 -44.4921875 179.65234375 C-43.37009888 179.70769287 -43.37009888 179.70769287 -42.2253418 179.76416016 C-22.57550998 180.58194208 -6.29760069 175.2189615 8.7421875 162.46875 C17.37428179 154.47283607 22.75366964 145.6102834 27.4453125 134.96484375 C27.7959375 134.20816406 28.1465625 133.45148438 28.5078125 132.671875 C34.34596894 118.16068808 32.0385451 99.12630976 26.796875 84.9609375 C25.57215788 82.24602989 24.23799806 80.30875615 22.4453125 77.96484375 C21.97931641 76.76601562 21.97931641 76.76601562 21.50390625 75.54296875 C15.5393242 61.01668037 0.12286914 51.99279686 -13.5546875 45.96484375 C-14.68970703 45.43890625 -14.68970703 45.43890625 -15.84765625 44.90234375 C-39.98954041 35.18955477 -68.48988119 45.23140322 -86.5546875 61.96484375 Z " fill="#FFFFFF" transform="translate(293.5546875,145.03515625)"/>
</svg>
