<?xml version="1.0" encoding="UTF-8"?>
<svg version="1.1" xmlns="http://www.w3.org/2000/svg" width="461" height="512">
<path d="M0 0 C0.89847656 0.81082031 1.79695313 1.62164063 2.72265625 2.45703125 C4.3439312 3.92414377 5.96376531 5.39285037 7.58203125 6.86328125 C10.12413644 9.10969731 12.73379395 11.24621053 15.375 13.375 C19.92940923 17.05701535 24.23747565 20.92900357 28.52124023 24.91577148 C31.73263407 27.8868675 35.02609763 30.69946588 38.4375 33.4375 C43.21621628 37.28110057 47.69157687 41.36960164 52.16381836 45.55834961 C55.51099327 48.67553945 58.93005023 51.63573798 62.5 54.5 C67.26188842 58.3205849 71.71435594 62.39067803 76.16625977 66.56079102 C79.491548 69.65780084 82.88719939 72.59621684 86.4375 75.4375 C92.14577779 80.01914402 97.44296038 84.98802436 102.77734375 89.9921875 C105.82137013 92.84546778 108.92966877 95.61188009 112.08984375 98.3359375 C114.36204511 100.31540126 116.58459872 102.3458317 118.8125 104.375 C122.16801725 107.40973184 125.58838182 110.3041891 129.125 113.125 C148.74936869 129.09767509 166.81798925 147.2198881 169.54608631 173.62717819 C170.03603775 178.79648434 170.14280921 183.91625875 170.13371277 189.10577393 C170.13597833 190.07224216 170.13824388 191.0387104 170.14057809 192.03446555 C170.14686596 195.24597125 170.1460921 198.45743417 170.14526367 201.66894531 C170.14825841 203.98265131 170.15166167 206.2963568 170.15544128 208.61006165 C170.16425328 214.87674124 170.16661822 221.14340716 170.16725707 227.41009235 C170.16796915 231.33031925 170.17010646 235.2505427 170.17275429 239.17076874 C170.1815219 252.15576448 170.18617515 265.14075057 170.18542381 278.12574914 C170.18536388 279.17362783 170.18536388 279.17362783 170.18530273 280.24267578 C170.18526185 280.94212412 170.18522097 281.64157246 170.18517885 282.3622162 C170.18477262 293.69119098 170.19433896 305.02013248 170.2084411 316.34909764 C170.22283948 328.00895266 170.22952667 339.66878997 170.22884732 351.32865405 C170.228593 357.86378391 170.23140804 364.39887608 170.24202538 370.93399811 C170.25174395 377.08345038 170.25175982 383.23282923 170.24450874 389.38228416 C170.24346758 391.63076828 170.24579778 393.87925707 170.2518692 396.12773323 C170.29370143 412.70181617 169.96868478 427.62217604 163 443 C162.36964844 444.40378906 162.36964844 444.40378906 161.7265625 445.8359375 C157.79864447 453.75988774 152.17283726 459.80108033 146 466 C145.29101562 466.74378906 144.58203125 467.48757813 143.8515625 468.25390625 C129.48544155 482.31729285 110.0694279 486.15761909 90.74885559 486.13371277 C89.39430655 486.1355825 88.03975806 486.13788386 86.68521041 486.14057809 C82.97306924 486.14668251 79.26095064 486.1465641 75.54880559 486.14538372 C71.54115985 486.14517936 67.53352129 486.15070181 63.52587891 486.15544128 C55.67745139 486.16374123 47.82903139 486.16649584 39.98059986 486.16705366 C33.59881259 486.16752919 27.2170278 486.16958576 20.83524132 486.17275429 C2.73133821 486.1815595 -15.37255897 486.18617394 -33.47646423 486.18542381 C-34.45207528 486.18538386 -35.42768632 486.1853439 -36.43286133 486.18530273 C-37.40966735 486.18526185 -38.38647338 486.18522097 -39.39287958 486.18517885 C-55.21762803 486.18477254 -71.04235267 486.19433863 -86.86709424 486.2084411 C-103.12599391 486.22281582 -119.38488198 486.22971066 -135.64378816 486.22884732 C-144.76778151 486.22851571 -153.89174991 486.23124727 -163.01573753 486.24202538 C-170.78531515 486.25114485 -178.5548565 486.25329379 -186.32443716 486.24651595 C-190.28539402 486.2432579 -194.24628134 486.24316813 -198.20723152 486.2518692 C-201.84000274 486.25976697 -205.47264969 486.25826959 -209.105418 486.24958507 C-211.02785049 486.24733875 -212.95028694 486.25485299 -214.87270421 486.26282471 C-225.35891774 486.22145253 -235.45825051 485.31560736 -245.0625 480.875 C-246.07799927 480.41432129 -246.07799927 480.41432129 -247.11401367 479.94433594 C-266.72707 470.72068482 -280.24928444 454.33500139 -287.7734375 434.34765625 C-291.82069667 421.11991712 -291.28554568 407.46540297 -291.25878906 393.79101562 C-291.26150291 391.45553987 -291.26506605 389.12006497 -291.26940918 386.78459167 C-291.27848853 380.47268492 -291.27500734 374.16084391 -291.26865101 367.84893608 C-291.26408408 361.89853095 -291.26757978 355.94813376 -291.2705054 349.99772841 C-291.27619385 337.49456175 -291.26967419 324.99142454 -291.25890467 312.48826271 C-291.24997051 301.7849664 -291.25152297 291.0817135 -291.26074219 280.37841797 C-291.27147115 267.91670885 -291.27564467 255.45502546 -291.26951766 242.99331236 C-291.26640853 236.40852028 -291.2659595 229.82375803 -291.27259064 223.2389679 C-291.27839144 217.04679214 -291.2743173 210.8546979 -291.26280212 204.6625309 C-291.26017013 202.39750109 -291.26089548 200.13246436 -291.26532745 197.86743736 C-291.3134919 170.73971238 -287.35881544 148.46516386 -267.43945312 128.41845703 C-261.80793765 122.86908374 -255.91185686 117.69953887 -249.75 112.75 C-243.69469891 107.86753341 -238.0880579 102.54793506 -232.4296875 97.21875 C-228.70336069 93.71067661 -224.895146 90.31940362 -221 87 C-218.72802986 85.06382881 -216.45723305 83.12629328 -214.1875 81.1875 C-213.58115723 80.67002197 -212.97481445 80.15254395 -212.35009766 79.61938477 C-208.60890618 76.41472075 -204.93867711 73.14775173 -201.3125 69.8125 C-197.83863691 66.62263156 -194.30089975 63.57951106 -190.625 60.625 C-185.8293951 56.75845816 -181.33121333 52.65148017 -176.83862305 48.4440918 C-172.62588877 44.52107276 -168.23595547 40.88096281 -163.74609375 37.27734375 C-160.73681042 34.7817361 -157.86059714 32.16236519 -155 29.5 C-151.29138312 26.04838064 -147.51494105 22.73477852 -143.5625 19.5625 C-139.37761708 16.19652942 -135.41693473 12.66816734 -131.5 9 C-126.64739691 4.45704603 -121.66439774 0.16333234 -116.46484375 -3.984375 C-114.28920994 -5.76349869 -112.28076263 -7.62344923 -110.25 -9.5625 C-77.0232995 -38.72062492 -29.72501408 -26.86909907 0 0 Z M-86 41 C-87.32257813 42.19109375 -87.32257813 42.19109375 -88.671875 43.40625 C-90.3003367 44.87912619 -91.92666084 46.35436936 -93.55078125 47.83203125 C-96.08080282 50.07152403 -98.67906964 52.19587559 -101.3125 54.3125 C-106.12665588 58.20320708 -110.64924334 62.33000466 -115.16333008 66.55786133 C-119.35293609 70.45968389 -123.72154714 74.07310178 -128.1875 77.65625 C-131.39849805 80.33208171 -134.45029137 83.14358276 -137.5 86 C-142.23866464 90.43832674 -147.12119326 94.5914225 -152.1875 98.65625 C-155.39849805 101.33208171 -158.45029137 104.14358276 -161.5 107 C-166.23866464 111.43832674 -171.12119326 115.5914225 -176.1875 119.65625 C-179.39849805 122.33208171 -182.45029137 125.14358276 -185.5 128 C-190.23866464 132.43832674 -195.12119326 136.5914225 -200.1875 140.65625 C-203.97643977 143.81369981 -207.55370923 147.17546033 -211.15087891 150.54760742 C-214.61995288 153.78041212 -218.1772032 156.83906613 -221.875 159.8125 C-230.3271498 166.65295893 -237.2417676 172.81590627 -239 184 C-239.14823724 187.05061201 -239.14351203 190.09802137 -239.14044189 193.15177917 C-239.14341302 194.07596203 -239.14638414 195.00014488 -239.1494453 195.95233327 C-239.15811992 199.05050674 -239.15963951 202.14864152 -239.16113281 205.24682617 C-239.16576188 207.4677641 -239.17078666 209.68870124 -239.17617798 211.90963745 C-239.18929585 217.944944 -239.1957458 223.98023943 -239.20018864 230.015558 C-239.20312047 233.7871457 -239.20722551 237.55873037 -239.21169281 241.33031654 C-239.22380016 251.78151253 -239.2341826 262.23270673 -239.2375679 272.68390942 C-239.23778747 273.35236594 -239.23800703 274.02082247 -239.23823325 274.70953526 C-239.23845153 275.37955336 -239.23866981 276.04957146 -239.2388947 276.73989314 C-239.23933816 278.09751014 -239.23978472 279.45512714 -239.24023438 280.81274414 C-239.2404558 281.48616308 -239.24067723 282.15958202 -239.24090537 282.8534076 C-239.24485113 293.75862838 -239.26229945 304.66378225 -239.2855939 315.5689772 C-239.30934034 326.77664785 -239.32151357 337.98428615 -239.32293582 349.19198591 C-239.32398327 355.48004695 -239.32987849 361.76801361 -239.34775543 368.05605125 C-239.3642506 373.97317177 -239.36638448 379.89012708 -239.35761642 385.80726242 C-239.35684682 387.97518545 -239.36117863 390.14311741 -239.37107468 392.31101799 C-239.38382339 395.27864152 -239.37790132 398.24568249 -239.36749268 401.21330261 C-239.37554908 402.06400886 -239.38360548 402.91471511 -239.39190602 403.79120034 C-239.32040774 412.55301545 -237.48239998 420.78266218 -231.14645386 427.09761047 C-223.56360219 433.81824765 -215.79674708 434.7080231 -205.9921875 434.48828125 C-204.7855545 434.48120651 -203.57892151 434.47413177 -202.33572388 434.46684265 C-198.51482854 434.43904954 -194.6954459 434.37633469 -190.875 434.3125 C-188.27085463 434.28739785 -185.66668608 434.26458807 -183.0625 434.24414062 C-176.70782484 434.18927213 -170.35402053 434.10579639 -164 434 C-163.99503478 432.99891866 -163.99503478 432.99891866 -163.98996925 431.97761345 C-163.90848566 415.68279424 -163.81631198 399.38807329 -163.71247292 383.09338188 C-163.66250912 375.21315291 -163.61606543 367.33293351 -163.578125 359.45263672 C-163.54501836 352.57823268 -163.50508656 345.70390661 -163.45720994 338.82958901 C-163.43212895 335.19509086 -163.41029521 331.5606432 -163.39665604 327.92608261 C-163.38124183 323.85279021 -163.35057881 319.779741 -163.31884766 315.70654297 C-163.31668747 314.52257935 -163.31452728 313.33861572 -163.31230164 312.11877441 C-163.0857117 289.18443898 -157.26937252 270.29009348 -141.5625 253.375 C-140.2940625 252.199375 -140.2940625 252.199375 -139 251 C-138.42507812 250.40832031 -137.85015625 249.81664062 -137.2578125 249.20703125 C-132.72938402 244.78967743 -127.96745104 241.61846276 -122.375 238.75 C-121.47237427 238.27469849 -121.47237427 238.27469849 -120.55151367 237.78979492 C-107.91660013 231.61254598 -95.26962977 230.38715136 -81.47265625 230.46875 C-79.82848381 230.46604432 -78.18431294 230.46215306 -76.54014587 230.45715332 C-73.11881047 230.45130702 -69.69789705 230.45966044 -66.27661133 230.47851562 C-61.93887427 230.5012843 -57.60212887 230.48816442 -53.26442814 230.46422577 C-49.87614265 230.4496188 -46.48808372 230.45444133 -43.09979057 230.46473694 C-41.50255649 230.4673643 -39.90530034 230.46427899 -38.30809212 230.45481873 C-16.50901853 230.35398718 2.29888547 236.30140605 18.5625 251.375 C19.366875 252.24125 20.17125 253.1075 21 254 C21.88945313 254.86431641 21.88945313 254.86431641 22.796875 255.74609375 C38.51231711 271.85746754 42.27934243 294.05436407 42.31884766 315.70654297 C42.32889328 316.99605865 42.3389389 318.28557434 42.34928894 319.61416626 C42.37623938 323.10081717 42.39163256 326.58742854 42.40471697 330.07415533 C42.42050321 333.73634141 42.44724268 337.39844843 42.4727478 341.06057739 C42.51926453 347.97327785 42.55613847 354.88599364 42.58942068 361.79876912 C42.62783539 369.67807415 42.67719384 377.55729924 42.72740483 385.43653655 C42.83032078 401.62430002 42.91971038 417.81210814 43 434 C50.64955758 434.12736747 58.29883903 434.21458927 65.94921875 434.2746582 C68.54860656 434.29971449 71.14792453 434.33376892 73.74707031 434.37719727 C77.49561859 434.43823684 81.24323078 434.46630035 84.9921875 434.48828125 C86.14363251 434.51408768 87.29507751 434.5398941 88.48141479 434.56648254 C98.07493088 434.56977506 105.08509473 432.14219585 111.9375 425.3125 C117.75706154 418.86379667 118.44644661 409.53936284 118.38095093 401.24694824 C118.3856309 400.31849327 118.39031087 399.39003829 118.39513266 398.43344831 C118.40701149 395.35066522 118.39765335 392.26833255 118.38818359 389.18554688 C118.39225245 386.96386965 118.39759609 384.74219446 118.40411377 382.52052307 C118.41775569 376.50612205 118.41250155 370.49187593 118.40297651 364.47747231 C118.39536377 358.17341327 118.40243001 351.8693672 118.40713501 345.56530762 C118.41293679 334.30283332 118.40363311 323.04042266 118.388357 311.77796334 C118.37495513 301.58192125 118.37728363 291.38598165 118.39111328 281.18994141 C118.40719493 269.32816955 118.41312946 257.46644728 118.40427649 245.60466242 C118.39960737 239.33345741 118.39895423 233.06232288 118.40888596 226.79112244 C118.4175728 220.89443395 118.41150214 214.99793839 118.39420319 209.10127068 C118.39024755 206.94141395 118.39135651 204.7815409 118.39799118 202.62169075 C118.40623323 199.66526097 118.39585292 196.70944295 118.38095093 193.75305176 C118.38764309 192.90575611 118.39433526 192.05846045 118.40123022 191.18548918 C118.30390523 181.17743221 115.72985758 173.83723436 108.78515625 166.6328125 C104.49008733 162.57267722 100.01898202 158.74268975 95.48828125 154.94921875 C92.35171793 152.31841448 89.32148615 149.58903228 86.3125 146.8125 C82.83863691 143.62263156 79.30089975 140.57951106 75.625 137.625 C70.8285929 133.75781137 66.3295854 129.65019284 61.83642578 125.44189453 C58.48918215 122.32460664 55.07004094 119.36433518 51.5 116.5 C46.73891522 112.68005989 42.28726975 108.61061181 37.8359375 104.44140625 C34.48883131 101.32431446 31.06985859 98.36418887 27.5 95.5 C22.73891522 91.68005989 18.28726975 87.61061181 13.8359375 83.44140625 C10.48883131 80.32431446 7.06985859 77.36418887 3.5 74.5 C-1.26108478 70.68005989 -5.71273025 66.61061181 -10.1640625 62.44140625 C-14.35294543 58.54038494 -18.71912947 54.92624951 -23.1875 51.34765625 C-26.40902702 48.65857606 -29.44843059 45.81562876 -32.5 42.9375 C-44.64086968 31.16481309 -44.64086968 31.16481309 -60.375 26.6875 C-71.52875863 27.09511244 -78.13905253 33.91049955 -86 41 Z M-100 287 C-100.886875 287.556875 -101.77375 288.11375 -102.6875 288.6875 C-107.92189176 293.92189176 -110.77761029 300.2469032 -111.12304783 307.62987995 C-111.12212604 308.57656135 -111.12120424 309.52324274 -111.12025452 310.49861145 C-111.12162918 311.59091064 -111.12300385 312.68320984 -111.12442017 313.80860901 C-111.12082489 314.9968779 -111.11722961 316.18514679 -111.11352539 317.40942383 C-111.11367142 318.66836456 -111.11381744 319.9273053 -111.1139679 321.22439575 C-111.11425436 324.66821906 -111.10838201 328.11200741 -111.10139394 331.55582261 C-111.09513529 335.15795606 -111.09455461 338.76009035 -111.09336853 342.36222839 C-111.09026262 349.1796433 -111.0820592 355.99704213 -111.07201904 362.81444997 C-111.05874296 372.02946226 -111.05335202 381.24447896 -111.04751682 390.45949841 C-111.03811882 404.97301097 -111.01819496 419.48648963 -111 434 C-77.67 434 -44.34 434 -10 434 C-9.91256208 411.29200779 -9.91256208 411.29200779 -9.85351562 388.58398438 C-9.83573137 379.32050582 -9.81485151 370.05710927 -9.77368164 360.79370117 C-9.74370899 354.04648269 -9.72440838 347.29933089 -9.71773452 340.55204767 C-9.71383552 336.98189595 -9.70472058 333.41193495 -9.68280983 329.84184456 C-9.65850492 325.84898672 -9.65803503 321.85645704 -9.65942383 317.86352539 C-9.648638 316.6896376 -9.63785217 315.51574982 -9.6267395 314.30628967 C-9.66229211 304.84226377 -11.16795476 296.02425112 -18 289 C-23.51705966 284.83251462 -28.0293416 282.88601676 -34.99682617 282.82299805 C-36.23208542 282.81016281 -37.46734467 282.79732758 -38.74003601 282.78410339 C-40.09100949 282.77593362 -41.44198754 282.76849034 -42.79296875 282.76171875 C-43.47528376 282.75764322 -44.15759876 282.7535677 -44.86058998 282.74936867 C-48.4748466 282.72852139 -52.08906544 282.71421612 -55.70336914 282.70483398 C-59.42113299 282.69379573 -63.13829398 282.65942296 -66.85584545 282.61966228 C-69.72735134 282.59340487 -72.59871584 282.58513396 -75.47033119 282.58155251 C-76.83976609 282.57670694 -78.20919554 282.56515124 -79.57851219 282.54651451 C-87.52320614 282.44514008 -93.22416469 282.68497213 -100 287 Z " fill="#FFFFFF" transform="translate(291,26)"/>
</svg>
