<?xml version="1.0" encoding="UTF-8"?>
<svg version="1.1" xmlns="http://www.w3.org/2000/svg" width="512" height="512">
<path d="M0 0 C53.47970563 -0.06865179 106.95940681 -0.12152151 160.43914783 -0.15319599 C166.75150552 -0.15694815 173.06386313 -0.16083112 179.3762207 -0.16479492 C181.26125274 -0.16597532 181.26125274 -0.16597532 183.18436623 -0.16717956 C203.53815818 -0.18023699 223.89192473 -0.2038927 244.2457016 -0.23145839 C265.12724263 -0.25950318 286.00877034 -0.2761743 306.89032942 -0.28226548 C319.7775617 -0.28638384 332.66472221 -0.29939604 345.5519324 -0.3237494 C354.3866195 -0.33959514 363.22126943 -0.34440298 372.05596971 -0.34050413 C377.15472982 -0.33858079 382.25336442 -0.34154979 387.35210228 -0.35761642 C392.02125695 -0.37222199 396.69020177 -0.37294802 401.35936613 -0.36269668 C403.04727167 -0.36142979 404.73519034 -0.36522974 406.42307007 -0.37464955 C422.61615387 -0.45975592 422.61615387 -0.45975592 430 3 C431.03284375 3.47202834 431.03284375 3.47202834 432.08655304 3.9535926 C433.93695425 4.82212908 435.74995606 5.74276818 437.5625 6.6875 C438.18962891 7.00783203 438.81675781 7.32816406 439.46289062 7.65820312 C440.97814795 8.43318206 442.48951872 9.21575296 444 10 C444 10.66 444 11.32 444 12 C444.5878125 12.25007812 445.175625 12.50015625 445.78125 12.7578125 C448.29341102 14.16426885 449.66645352 15.66640992 451.5 17.875 C453.27060045 19.99167235 454.94930961 21.95500736 457.015625 23.7890625 C459.62362469 26.69482593 460.88099602 29.90287221 462.25 33.5 C462.518125 34.16386719 462.78625 34.82773437 463.0625 35.51171875 C464.39942704 38.92906797 465 41.27902725 465 45 C465.66 45 466.32 45 467 45 C467.06864427 98.49672741 467.12151768 151.99345038 467.15319599 205.49021316 C467.15694818 211.80385962 467.16083114 218.11750601 467.16479492 224.43115234 C467.16558185 225.68810268 467.16636878 226.94505301 467.16717956 228.24009275 C467.18023878 248.60102678 467.20389547 268.96193543 467.23145839 289.3228544 C467.25949821 310.21004066 467.27617325 331.09721361 467.28226548 351.98441792 C467.28638487 364.87625949 467.29940267 377.76802936 467.3237494 390.65984887 C467.33958901 399.4963976 467.34440438 408.33290918 467.34050413 417.16947109 C467.33857983 422.27013253 467.34156066 427.37066853 467.35761642 432.47130775 C467.37220854 437.14102693 467.37295677 441.81053621 467.36269668 446.48026502 C467.36142848 448.16949865 467.36523983 449.85874535 467.37464955 451.54795325 C467.45567745 466.99204025 467.45567745 466.99204025 464 474 C463.64679688 475.00804687 463.29359375 476.01609375 462.9296875 477.0546875 C460.00788256 484.86781033 455.90265449 490.17126068 450 496 C448.93458984 497.12921875 448.93458984 497.12921875 447.84765625 498.28125 C446 500 446 500 444 500 C444 500.66 444 501.32 444 502 C441.85799177 503.11213798 439.71181908 504.21464637 437.5625 505.3125 C436.97017578 505.62123047 436.37785156 505.92996094 435.76757812 506.24804688 C433.8646569 507.21477156 431.9412723 508.11280334 430 509 C429.4212761 509.27116538 428.84255221 509.54233076 428.24629122 509.82171327 C420.42611274 512.94705624 412.20534018 512.40691956 403.93492126 512.36076355 C402.19061138 512.36207278 400.44630208 512.36470135 398.70199591 512.36853105 C393.92219144 512.37522493 389.14258942 512.36325843 384.36281073 512.34819686 C379.20341169 512.33522495 374.0440238 512.33962678 368.88461304 512.34190369 C359.9500299 512.34347569 351.01551256 512.3340741 342.08094597 512.31719017 C329.16311937 512.29279486 316.24532454 512.28499435 303.3274774 512.2812262 C282.36844672 512.27466255 261.4094511 512.25470373 240.45043945 512.22631836 C220.09236832 512.19877555 199.73430671 512.17754305 179.3762207 512.16479492 C178.12106008 512.16400675 176.86589945 512.16321858 175.57270365 512.16240653 C169.27584542 512.15849138 162.97898713 512.15470026 156.68212879 512.15097082 C104.4547283 512.11987762 52.22736586 512.06704417 0 512 C0 511.34 0 510.68 0 510 C-1.03125 509.979375 -2.0625 509.95875 -3.125 509.9375 C-9.93834438 509.15039884 -16.04298127 505.20440755 -22 502 C-22 501.34 -22 500.68 -22 500 C-22.5878125 499.74992187 -23.175625 499.49984375 -23.78125 499.2421875 C-26.29341102 497.83573115 -27.66645352 496.33359008 -29.5 494.125 C-31.27304584 492.00540429 -32.95266813 490.04194079 -35.0234375 488.20703125 C-37.60830616 485.32076486 -38.80215476 482.14258116 -40.125 478.5625 C-40.37636719 477.90701172 -40.62773438 477.25152344 -40.88671875 476.57617188 C-41.59790145 474.72002225 -42.29920954 472.86009811 -43 471 C-43.35312252 470.2484507 -43.70624504 469.49690139 -44.07006824 468.72257787 C-45.23875402 465.30099557 -45.24824664 462.4267186 -45.24609566 458.80984783 C-45.24840335 458.09327329 -45.25071103 457.37669875 -45.25308865 456.63840982 C-45.25839373 454.23082643 -45.2494004 451.8235091 -45.24050903 449.41593933 C-45.241381 447.67508246 -45.24313181 445.93422585 -45.24568737 444.19337064 C-45.25016671 439.40457131 -45.24214912 434.61586118 -45.23213124 429.82707322 C-45.22350752 424.66487702 -45.22641614 419.50268599 -45.22793579 414.34048462 C-45.22898532 405.39493299 -45.22270157 396.4494105 -45.21146011 387.5038662 C-45.19521735 374.57005768 -45.18999836 361.63626327 -45.18748413 348.70244566 C-45.18310511 327.71902154 -45.16979037 306.73561295 -45.15087891 285.75219727 C-45.13252548 265.36678139 -45.11836634 244.98136973 -45.10986328 224.59594727 C-45.10933783 223.33973574 -45.10881239 222.08352422 -45.10827102 220.78924569 C-45.10566097 214.48730489 -45.10313355 208.18536406 -45.10064721 201.88342321 C-45.07990825 149.58893807 -45.04467707 97.29446979 -45 45 C-44.34 45 -43.68 45 -43 45 C-42.9071875 43.63875 -42.9071875 43.63875 -42.8125 42.25 C-41.16510196 31.37717296 -35.66308093 23.56712106 -28 16 C-27.28972656 15.2471875 -26.57945313 14.494375 -25.84765625 13.71875 C-24 12 -24 12 -22 12 C-22 11.34 -22 10.68 -22 10 C-7.40318907 2.14806378 -7.40318907 2.14806378 0 2 C0 1.34 0 0.68 0 0 Z M13 58 C13 188.68 13 319.36 13 454 C143.68 454 274.36 454 409 454 C409 323.32 409 192.64 409 58 C278.32 58 147.64 58 13 58 Z " fill="#FFFFFF" transform="translate(45,0)"/>
<path d="M0 0 C2.90375628 0.32691296 3.86622947 0.847324 5.82421875 3.08203125 C6.43910156 3.98308594 7.05398438 4.88414062 7.6875 5.8125 C8.38230469 6.80894531 9.07710937 7.80539062 9.79296875 8.83203125 C10.52128906 9.87746094 11.24960937 10.92289062 12 12 C13.49124121 14.00653922 14.99125898 16.00658571 16.5 18 C19.41331577 21.86940394 22.28857455 25.76140531 25.125 29.6875 C28.64439319 34.54495951 32.28953796 39.2876283 36 44 C42.87811997 52.77000378 49.59414988 61.65547323 56.125 70.6875 C59.12162162 74.82569176 62.20614465 78.87877899 65.359375 82.8984375 C67.39018448 85.49980773 69.37041897 88.1361467 71.34375 90.78125 C72.5899846 92.45073408 73.8407598 94.11683018 75.09375 95.78125 C78.79440658 100.6985608 82.46667844 105.63041092 86.0625 110.625 C88.67133769 114.23683705 91.37225536 117.73434413 94.1875 121.1875 C97.08809322 124.75789753 99.56179446 128.39069674 101.921875 132.33203125 C103.34113534 134.52777098 105.12636647 136.18491752 107 138 C107.9637885 139.16626508 108.89990137 140.35575801 109.8125 141.5625 C110.25207031 142.14128906 110.69164062 142.72007812 111.14453125 143.31640625 C111.42683594 143.87199219 111.70914062 144.42757812 112 145 C111.67 145.99 111.34 146.98 111 148 C-1.2 148 -113.4 148 -229 148 C-229 143.39157056 -228.43775181 142.86286762 -225.5625 139.5 C-222.40938728 135.71737892 -219.37552235 131.89020018 -216.4375 127.9375 C-213.17781108 123.56309881 -209.87389574 119.23047573 -206.5078125 114.9375 C-205.44385746 113.57034534 -204.42115024 112.17060333 -203.4296875 110.75 C-202.95789063 110.1725 -202.48609375 109.595 -202 109 C-201.34 109 -200.68 109 -200 109 C-199.74347656 108.26910156 -199.48695313 107.53820312 -199.22265625 106.78515625 C-197.94085523 103.86527086 -196.4800707 101.87620563 -194.4375 99.4375 C-191.34139186 95.66832487 -188.35153623 91.84949385 -185.4375 87.9375 C-182.17781108 83.56309881 -178.87389574 79.23047573 -175.5078125 74.9375 C-174.44385746 73.57034534 -173.42115024 72.17060333 -172.4296875 70.75 C-171.95789063 70.1725 -171.48609375 69.595 -171 69 C-170.34 69 -169.68 69 -169 69 C-168.74734375 68.27425781 -168.4946875 67.54851562 -168.234375 66.80078125 C-166.91023671 63.79632823 -165.34833488 61.70468855 -163.25 59.1875 C-160.76854464 56.16601569 -158.32244037 53.14550303 -156 50 C-153.61765046 46.80608083 -151.20243713 43.64053101 -148.75 40.5 C-148.08484375 39.6440625 -147.4196875 38.788125 -146.734375 37.90625 C-146.16203125 37.2771875 -145.5896875 36.648125 -145 36 C-144.34 36 -143.68 36 -143 36 C-143 36.66 -143 37.32 -143 38 C-141.515 38.495 -141.515 38.495 -140 39 C-138.3515625 41.109375 -138.3515625 41.109375 -136.625 43.75 C-134.02486987 47.60103306 -131.33388242 50.75385133 -128 54 C-127.14622464 55.15179129 -126.31385246 56.31966118 -125.5 57.5 C-123.94716191 59.74943836 -122.51929291 61.48070709 -120.5625 63.4375 C-117.87469097 66.12530903 -115.73242597 68.95048445 -113.52734375 72.03515625 C-111.83702724 74.20965549 -109.95038944 76.05704061 -108 78 C-106.72781682 79.52341264 -105.47868688 81.06629392 -104.25 82.625 C-102.08540597 85.36736161 -99.91675868 88.10164502 -97.703125 90.8046875 C-96.97609375 91.69414062 -96.2490625 92.58359375 -95.5 93.5 C-94.8296875 94.3146875 -94.159375 95.129375 -93.46875 95.96875 C-92 98 -92 98 -92 100 C-91.4225 100.20625 -90.845 100.4125 -90.25 100.625 C-87.18589456 102.49750888 -85.84460032 104.96958519 -84 108 C-83.2265625 107.01 -83.2265625 107.01 -82.4375 106 C-80.5082714 103.6255648 -78.53565607 101.34331035 -76.5 99.0625 C-74.40432072 96.68918799 -72.46960676 94.34627661 -70.75 91.6875 C-69 89 -69 89 -67.66015625 87.6875 C-65.41414215 85.40449272 -63.59431886 82.88456482 -61.6875 80.3125 C-61.09038208 79.51066284 -61.09038208 79.51066284 -60.48120117 78.69262695 C-58.74429275 76.35954499 -57.01526305 74.0206992 -55.2890625 71.6796875 C-52.97679028 68.55995514 -50.63118236 65.53842657 -48.0625 62.625 C-44.85106536 58.97294636 -42.19634028 54.9926674 -39.515625 50.94140625 C-38.76539063 49.98041016 -38.76539063 49.98041016 -38 49 C-37.34 49 -36.68 49 -36 49 C-35.73574219 48.43667969 -35.47148437 47.87335938 -35.19921875 47.29296875 C-31.54868341 40.31295493 -26.35999324 34.06260017 -21.48046875 27.91015625 C-20.25148105 26.32447027 -19.11283571 24.66925357 -18 23 C-17.34 23 -16.68 23 -16 23 C-15.72800781 22.43152344 -15.45601562 21.86304688 -15.17578125 21.27734375 C-11.9659287 15.06025393 -8.00576947 9.8704784 -3 5 C-1.94712186 3.36622358 -0.9272999 1.70818403 0 0 Z " fill="#FFFFFF" transform="translate(315,251)"/>
</svg>
