<?xml version="1.0" encoding="UTF-8"?>
<svg version="1.1" xmlns="http://www.w3.org/2000/svg" width="512" height="512">
<path d="M0 0 C1.78082474 0.00214508 1.78082474 0.00214508 3.59762573 0.0043335 C22.11122643 0.05948125 39.60552277 1.03539268 57.625 5.5 C58.5521582 5.71930176 59.47931641 5.93860352 60.43457031 6.16455078 C81.45100705 11.24181156 102.76970149 18.86009982 121.625 29.5 C122.46869141 29.97308594 123.31238281 30.44617188 124.18164062 30.93359375 C133.90565317 36.42947681 143.46265051 42.11016452 152.5 48.6875 C153.44564819 49.37356323 153.44564819 49.37356323 154.41040039 50.07348633 C155.85809483 51.16086202 157.24894333 52.32327865 158.625 53.5 C158.625 54.16 158.625 54.82 158.625 55.5 C159.4603125 55.89251953 159.4603125 55.89251953 160.3125 56.29296875 C168.70858302 60.6753837 175.17868909 66.85669771 181.40844727 73.84521484 C183.99542792 76.74627119 186.55096915 79.46164275 189.5625 81.9375 C194.96536225 86.45826229 199.37047017 91.7364105 201.625 98.5 C202.615 98.83 203.605 99.16 204.625 99.5 C206.53571251 101.83531529 208.27983792 104.1540289 210 106.625 C210.52166748 107.36983643 211.04333496 108.11467285 211.58081055 108.88208008 C217.75404291 117.88811469 223.0567103 127.38402435 228.25488281 136.9765625 C229.36806172 139.02677939 230.50203782 141.06209497 231.6484375 143.09375 C250.01853723 177.24661147 257.4841799 217.80360026 257.1875 256.1875 C257.18357239 257.3622287 257.17964478 258.5369574 257.17559814 259.74728394 C257.08909178 278.1479999 256.06224277 295.59096807 251.625 313.5 C251.40569824 314.4271582 251.18639648 315.35431641 250.96044922 316.30957031 C245.88318844 337.32600705 238.26490018 358.64470149 227.625 377.5 C226.91537109 378.76553711 226.91537109 378.76553711 226.19140625 380.05664062 C220.69552319 389.78065317 215.01483548 399.33765051 208.4375 408.375 C207.98012451 409.00543213 207.52274902 409.63586426 207.05151367 410.28540039 C205.96413798 411.73309483 204.80172135 413.12394333 203.625 414.5 C202.965 414.5 202.305 414.5 201.625 414.5 C201.25375 415.304375 201.25375 415.304375 200.875 416.125 C196.13283446 425.13511453 189.22470062 432.29304021 181.49609375 438.81640625 C179.6666884 440.46248915 178.12692893 442.16609677 176.5625 444.0625 C171.71906157 449.91937527 165.92265849 455.06744717 158.625 457.5 C158.295 458.49 157.965 459.48 157.625 460.5 C155.28968471 462.41071251 152.9709711 464.15483792 150.5 465.875 C149.75516357 466.39666748 149.01032715 466.91833496 148.24291992 467.45581055 C139.23688531 473.62904291 129.74097565 478.9317103 120.1484375 484.12988281 C118.09822061 485.24306172 116.06290503 486.37703782 114.03125 487.5234375 C79.87838853 505.89353723 39.32139974 513.3591799 0.9375 513.0625 C-0.2372287 513.05857239 -1.4119574 513.05464478 -2.62228394 513.05059814 C-21.0229999 512.96409178 -38.46596807 511.93724277 -56.375 507.5 C-57.7657373 507.17104736 -57.7657373 507.17104736 -59.18457031 506.83544922 C-80.20100705 501.75818844 -101.51970149 494.13990018 -120.375 483.5 C-121.64053711 482.79037109 -121.64053711 482.79037109 -122.93164062 482.06640625 C-132.65565317 476.57052319 -142.21265051 470.88983548 -151.25 464.3125 C-151.88043213 463.85512451 -152.51086426 463.39774902 -153.16040039 462.92651367 C-154.60809483 461.83913798 -155.99894333 460.67672135 -157.375 459.5 C-157.375 458.84 -157.375 458.18 -157.375 457.5 C-157.91125 457.2525 -158.4475 457.005 -159 456.75 C-167.98477606 452.0211705 -175.14022216 445.14117596 -181.6328125 437.421875 C-183.40571138 435.46612108 -185.27016025 433.85633792 -187.3125 432.1875 C-192.78305829 427.56103176 -198.09006293 421.3548112 -200.375 414.5 C-201.365 414.17 -202.355 413.84 -203.375 413.5 C-205.28571251 411.16468471 -207.02983792 408.8459711 -208.75 406.375 C-209.27166748 405.63016357 -209.79333496 404.88532715 -210.33081055 404.11791992 C-222.89889782 385.78252896 -233.61906768 365.67871388 -240.9375 344.6875 C-241.17178711 344.02213226 -241.40607422 343.35676453 -241.64746094 342.67123413 C-244.8083846 333.65340734 -247.62953852 324.60816413 -249.875 315.3125 C-250.09357666 314.40846436 -250.31215332 313.50442871 -250.53735352 312.57299805 C-251.21805782 309.55829696 -251.80980183 306.53859637 -252.375 303.5 C-252.56775513 302.49048279 -252.56775513 302.49048279 -252.7644043 301.46057129 C-255.5152627 286.68994029 -255.93332273 272.12139516 -255.875 257.125 C-255.87356995 255.93778351 -255.87213989 254.75056702 -255.8706665 253.52737427 C-255.81551875 235.01377357 -254.83960732 217.51947723 -250.375 199.5 C-250.15569824 198.5728418 -249.93639648 197.64568359 -249.71044922 196.69042969 C-244.63318844 175.67399295 -237.01490018 154.35529851 -226.375 135.5 C-225.90191406 134.65630859 -225.42882812 133.81261719 -224.94140625 132.94335938 C-219.44552319 123.21934683 -213.76483548 113.66234949 -207.1875 104.625 C-206.50143677 103.67935181 -206.50143677 103.67935181 -205.80151367 102.71459961 C-204.71413798 101.26690517 -203.55172135 99.87605667 -202.375 98.5 C-201.715 98.5 -201.055 98.5 -200.375 98.5 C-200.11332031 97.943125 -199.85164063 97.38625 -199.58203125 96.8125 C-195.19865765 88.41458034 -189.01611405 81.93462099 -182.01879883 75.70996094 C-179.19114473 73.19264404 -176.59026018 70.74335605 -174.25 67.75 C-170.04125635 62.52446507 -163.74337938 57.62279313 -157.375 55.5 C-156.69015581 54.17591139 -156.02477445 52.84164652 -155.375 51.5 C-153.90820312 50.18237305 -153.90820312 50.18237305 -152.15625 49.01171875 C-151.48440674 48.56006348 -150.81256348 48.1084082 -150.12036133 47.64306641 C-149.37939209 47.16272949 -148.63842285 46.68239258 -147.875 46.1875 C-147.09471436 45.67622559 -146.31442871 45.16495117 -145.51049805 44.63818359 C-114.84710062 24.8311024 -114.84710062 24.8311024 -98.50244141 19.24707031 C-95.91234371 18.33753405 -93.35541057 17.35192225 -90.79296875 16.3671875 C-80.19208093 12.3453521 -69.58821333 8.79392951 -58.5625 6.125 C-57.63518066 5.89876953 -56.70786133 5.67253906 -55.75244141 5.43945312 C-52.63658272 4.7244964 -49.51571286 4.09701681 -46.375 3.5 C-45.6955835 3.36936157 -45.01616699 3.23872314 -44.31616211 3.10412598 C-29.55551139 0.34834049 -14.98669562 -0.05828501 0 0 Z M-56.375 45.5 C-57.2609082 45.77005859 -58.14681641 46.04011719 -59.05957031 46.31835938 C-68.82120469 49.33628242 -78.3242836 52.59057875 -87.48828125 57.140625 C-90.375 58.5 -90.375 58.5 -94.13671875 59.83984375 C-99.02387493 61.63602256 -103.39766841 64.17856416 -107.875 66.8125 C-108.67808594 67.27333984 -109.48117188 67.73417969 -110.30859375 68.20898438 C-114.98815703 70.93556946 -119.35265881 73.87587539 -123.64208984 77.1809082 C-125.66892053 78.72373241 -127.77749161 80.08903176 -129.9375 81.4375 C-133.57671479 83.83057821 -136.45889629 86.44999885 -139.4453125 89.6015625 C-141.70628342 91.8259185 -144.1300077 93.72967318 -146.625 95.6875 C-152.89468226 100.73424973 -158.08594907 106.46833662 -163.375 112.5 C-164.38240234 113.61955078 -164.38240234 113.61955078 -165.41015625 114.76171875 C-179.82505309 130.88739456 -192.58812406 150.58511564 -200.03125 170.88671875 C-200.98817578 173.45984766 -201.97767225 175.98721623 -203.03125 178.51953125 C-207.99239033 190.57036756 -211.30503742 202.84893619 -214.375 215.5 C-214.55297119 216.14936523 -214.73094238 216.79873047 -214.91430664 217.46777344 C-218.51084652 233.33295517 -217.94366107 251.29592 -217.375 267.5 C-217.33922852 268.52061523 -217.30345703 269.54123047 -217.26660156 270.59277344 C-216.19095244 296.41620382 -210.10290534 321.21270115 -198.76953125 344.47265625 C-197.72080969 346.74929268 -196.85640283 348.92336039 -196.03125 351.27734375 C-194.23554503 356.15802233 -191.6932775 360.52803716 -189.0625 365 C-188.60166016 365.80308594 -188.14082031 366.60617187 -187.66601562 367.43359375 C-184.93943054 372.11315703 -181.99912461 376.47765881 -178.6940918 380.76708984 C-177.15126759 382.79392053 -175.78596824 384.90249161 -174.4375 387.0625 C-172.04442179 390.70171479 -169.42500115 393.58389629 -166.2734375 396.5703125 C-164.0490815 398.83128342 -162.14532682 401.2550077 -160.1875 403.75 C-155.14075027 410.01968226 -149.40666338 415.21094907 -143.375 420.5 C-142.62863281 421.17160156 -141.88226563 421.84320313 -141.11328125 422.53515625 C-124.98760544 436.95005309 -105.28988436 449.71312406 -84.98828125 457.15625 C-82.41515234 458.11317578 -79.88778377 459.10267225 -77.35546875 460.15625 C-59.96632309 467.32371948 -42.13235275 471.99706955 -23.375 473.5 C-21.81072266 473.66435547 -21.81072266 473.66435547 -20.21484375 473.83203125 C16.93981396 477.42764329 54.91342165 472.30711804 88.59765625 455.89453125 C90.87429268 454.84580969 93.04836039 453.98140283 95.40234375 453.15625 C100.28302233 451.36054503 104.65303716 448.8182775 109.125 446.1875 C109.92808594 445.72666016 110.73117187 445.26582031 111.55859375 444.79101562 C116.23815703 442.06443054 120.60265881 439.12412461 124.89208984 435.8190918 C126.91892053 434.27626759 129.02749161 432.91096824 131.1875 431.5625 C134.82671479 429.16942179 137.70889629 426.55000115 140.6953125 423.3984375 C142.95628342 421.1740815 145.3800077 419.27032682 147.875 417.3125 C154.14468226 412.26575027 159.33594907 406.53166338 164.625 400.5 C165.29660156 399.75363281 165.96820313 399.00726563 166.66015625 398.23828125 C181.19529921 381.97808836 193.89303398 362.18184388 201.4140625 341.7265625 C202.53394811 338.74260922 203.77380138 335.85143636 205.0625 332.9375 C208.65892857 324.37187358 211.15484353 315.44256796 213.625 306.5 C213.94726562 305.33855469 214.26953125 304.17710937 214.6015625 302.98046875 C225.1306924 259.85357812 219.69733268 208.0895015 199.984375 168.38671875 C198.625 165.5 198.625 165.5 197.28515625 161.73828125 C195.48897744 156.85112507 192.94643584 152.47733159 190.3125 148 C189.85166016 147.19691406 189.39082031 146.39382812 188.91601562 145.56640625 C186.18943054 140.88684297 183.24912461 136.52234119 179.9440918 132.23291016 C178.40126759 130.20607947 177.03596824 128.09750839 175.6875 125.9375 C173.29442179 122.29828521 170.67500115 119.41610371 167.5234375 116.4296875 C165.2990815 114.16871658 163.39532682 111.7449923 161.4375 109.25 C156.39075027 102.98031774 150.65666338 97.78905093 144.625 92.5 C143.87863281 91.82839844 143.13226563 91.15679687 142.36328125 90.46484375 C126.10308836 75.92970079 106.30684388 63.23196602 85.8515625 55.7109375 C82.86760922 54.59105189 79.97643636 53.35119862 77.0625 52.0625 C69.2205057 48.76553423 61.07419016 46.44384632 52.89599609 44.14160156 C51.0468776 43.61918881 49.20404556 43.07456454 47.36328125 42.5234375 C15.7233393 33.97676832 -25.25899401 35.92396038 -56.375 45.5 Z " fill="#FFFFFF" transform="translate(255.375,-0.5)"/>
<path d="M0 0 C18.67733555 -0.04010881 18.67733555 -0.04010881 26.61132812 -0.04882812 C32.03459648 -0.05481633 37.45784803 -0.06191604 42.88110352 -0.07543945 C47.2512283 -0.08626914 51.62133508 -0.09227701 55.99147224 -0.09487724 C57.66250963 -0.09673135 59.33354597 -0.10035168 61.00457573 -0.10573006 C63.33697551 -0.11294159 65.66929993 -0.1139909 68.00170898 -0.11352539 C68.6994191 -0.11712067 69.39712921 -0.12071594 70.11598206 -0.12442017 C74.88594784 -0.11405216 74.88594784 -0.11405216 76 1 C76.09654727 2.88561518 76.12187241 4.77489455 76.12025452 6.66297913 C76.12231651 8.50774086 76.12231651 8.50774086 76.12442017 10.38977051 C76.12088056 11.76513696 76.11724574 13.14050317 76.11352539 14.51586914 C76.11324352 15.95442198 76.11340124 17.39297496 76.1139679 18.83152771 C76.11425589 22.74871143 76.10835884 26.66586479 76.10139394 30.58304143 C76.09516074 34.67233837 76.09455663 38.76163593 76.09336853 42.85093689 C76.09025511 50.59992398 76.08204159 58.34889703 76.07201904 66.09787792 C76.06085822 74.91756209 76.05534753 83.73724691 76.05032361 92.55693638 C76.03985898 110.70463384 76.02151337 128.85231205 76 147 C93.82 147 111.64 147 130 147 C130 159.54 130 172.08 130 185 C81.16 185 32.32 185 -18 185 C-18 172.46 -18 159.92 -18 147 C-0.18 147 17.64 147 36 147 C36 111.03 36 75.06 36 38 C24.12 38 12.24 38 0 38 C0 25.46 0 12.92 0 0 Z " fill="#FFFFFF" transform="translate(200,218)"/>
<path d="M0 0 C6.98841758 5.81682992 10.61060441 11.29099034 11.6484375 20.35546875 C12.03772797 30.19077788 9.57397644 37.3904246 2.92578125 44.64453125 C-4.0226057 50.99875684 -11.19590746 51.45848022 -20.2421875 51.35546875 C-28.53593578 50.86157138 -34.20352708 47.3240197 -39.71875 41.1484375 C-44.62519993 33.44234179 -45.43986083 26.18292605 -44.71875 17.1484375 C-43.06621226 9.93102871 -39.60012748 4.62495153 -33.71875 0.1484375 C-23.23783141 -6.38719234 -10.4350251 -7.10661192 0 0 Z " fill="#FFFFFF" transform="translate(272.71875,113.8515625)"/>
</svg>
