<?xml version="1.0" encoding="UTF-8"?>
<svg version="1.1" xmlns="http://www.w3.org/2000/svg" width="512" height="455">
<path d="M0 0 C3.93693816 2.51171542 5.93813672 4.61014532 7.96875 8.78515625 C9.29395503 9.46783763 10.62687182 10.13586035 11.96875 10.78515625 C12.29875 11.77515625 12.62875 12.76515625 12.96875 13.78515625 C14.29213632 14.47135656 15.62824948 15.13302086 16.96875 15.78515625 C20.34383827 18.35315819 23.11342035 20.87155737 25.78125 24.16015625 C28.08565937 26.95319692 30.50192655 29.0616427 33.40625 31.22265625 C37.25615892 34.093993 40.16445811 37.2030868 43.22265625 40.8828125 C45.00762141 42.82750609 46.81819314 44.26201713 48.96875 45.78515625 C52.58973757 48.35869339 55.21638336 51.24893451 58.0546875 54.64453125 C60.97723728 57.91301549 64.26784661 60.73039541 67.5546875 63.625 C69.64438046 65.49490324 71.63210597 67.40820446 73.59375 69.41015625 C75.9420389 71.8024412 78.36479517 74.03651161 80.90625 76.22265625 C84.49883242 79.3139481 87.81964345 82.60968665 91.13671875 85.9921875 C93.08954541 87.96601963 93.08954541 87.96601963 95.96875 90.16015625 C96.62875 90.69640625 97.28875 91.23265625 97.96875 91.78515625 C97.96875 92.44515625 97.96875 93.10515625 97.96875 93.78515625 C98.608125 94.05328125 99.2475 94.32140625 99.90625 94.59765625 C101.96875 95.78515625 101.96875 95.78515625 102.96875 98.78515625 C104.29213632 99.47135656 105.62824948 100.13302086 106.96875 100.78515625 C110.34383827 103.35315819 113.11342035 105.87155737 115.78125 109.16015625 C118.08565937 111.95319692 120.50192655 114.0616427 123.40625 116.22265625 C127.89074367 119.5879171 131.58488617 123.31424808 134.96875 127.78515625 C135.52175781 128.51347656 136.07476562 129.24179688 136.64453125 129.9921875 C138.46935828 133.84101147 138.37142872 137.14532803 138.28125 141.34765625 C138.28608398 142.47977539 138.28608398 142.47977539 138.29101562 143.63476562 C138.2229808 150.65472267 138.2229808 150.65472267 135.96875 153.78515625 C135.30875 154.11515625 134.64875 154.44515625 133.96875 154.78515625 C133.659375 155.44515625 133.35 156.10515625 133.03125 156.78515625 C131.96875 158.78515625 131.96875 158.78515625 128.96875 159.78515625 C127.32397325 161.44562626 127.32397325 161.44562626 125.71875 163.47265625 C122.478394 167.29091013 119.09683693 170.90965506 114.96875 173.78515625 C114.30875 173.78515625 113.64875 173.78515625 112.96875 173.78515625 C112.700625 174.42453125 112.4325 175.06390625 112.15625 175.72265625 C110.96875 177.78515625 110.96875 177.78515625 107.96875 178.78515625 C107.63875 179.44515625 107.30875 180.10515625 106.96875 180.78515625 C106.63875 181.44515625 106.30875 182.10515625 105.96875 182.78515625 C104.97875 183.11515625 103.98875 183.44515625 102.96875 183.78515625 C102.63875 184.77515625 102.30875 185.76515625 101.96875 186.78515625 C100.3671875 188.36328125 100.3671875 188.36328125 98.34375 190.03515625 C95.60015123 192.35891606 92.98203204 194.71396449 90.46875 197.28515625 C87.43042583 200.37872268 84.2210968 203.20621132 80.9375 206.03515625 C78.43239625 208.26191514 76.10531826 210.63696117 73.7578125 213.02734375 C71.21466514 215.52606932 68.51693897 217.83035766 65.81640625 220.15625 C64.25093754 221.5363778 62.75696085 222.9969454 61.28125 224.47265625 C58.96875 226.78515625 58.96875 226.78515625 56.59375 228.59765625 C53.59858069 231.09363068 51.20555914 233.86411343 48.671875 236.81640625 C42.91670539 243.46917112 42.91670539 243.46917112 38.96875 244.78515625 C37.25422658 246.47669369 37.25422658 246.47669369 35.59375 248.53515625 C27.85944808 257.60464292 27.85944808 257.60464292 22.96875 258.78515625 C22.26937468 260.10162744 21.60145867 261.43537776 20.96875 262.78515625 C19.97875 263.11515625 18.98875 263.44515625 17.96875 263.78515625 C17.63875 264.44515625 17.30875 265.10515625 16.96875 265.78515625 C16.63875 266.44515625 16.30875 267.10515625 15.96875 267.78515625 C14.97875 268.11515625 13.98875 268.44515625 12.96875 268.78515625 C12.68773437 269.37039063 12.40671875 269.955625 12.1171875 270.55859375 C10.52456712 273.64632715 8.29307898 275.24635098 5.59375 277.41015625 C4.63726562 278.18617188 3.68078125 278.9621875 2.6953125 279.76171875 C-2.11879971 283.33436936 -4.89263963 284.06109482 -10.96875 284.03515625 C-12.17402344 284.0403125 -13.37929688 284.04546875 -14.62109375 284.05078125 C-17.87248725 283.79752265 -20.11091971 283.18159502 -23.03125 281.78515625 C-23.03125 281.12515625 -23.03125 280.46515625 -23.03125 279.78515625 C-23.753125 279.62015625 -24.475 279.45515625 -25.21875 279.28515625 C-29.47463326 277.01535185 -31.31026124 274.27832824 -33.03125 269.78515625 C-33.71589546 264.34288389 -33.61481997 258.94356583 -33.51953125 253.47265625 C-33.51019246 251.89226404 -33.50308139 250.31185724 -33.49809265 248.73144531 C-33.47910627 244.59486114 -33.43007992 240.4591708 -33.37457275 236.32293701 C-33.32319805 232.09301847 -33.30053995 227.86295387 -33.27539062 223.6328125 C-33.22195104 215.34985266 -33.13674228 207.067616 -33.03125 198.78515625 C-55.60440221 199.30373823 -55.60440221 199.30373823 -78.09375 201.16015625 C-79.87338135 201.35859131 -79.87338135 201.35859131 -81.68896484 201.56103516 C-85.13848507 201.95331164 -88.58493797 202.36573931 -92.03125 202.78515625 C-93.02012207 202.90117187 -94.00899414 203.0171875 -95.02783203 203.13671875 C-109.62602633 204.87586294 -124.84782135 206.96676674 -138.03125 213.78515625 C-140.02864085 214.45959991 -142.02865102 215.12633779 -144.03125 215.78515625 C-153.69906638 220.0647763 -161.74840634 225.09771016 -169.03125 232.78515625 C-169.711875 233.44515625 -170.3925 234.10515625 -171.09375 234.78515625 C-186.67826349 250.87239598 -188.37144183 271.72062692 -188.1875 292.8671875 C-187.96821568 304.17677649 -186.76297668 315.19514705 -183.75 326.1171875 C-183.04737725 328.72529258 -182.51927915 331.31696431 -182.03125 333.97265625 C-181.42943398 337.1857418 -180.59036589 340.05436774 -179.40625 343.09765625 C-177.42206305 348.88572492 -177.04625565 354.75109636 -178.03125 360.78515625 C-179.98593027 364.38368079 -182.36133014 366.95019632 -186.03125 368.78515625 C-188.13178716 368.93417116 -190.23812825 369.00654078 -192.34375 369.03515625 C-193.47425781 369.0609375 -194.60476562 369.08671875 -195.76953125 369.11328125 C-199.33282168 368.7548185 -201.21364181 367.96311981 -204.03125 365.78515625 C-204.03125 365.12515625 -204.03125 364.46515625 -204.03125 363.78515625 C-204.753125 363.55828125 -205.475 363.33140625 -206.21875 363.09765625 C-209.61693303 361.5118375 -211.48355999 359.52392301 -214.03125 356.78515625 C-214.835625 356.00140625 -215.64 355.21765625 -216.46875 354.41015625 C-218.97867034 351.83901834 -221.29399732 349.17326667 -223.60546875 346.42578125 C-225.13409757 344.62087009 -225.13409757 344.62087009 -227.40625 342.47265625 C-229.03125 340.78515625 -229.03125 340.78515625 -229.03125 338.78515625 C-229.69125 338.78515625 -230.35125 338.78515625 -231.03125 338.78515625 C-232.52014833 336.87778955 -233.87888397 334.98147483 -235.21875 332.97265625 C-235.6202124 332.37880127 -236.0216748 331.78494629 -236.43530273 331.1730957 C-237.2551618 329.95511712 -238.07132518 328.73464277 -238.88378906 327.51171875 C-239.87954431 326.01342489 -240.88788102 324.52350722 -241.8984375 323.03515625 C-247.00642631 315.31432523 -251.03967176 307.11873618 -255.03125 298.78515625 C-255.4334375 297.96144531 -255.835625 297.13773437 -256.25 296.2890625 C-272.77261584 261.04525693 -272.01773627 218.03657538 -260.65625 181.34765625 C-257.08834051 171.72443034 -252.2745032 162.59382163 -247.03125 153.78515625 C-246.37125 153.78515625 -245.71125 153.78515625 -245.03125 153.78515625 C-244.78761719 153.07101563 -244.54398438 152.356875 -244.29296875 151.62109375 C-232.80085445 125.79052106 -199.46206353 110.91085079 -174.93164062 101.34448242 C-168.71296927 98.96590357 -162.54650877 97.17155203 -156.03125 95.78515625 C-154.62851232 95.46788249 -153.22619898 95.14872925 -151.82421875 94.828125 C-147.23216365 93.78575965 -142.63717403 92.76456474 -138.03125 91.78515625 C-136.4073938 91.4296167 -136.4073938 91.4296167 -134.75073242 91.06689453 C-125.62822485 89.14041735 -116.5534635 87.88134978 -107.2878418 86.90478516 C-104.96643991 86.65991257 -102.64630716 86.40500854 -100.32617188 86.1484375 C-84.22671036 84.38759898 -68.34747259 83.64588627 -52.15625 83.72265625 C-50.29296996 83.72768513 -48.4296886 83.73224556 -46.56640625 83.73632812 C-42.05465405 83.74721494 -37.54296715 83.76440171 -33.03125 83.78515625 C-33.04235306 82.90089966 -33.05345612 82.01664307 -33.06489563 81.10559082 C-33.16531452 72.74939805 -33.24132478 64.39340956 -33.29031086 56.03675079 C-33.31634249 51.74103435 -33.35162131 47.44581883 -33.40844727 43.15039062 C-33.46299896 39.00063697 -33.49271889 34.8513634 -33.50563622 30.70127869 C-33.51483482 29.12247669 -33.53279769 27.5436993 -33.55990028 25.96510315 C-33.82524978 9.86107086 -33.82524978 9.86107086 -28.03125 3.78515625 C-20.96909709 -3.1146312 -8.94431076 -3.58464001 0 0 Z " fill="#FFFFFF" transform="translate(374.03125,1.21484375)"/>
<path d="M0 0 C2.61024191 -0.00524105 5.22048193 -0.01151929 7.83071899 -0.01878357 C13.27898585 -0.030572 18.72703915 -0.02500751 24.17529297 -0.01000977 C30.45874057 0.00696384 36.74149606 -0.00901595 43.02486837 -0.04123265 C49.0995456 -0.0711885 55.17390693 -0.07310763 61.24864578 -0.06373405 C63.82183358 -0.06291487 66.39503586 -0.0697719 68.96818161 -0.08450508 C72.56052002 -0.10193431 76.15137358 -0.08742268 79.74365234 -0.06469727 C80.80144897 -0.07638947 81.85924561 -0.08808167 82.94909668 -0.10012817 C89.64598724 -0.0139823 93.21284701 0.94724467 98.1640625 5.56640625 C99.54169009 10.02278053 99.23254241 14.04679337 98.1640625 18.56640625 C96.02857924 21.54405193 93.37974391 22.89919912 90.1640625 24.56640625 C88.20324272 25.70797941 86.24504807 26.85406977 84.2890625 28.00390625 C83.26941406 28.58398438 82.24976563 29.1640625 81.19921875 29.76171875 C77.44255831 31.99540874 73.93017002 34.48892912 70.41796875 37.0859375 C68.1640625 38.56640625 68.1640625 38.56640625 65.4609375 39.6328125 C62.9955732 40.3715807 62.9955732 40.3715807 61.8515625 42.69140625 C61.6246875 43.31015625 61.3978125 43.92890625 61.1640625 44.56640625 C60.1740625 44.56640625 59.1840625 44.56640625 58.1640625 44.56640625 C57.8959375 45.20578125 57.6278125 45.84515625 57.3515625 46.50390625 C56.1640625 48.56640625 56.1640625 48.56640625 53.1640625 49.56640625 C52.6690625 50.55640625 52.6690625 50.55640625 52.1640625 51.56640625 C51.6690625 52.55640625 51.6690625 52.55640625 51.1640625 53.56640625 C49.6790625 54.06140625 49.6790625 54.06140625 48.1640625 54.56640625 C48.1640625 55.22640625 48.1640625 55.88640625 48.1640625 56.56640625 C32.99077155 65.67038082 12.85900842 59.56640625 -4.8359375 59.56640625 C-4.8359375 152.62640625 -4.8359375 245.68640625 -4.8359375 341.56640625 C88.5540625 341.56640625 181.9440625 341.56640625 278.1640625 341.56640625 C278.1640625 319.78640625 278.1640625 298.00640625 278.1640625 275.56640625 C279.1540625 274.57640625 280.1440625 273.58640625 281.1640625 272.56640625 C281.8240625 272.56640625 282.4840625 272.56640625 283.1640625 272.56640625 C283.1640625 271.90640625 283.1640625 271.24640625 283.1640625 270.56640625 C288.71340953 269.78755053 294.05656495 269.52123004 299.6640625 269.56640625 C309.41405174 269.78173146 309.41405174 269.78173146 318.7890625 267.50390625 C323.26348429 265.73768712 327.01560436 266.15469484 331.4765625 267.75390625 C334.70540687 269.93149896 335.09007178 270.87103524 336.1640625 274.56640625 C336.35675579 277.45354605 336.44769246 280.24327765 336.4387207 283.12939453 C336.4463871 284.40608757 336.4463871 284.40608757 336.45420837 285.70857239 C336.46808894 288.51802642 336.4671479 291.32723452 336.46484375 294.13671875 C336.46873323 296.09862356 336.47306842 298.06052753 336.47782898 300.02243042 C336.48528916 304.13640062 336.48500261 308.25028501 336.47973633 312.36425781 C336.47396032 317.61282467 336.49082841 322.8610365 336.514081 328.10954475 C336.52888522 332.16413395 336.52968066 336.21863914 336.52657127 340.27325058 C336.52708173 342.20676244 336.53226732 344.14027934 336.54238319 346.0737648 C336.61792725 362.54093636 335.24401493 377.17671145 323.1640625 389.56640625 C320.9140625 390.25390625 320.9140625 390.25390625 319.1640625 390.56640625 C318.8340625 391.55640625 318.5040625 392.54640625 318.1640625 393.56640625 C309.41263713 399.23089696 301.06619374 400.4372684 290.86317444 400.33503723 C289.46773382 400.34268606 288.07230551 400.35293953 286.6769008 400.36553878 C282.87927836 400.39230098 279.08255158 400.38216711 275.28490555 400.36541331 C271.17500954 400.35382765 267.0652799 400.37692326 262.95542908 400.39537048 C254.9185595 400.42581342 246.8820153 400.42388437 238.84511239 400.40991966 C232.30947117 400.39907718 225.77392318 400.39964561 219.23827934 400.40823936 C217.83987643 400.41005155 217.83987643 400.41005155 216.41322295 400.41190034 C214.5189771 400.41439114 212.62473128 400.41690213 210.73048549 400.41943308 C192.99142527 400.44168464 175.25254677 400.42646897 157.51350402 400.39884677 C142.3139746 400.37613204 127.11478195 400.3878087 111.9152832 400.42407227 C94.23871112 400.4662415 76.56234771 400.48529403 58.88572592 400.46904773 C56.99837112 400.46738818 55.11101628 400.46576483 53.22366142 400.46417809 C52.29519696 400.46339314 51.3667325 400.4626082 50.41013275 400.46179948 C43.88774552 400.45791848 37.36551263 400.47058888 30.84315681 400.48990822 C22.88661244 400.51310203 14.9305368 400.51130696 6.97402079 400.47799508 C2.91935783 400.46165892 -1.13449384 400.45624404 -5.18912888 400.48159409 C-8.90985318 400.50454224 -12.62905467 400.49447722 -16.34967119 400.45942219 C-18.31409331 400.4490584 -20.27860706 400.47265167 -22.24289364 400.49794799 C-31.71050979 400.35847333 -38.99683899 397.86512625 -46.8359375 392.56640625 C-47.3309375 391.08140625 -47.3309375 391.08140625 -47.8359375 389.56640625 C-48.4959375 389.23640625 -49.1559375 388.90640625 -49.8359375 388.56640625 C-51.8359375 387.56640625 -51.8359375 387.56640625 -52.8359375 384.56640625 C-53.4959375 384.56640625 -54.1559375 384.56640625 -54.8359375 384.56640625 C-57.5703125 379.87890625 -57.5703125 379.87890625 -58.8359375 377.56640625 C-59.51142608 376.48076008 -60.18691465 375.39511391 -60.88287258 374.27656937 C-63.79474906 368.38044368 -63.39213034 362.3406223 -63.3506012 355.89129639 C-63.35593155 354.50287904 -63.36300005 353.11446747 -63.37164825 351.72606683 C-63.39023874 347.92485379 -63.38398314 344.12403131 -63.37349522 340.32280231 C-63.36649274 336.2176646 -63.38250929 332.11260629 -63.39549255 328.00749207 C-63.41712202 319.96999649 -63.41700808 311.93264256 -63.40886701 303.89512745 C-63.40256293 297.35984249 -63.4037078 290.82459879 -63.41013908 284.28931427 C-63.41104074 283.35856613 -63.41194239 282.42781798 -63.41287137 281.46886535 C-63.41472262 279.57791739 -63.41658518 277.68696943 -63.41845893 275.79602149 C-63.43503446 258.06709699 -63.42632109 240.33825207 -63.40947335 222.60933235 C-63.39478448 206.40306284 -63.40939378 190.19697885 -63.43824352 173.99073324 C-63.46766558 157.33853906 -63.4786011 140.68643042 -63.46906132 124.0342114 C-63.4680388 122.14906138 -63.46704419 120.26391134 -63.4660778 118.37876129 C-63.46560141 117.45130458 -63.46512502 116.52384787 -63.4646342 115.5682864 C-63.46247335 109.04604812 -63.47225688 102.52389111 -63.48684883 96.00167084 C-63.5044011 88.04539793 -63.50421374 80.0893613 -63.48149718 72.13309756 C-63.4703798 68.07682692 -63.46713498 64.0209721 -63.48579788 59.96471977 C-63.50269242 56.24478597 -63.49613208 52.52562774 -63.47158109 48.80574337 C-63.46444262 46.83662736 -63.48165409 44.86746841 -63.49999243 42.89842486 C-63.36654614 30.08384624 -59.1962592 20.94697081 -50.3671875 11.91015625 C-36.11898519 -1.28262367 -18.2405517 -0.04457333 0 0 Z " fill="#FFFFFF" transform="translate(62.8359375,55.43359375)"/>
</svg>
