<?xml version="1.0" encoding="UTF-8"?>
<svg version="1.1" xmlns="http://www.w3.org/2000/svg" width="512" height="419">
<path d="M0 0 C0.67106964 -0.00205263 1.34213928 -0.00410527 2.03354436 -0.0062201 C4.28636542 -0.01188285 6.53912521 -0.01043375 8.79195213 -0.00901413 C10.42184945 -0.01159819 12.05174613 -0.01461146 13.68164194 -0.01801753 C18.16413485 -0.02608611 22.64661174 -0.02787703 27.12911105 -0.028615 C31.96227558 -0.03046581 36.79543181 -0.03801332 41.62859154 -0.04475021 C52.19894373 -0.0583333 62.76929212 -0.06435829 73.33965158 -0.06876087 C79.94015044 -0.07152347 86.54064784 -0.07576087 93.14114571 -0.08026505 C111.41666192 -0.09245794 129.69217695 -0.10275705 147.96769714 -0.10614014 C149.13742841 -0.1063597 150.30715968 -0.10657927 151.51233735 -0.10680549 C152.6848662 -0.10702377 153.85739505 -0.10724204 155.06545508 -0.10746694 C157.44144034 -0.1079104 159.81742561 -0.10835697 162.19341087 -0.10880661 C163.96126666 -0.10913875 163.96126666 -0.10913875 165.76483671 -0.10947761 C184.85922441 -0.11342509 203.95357393 -0.13087751 223.04794689 -0.15416613 C242.65274495 -0.17788424 262.25752387 -0.19034221 281.86233652 -0.19150805 C292.86931841 -0.19242458 303.87625057 -0.19817132 314.88321877 -0.21632767 C324.25659635 -0.23173486 333.62990884 -0.23684546 343.00329669 -0.22858956 C347.78437235 -0.2246852 352.56531692 -0.22560225 357.34637642 -0.23964691 C361.72739692 -0.25239854 366.10818802 -0.25117722 370.48920827 -0.2390562 C372.06999996 -0.23710139 373.65080798 -0.24016764 375.23157676 -0.24890056 C387.69808147 -0.31338421 398.03803165 1.58535814 409.23100853 7.13142776 C409.93612572 7.45498245 410.6412429 7.77853714 411.36772728 8.11189651 C427.2872926 16.02880782 439.35004154 31.86454499 445.02774292 48.4602524 C447.1927297 55.72370948 447.6582914 62.39535108 447.61868858 69.9457283 C447.62676689 71.81429298 447.62676689 71.81429298 447.63500839 73.72060645 C447.64677057 77.14830606 447.6452497 80.57551461 447.63784158 84.00319386 C447.63308752 87.71155441 447.64563944 91.41986419 447.65585899 95.12820816 C447.67300879 102.38154332 447.67389495 109.6347917 447.66864609 116.88814186 C447.66459596 122.78689973 447.66605793 128.68563207 447.67139435 134.58438873 C447.67214277 135.42563012 447.67289119 136.26687152 447.67366229 137.13360507 C447.67519386 138.8428787 447.6767322 140.55215231 447.67827726 142.26142593 C447.69198852 158.27166016 447.68657432 174.28184546 447.67509205 190.29207857 C447.66516146 204.91962821 447.67809976 219.54705132 447.70202624 234.17458145 C447.72644417 249.21660068 447.73601847 264.25856105 447.72937351 279.30059969 C447.72588723 287.73657004 447.72807421 296.17244313 447.74562454 304.60839844 C447.76038028 311.78976904 447.76093811 318.97097388 447.74355363 326.15234135 C447.7350688 329.81176363 447.73283177 333.47089022 447.74820518 337.13029671 C447.76470832 341.10806739 447.74984214 345.08538687 447.73221397 349.06315994 C447.74181898 350.20452892 447.75142399 351.34589789 447.76132005 352.5218538 C447.59786113 370.53504009 439.75719637 386.6931207 427.20757103 399.28767776 C415.09919098 411.00397694 399.56927317 419.24501243 382.46201706 419.26285553 C381.79094742 419.26490816 381.11987778 419.2669608 380.4284727 419.26907563 C378.17565163 419.27473838 375.92289185 419.27328928 373.67006493 419.27186966 C372.04016761 419.27445371 370.41027093 419.27746699 368.78037512 419.28087306 C364.29788221 419.28894164 359.81540532 419.29073255 355.33290601 419.29147053 C350.49974148 419.29332134 345.66658525 419.30086885 340.83342552 419.30760574 C330.26307333 419.32118883 319.69272494 419.32721382 309.12236547 419.3316164 C302.52186662 419.334379 295.92136922 419.3386164 289.32087135 419.34312057 C271.04535514 419.35531347 252.76984011 419.36561258 234.49431992 419.36899567 C232.73972301 419.36932502 232.73972301 419.36932502 230.94967971 419.36966102 C229.77715086 419.3698793 228.60462201 419.37009757 227.39656198 419.37032247 C225.02057671 419.37076593 222.64459145 419.3712125 220.26860619 419.37166214 C218.50075039 419.37199428 218.50075039 419.37199428 216.69718035 419.37233314 C197.60279265 419.37628062 178.50844313 419.39373304 159.41407017 419.41702166 C139.80927211 419.44073977 120.20449319 419.45319774 100.59968054 419.45436358 C89.59269865 419.45528011 78.58576649 419.46102685 67.57879829 419.4791832 C58.2054207 419.49459039 48.83210822 419.49970099 39.45872037 419.49144509 C34.67764471 419.48754073 29.89670014 419.48845778 25.11564064 419.50250244 C20.73462014 419.51525407 16.35382904 419.51403275 11.97280879 419.50191173 C10.3920171 419.49995692 8.81120908 419.50302317 7.2304403 419.51175609 C-5.24094848 419.57626501 -15.56975716 417.67039925 -26.76899147 412.13142776 C-27.80926491 411.66349808 -27.80926491 411.66349808 -28.87055397 411.18611526 C-44.84265142 403.34526743 -56.88979471 387.35287931 -62.56915909 370.7991699 C-64.73127825 363.53722837 -65.196263 356.86534288 -65.15667152 349.31712723 C-65.16205706 348.07141744 -65.1674426 346.82570765 -65.17299134 345.54224908 C-65.18475351 342.11454947 -65.18323264 338.68734092 -65.17582452 335.25966167 C-65.17107046 331.55130112 -65.18362238 327.84299134 -65.19384193 324.13464737 C-65.21099173 316.88131221 -65.21187789 309.62806383 -65.20662903 302.37471367 C-65.2025789 296.4759558 -65.20404087 290.57722346 -65.20937729 284.6784668 C-65.21012571 283.83722541 -65.21087413 282.99598401 -65.21164523 282.12925046 C-65.2131768 280.41997683 -65.21471514 278.71070322 -65.2162602 277.0014296 C-65.22997146 260.99119537 -65.22455726 244.98101007 -65.21307499 228.97077696 C-65.2031444 214.34322732 -65.2160827 199.71580421 -65.24000918 185.08827408 C-65.26442711 170.04625485 -65.27400141 155.00429448 -65.26735646 139.96225584 C-65.26387017 131.52628549 -65.26605715 123.0904124 -65.28360748 114.65445709 C-65.29836322 107.47308649 -65.29892105 100.29188165 -65.28153657 93.11051418 C-65.27305174 89.4510919 -65.27081472 85.79196531 -65.28618813 82.13255882 C-65.30269126 78.15478814 -65.28782508 74.17746866 -65.27019691 70.19969559 C-65.27980192 69.05832661 -65.28940693 67.91695764 -65.299303 66.74100173 C-65.13584407 48.72781544 -57.29517931 32.56973483 -44.74555397 19.97517776 C-32.63717392 8.25887859 -17.10725611 0.0178431 0 0 Z M-8.64399147 53.00642776 C-9.40453835 53.70509964 -10.16508522 54.40377151 -10.94867897 55.12361526 C-12.98015466 57.09338084 -12.98015466 57.09338084 -13.76899147 60.13142776 C-8.96959833 63.98649586 -4.17215161 67.58528666 1.09428978 70.77205276 C3.5777687 72.3520357 5.92577679 74.07023372 8.29350853 75.81892776 C12.72842442 79.08805909 17.2545399 82.16795887 21.85600853 85.19392776 C26.85009748 88.48111271 31.66668512 91.87102691 36.30132103 95.65877151 C38.51336856 97.34691305 40.83732405 98.71430781 43.23100853 100.13142776 C48.50966848 103.68956886 53.65762034 107.43385254 58.79350853 111.19392776 C62.79850647 114.11892626 66.85895497 116.92020401 71.00053978 119.64705276 C74.20312496 121.7783704 77.34342027 123.99503385 80.48882103 126.20955276 C83.03635041 127.99500071 85.59584748 129.76218087 88.1587429 131.52547073 C92.92105607 134.80401372 97.62031807 138.13814857 102.21904564 141.64387894 C104.23682923 143.13573131 106.29161027 144.53839421 108.38335228 145.92439651 C109.17241966 146.44783646 109.96148705 146.9712764 110.77446556 147.51057816 C113.14965765 149.0777517 115.52773484 150.64043861 117.90678978 152.20174026 C119.4523627 153.21996943 120.99793561 154.2381986 122.54350853 155.25642776 C123.32790306 155.76818558 124.11229759 156.27994339 124.92046165 156.80720901 C128.74282641 159.33380186 132.06476552 161.79012805 135.23100853 165.13142776 C136.11788353 165.56455276 137.00475853 165.99767776 137.91850853 166.44392776 C141.61333295 168.32619681 144.54901415 170.6393134 147.78178978 173.21345901 C150.36489899 175.2362766 152.99515485 177.16710473 155.66850853 179.06892776 C156.49221947 179.6554512 157.3159304 180.24197464 158.16460228 180.84627151 C160.10849033 182.30746839 160.10849033 182.30746839 162.23100853 182.13142776 C162.23100853 182.79142776 162.23100853 183.45142776 162.23100853 184.13142776 C163.11401634 184.55037308 163.99702415 184.96931839 164.90678978 185.40095901 C167.99504064 187.00859137 170.63301715 188.74139788 173.41850853 190.81892776 C174.36339134 191.51115433 175.30827415 192.20338089 176.28178978 192.91658401 C178.2798056 194.41708066 180.25606843 195.94690792 182.21147728 197.50252151 C183.16667259 198.24631058 184.1218679 198.99009964 185.10600853 199.75642776 C186.40151634 200.7967012 186.40151634 200.7967012 187.72319603 201.85799026 C190.17176174 203.44256741 190.17176174 203.44256741 192.82475853 202.50642776 C194.97856398 201.2756818 196.91056315 200.04050144 198.85600853 198.50642776 C199.53663353 197.98177933 200.21725853 197.45713089 200.91850853 196.91658401 C201.68163353 196.32748245 202.44475853 195.73838089 203.23100853 195.13142776 C205.0997455 193.72722058 206.97501397 192.33167239 208.85600853 190.94392776 C209.73514915 190.29037308 210.61428978 189.63681839 211.52007103 188.96345901 C214.32350166 187.0689216 217.17598653 185.57830768 220.23100853 184.13142776 C220.23100853 183.47142776 220.23100853 182.81142776 220.23100853 182.13142776 C220.73761009 181.90197464 221.24421165 181.67252151 221.76616478 181.43611526 C225.22380978 179.60591965 228.42150261 177.43379439 231.66850853 175.25642776 C232.65174095 174.60480667 232.65174095 174.60480667 233.65483665 173.94002151 C236.53579476 172.01552994 239.30496818 170.07221849 242.01225853 167.90486526 C244.23100853 166.13142776 244.23100853 166.13142776 247.29350853 164.63142776 C250.21904402 163.3368273 250.21904402 163.3368273 251.96928978 161.33845901 C254.84052885 158.53664541 257.99798855 156.49280386 261.35600853 154.31892776 C262.70812193 153.43044265 264.05968397 152.5411179 265.41069603 151.65095901 C266.06650658 151.21992874 266.72231712 150.78889847 267.39800072 150.34480667 C273.19425887 146.50791229 278.82052534 142.43726782 284.41850853 138.31892776 C289.46945654 134.62398711 294.65274495 131.16199481 299.87407494 127.71565628 C303.89243367 125.05348069 307.79502555 122.29273481 311.61772728 119.35408401 C314.07490352 117.4918657 316.65836855 115.82937015 319.23100853 114.13142776 C324.47531195 110.52074806 329.65706845 106.83133415 334.79350853 103.06892776 C338.7802002 100.15579122 342.82843948 97.38197403 346.95366478 94.67049026 C349.40875716 93.01130262 351.78630985 91.26860213 354.16850853 89.50642776 C359.96219505 85.24950632 365.93911504 81.28731329 371.94951439 77.34383011 C375.86611099 74.76233029 379.59935704 72.10951674 383.23100853 69.13142776 C384.37569603 68.45080276 384.37569603 68.45080276 385.54350853 67.75642776 C389.30740833 65.48058138 392.74334302 62.80559313 396.23100853 60.13142776 C393.92685599 55.52312269 390.69056643 51.74109498 386.23100853 49.13142776 C381.6256327 48.31524244 377.18849213 48.00625439 372.51709557 48.00558662 C371.19771838 48.00297888 369.8783412 48.00037113 368.51898289 47.99768436 C367.06662736 47.99984612 365.61427198 48.00210276 364.16191673 48.00444412 C362.60993889 48.00329138 361.05796131 48.00170283 359.50598431 47.99971688 C355.24831488 47.99554461 350.99066788 47.99760477 346.73299837 48.0007031 C342.13853269 48.00296552 337.54407086 47.99947338 332.94960594 47.99672318 C323.95181889 47.99227554 314.95404019 47.99323749 305.95625281 47.99613582 C298.64383548 47.99839379 291.33142049 47.99870066 284.01900291 47.997612 C282.45815341 47.99738215 282.45815341 47.99738215 280.86577159 47.99714766 C278.75191045 47.99682793 276.6380493 47.99650372 274.52418816 47.99617507 C254.70045494 47.99332322 234.87672635 47.99660267 215.05299389 48.00197543 C198.04169177 48.0064432 181.03039647 48.00566719 164.01909447 48.00105667 C144.2665041 47.9957057 124.51391778 47.99359789 104.76132679 47.99666893 C102.65522258 47.99698749 100.54911836 47.99730186 98.44301414 47.997612 C96.8886308 47.99784341 96.8886308 47.99784341 95.30284578 47.9980795 C87.99883922 47.99894308 80.69483524 47.99748518 73.39082909 47.99513245 C64.49024421 47.99232846 55.58966816 47.99308539 46.68908429 47.99841319 C42.14751592 48.00104209 37.60596226 48.00206896 33.064394 47.99876404 C28.90701324 47.99578444 24.74966083 47.99742171 20.59228265 48.00274159 C19.08833989 48.00385865 17.58439474 48.00329032 16.08045352 48.0008658 C14.03527783 47.99782166 11.99009544 48.00154434 9.94492149 48.00558662 C8.24130219 48.00583015 8.24130219 48.00583015 6.50326633 48.0060786 C0.19410653 48.24776124 -3.96008426 48.58183722 -8.64399147 53.00642776 Z M-16.76899147 117.13142776 C-16.81463331 146.93285597 -16.85001943 176.73428301 -16.87112213 206.53573865 C-16.87362349 210.05542805 -16.87621214 213.57511738 -16.87885475 217.09480667 C-16.87937937 217.79550266 -16.87990399 218.49619865 -16.88044451 219.21812785 C-16.8891431 230.55825478 -16.90491006 241.89836139 -16.92329706 253.23847628 C-16.94201131 264.8776418 -16.95296176 276.51679548 -16.95716846 288.15597534 C-16.95977638 294.69218564 -16.96590844 301.22834989 -16.98045158 307.76454544 C-16.99403021 313.91712314 -16.99821351 320.06963584 -16.99520683 326.2222271 C-16.99575687 328.47967571 -16.9997326 330.7371265 -17.00740242 332.99456215 C-17.01736793 336.07908202 -17.01495436 339.16335718 -17.0095005 342.24788284 C-17.01532619 343.13895296 -17.02115187 344.03002308 -17.02715409 344.94809532 C-17.00143972 350.33704465 -16.27718508 354.95244755 -14.76899147 360.13142776 C-14.10899147 360.13142776 -13.44899147 360.13142776 -12.76899147 360.13142776 C-12.50473366 360.72568558 -12.24047585 361.31994339 -11.96821022 361.93220901 C-10.72240646 364.2168589 -9.5171683 365.59586532 -7.58149147 367.31892776 C-6.75584694 368.0826973 -6.75584694 368.0826973 -5.91352272 368.86189651 C-1.2522012 371.62133093 4.65720706 371.25651304 9.94492149 371.25726891 C11.92398727 371.26118053 11.92398727 371.26118053 13.94303417 371.26517117 C15.3953897 371.26300941 16.84774508 371.26075277 18.30010033 371.25841141 C19.85207817 371.25956415 21.40405575 371.2611527 22.95603275 371.26313865 C27.21370218 371.26731092 31.47134918 371.26525076 35.72901869 371.26215243 C40.32348437 371.25989001 44.9179462 371.26338215 49.51241112 371.26613235 C58.51019816 371.27057999 67.50797687 371.26961804 76.50576425 371.26671971 C83.81818158 371.26446174 91.13059657 371.26415487 98.44301414 371.26524353 C100.00386365 371.26547338 100.00386365 371.26547338 101.59624547 371.26570787 C103.71010661 371.2660276 105.82396776 371.26635181 107.9378289 371.26668046 C127.76156211 371.26953231 147.58529071 371.26625286 167.40902317 371.2608801 C184.42032529 371.25641233 201.43162059 371.25718834 218.44292259 371.26179886 C238.19551296 371.26714983 257.94809928 371.26925764 277.70069027 371.26618659 C279.80679448 371.26586804 281.9128987 371.26555367 284.01900291 371.26524353 C285.57338626 371.26501212 285.57338626 371.26501212 287.15917128 371.26477603 C294.46317784 371.26391245 301.76718182 371.26537035 309.07118797 371.26772308 C317.97177285 371.27052707 326.8723489 371.26977014 335.77293277 371.26444234 C340.31450114 371.26181344 344.8560548 371.26078657 349.39762306 371.26409149 C353.55500382 371.26707109 357.71235622 371.26543382 361.86973441 371.26011394 C363.37367717 371.25899688 364.87762232 371.25956521 366.38156354 371.26198973 C368.42673922 371.26503387 370.47192161 371.26131119 372.51709557 371.25726891 C373.65284177 371.25710655 374.78858797 371.2569442 375.95875072 371.25677693 C382.32154091 371.01303989 386.44785034 370.65636192 391.16850853 366.19392776 C391.94065697 365.48365433 392.7128054 364.77338089 393.50835228 364.04158401 C395.45424837 362.31259064 395.45424837 362.31259064 395.23100853 360.13142776 C395.89100853 360.13142776 396.55100853 360.13142776 397.23100853 360.13142776 C399.00936113 354.02474964 399.51297419 348.58890127 399.47151756 342.24788284 C399.47322641 341.28141264 399.47493526 340.31494244 399.4766959 339.31918526 C399.47997746 336.09636659 399.46900904 332.87375835 399.45805931 329.65095901 C399.45749491 327.33453756 399.45781232 325.01811574 399.45894432 322.70169449 C399.4595177 316.4234114 399.44776565 310.14520486 399.43379641 303.86693954 C399.42128669 297.30194869 399.42011835 290.73695604 399.41774559 284.17195511 C399.41257048 273.15631662 399.3997483 262.14070493 399.38188744 251.12508011 C399.36351426 239.78165705 399.3493648 228.43824162 399.34087181 217.09480667 C399.34034636 216.3949645 399.33982092 215.69512233 399.33927955 214.97407281 C399.33666937 211.46298119 399.33414198 207.95188952 399.33165574 204.44079781 C399.31094052 175.33765624 399.27558088 146.23454238 399.23100853 117.13142776 C397.50109981 118.22530722 395.77211537 119.32064842 394.04350853 120.41658401 C393.08057884 121.02639114 392.11764915 121.63619827 391.12553978 122.26448441 C384.93228694 126.2590698 378.97835638 130.57826421 373.04350853 134.94392776 C366.25970815 139.9031867 359.24488798 144.50708077 352.23100853 149.13142776 C351.24100853 149.79142776 350.25100853 150.45142776 349.23100853 151.13142776 C349.23100853 151.79142776 349.23100853 152.45142776 349.23100853 153.13142776 C348.52975853 153.37892776 347.82850853 153.62642776 347.10600853 153.88142776 C343.86074378 155.29241244 341.10742331 157.1028645 338.23100853 159.13142776 C336.626892 160.25649925 335.02272068 161.38149262 333.41850853 162.50642776 C332.14427025 163.40554886 332.14427025 163.40554886 330.84428978 164.32283401 C327.56656006 166.59127775 324.21835656 168.74149346 320.84819603 170.86970901 C320.31452415 171.2860762 319.78085228 171.70244339 319.23100853 172.13142776 C319.23100853 172.79142776 319.23100853 173.45142776 319.23100853 174.13142776 C317.89102806 174.51234573 317.89102806 174.51234573 316.52397728 174.90095901 C313.16724055 176.15525566 311.23413494 177.49375146 308.54350853 179.81892776 C304.1099735 183.51354029 299.51096301 186.60069275 294.57866478 189.58845901 C292.25733196 190.99925638 292.25733196 190.99925638 290.69194603 192.67830276 C288.90061614 194.46005335 287.03642607 195.41531925 284.79350853 196.56892776 C281.34755366 198.41973901 278.95452451 200.31399744 276.23100853 203.13142776 C274.2622153 204.1915472 272.26664986 205.20613625 270.23100853 206.13142776 C270.23100853 206.79142776 270.23100853 207.45142776 270.23100853 208.13142776 C269.50526634 208.39439651 268.77952415 208.65736526 268.03178978 208.92830276 C265.18412062 210.15156929 262.93300823 211.57781247 260.41850853 213.38142776 C259.55096947 214.00146683 258.6834304 214.62150589 257.78960228 215.26033401 C254.84502161 217.41369912 251.92860668 219.60162239 249.02007103 221.80330276 C246.49004404 223.68148874 243.86056405 225.39592112 241.23100853 227.13142776 C235.98670511 230.74210747 230.80494861 234.43152138 225.66850853 238.19392776 C221.610729 241.15856782 217.49626855 243.99821272 213.29350853 246.75252151 C211.3124382 248.07698709 209.39700685 249.46507556 207.48100853 250.88142776 C201.44106121 255.06292976 195.20929599 256.72193303 187.85991478 255.85017776 C180.0850294 254.27684514 174.57642129 250.80791301 168.47710228 245.85017776 C166.15152114 244.07060263 163.75222471 242.61749454 161.23100853 241.13142776 C155.95234858 237.57328667 150.80439672 233.82900299 145.66850853 230.06892776 C141.67112345 227.14948923 137.61880221 224.35284203 133.48491478 221.63142776 C127.96862057 217.96027182 122.57105693 214.11587203 117.23100853 210.19392776 C114.56309313 207.94258482 114.56309313 207.94258482 112.23100853 208.13142776 C112.23100853 207.47142776 112.23100853 206.81142776 112.23100853 206.13142776 C110.18184643 204.71062332 110.18184643 204.71062332 107.60600853 203.31892776 C104.51127501 201.52930754 101.62252425 199.78598862 98.91850853 197.44392776 C96.43185938 195.30425291 94.03956779 193.8016065 91.23100853 192.13142776 C89.57502181 191.00031797 87.92921659 189.85416934 86.29350853 188.69392776 C85.42854759 188.08549026 84.56358665 187.47705276 83.67241478 186.85017776 C82.46391869 185.99939651 82.46391869 185.99939651 81.23100853 185.13142776 C77.56255956 182.23194478 77.56255956 182.23194478 73.23100853 181.13142776 C72.90100853 180.14142776 72.57100853 179.15142776 72.23100853 178.13142776 C69.57016884 176.13746519 66.61858528 174.13142776 63.23100853 174.13142776 C63.23100853 173.47142776 63.23100853 172.81142776 63.23100853 172.13142776 C61.60211953 170.77669594 61.60211953 170.77669594 59.46928978 169.45174026 C58.679739 168.9348262 57.89018822 168.41791214 57.07671165 167.88533401 C56.24075462 167.34779495 55.40479759 166.81025589 54.54350853 166.25642776 C49.60441981 163.05206239 44.77323159 159.89109554 40.23100853 156.13142776 C36.97943653 153.83128745 36.97943653 153.83128745 33.23100853 153.13142776 C33.23100853 152.47142776 33.23100853 151.81142776 33.23100853 151.13142776 C30.96982791 149.48227336 28.70974751 147.95055626 26.35600853 146.44392776 C24.97006398 145.53848527 23.58464799 144.63223321 22.19975853 143.72517776 C21.51913353 143.28174026 20.83850853 142.83830276 20.13725853 142.38142776 C14.42387474 138.63494659 8.89534122 134.68941521 3.54350853 130.44392776 C0.52976525 128.0688236 -2.44867555 126.03985781 -5.83027077 124.23616409 C-8.12435983 122.92892911 -10.29679619 121.48362478 -12.48774147 120.01033401 C-13.29147194 119.47094193 -14.09520241 118.93154984 -14.92328835 118.37581253 C-15.53237038 117.96516556 -16.14145241 117.55451859 -16.76899147 117.13142776 Z " fill="#FFFFFF" transform="translate(64.76899147033691,-0.13142776489257813)"/>
</svg>
