<?xml version="1.0" encoding="UTF-8"?>
<svg version="1.1" xmlns="http://www.w3.org/2000/svg" width="512" height="512">
<path d="M0 0 C0 0.66 0 1.32 0 2 C0.70125 2.185625 1.4025 2.37125 2.125 2.5625 C6.04135028 4.52067514 8.5338864 7.40676231 11 11 C11 11.66 11 12.32 11 13 C11.99 13.33 12.98 13.66 14 14 C23.2056654 26.47580444 21.37444221 44.55718004 19.62939453 59.08544922 C18.79820156 64.54982486 17.67687007 69.94140047 16.52587891 75.34570312 C15.61731235 79.93155994 15.0018922 84.55614876 14.375 89.1875 C13.66033336 94.39821598 12.94235735 99.5855006 11.9375 104.75 C11.07865985 109.20611325 10.55704597 113.67934951 10.0625 118.1875 C9.36214959 124.54848728 8.34953396 130.77643022 7.10571289 137.05175781 C6.08013996 142.31873804 5.38589129 147.60142075 4.76953125 152.92993164 C4.18751457 157.82400018 3.39251618 162.65357086 2.5 167.5 C1.3681414 173.65167952 0.49332222 179.77751383 -0.23266602 185.99145508 C-0.89032252 191.4634516 -1.82606869 196.86053725 -2.82202148 202.27978516 C-4.04584621 209.03271633 -4.99856746 215.81598874 -5.94287109 222.61279297 C-6.56155458 227.03347853 -7.21854651 231.4278979 -8.0625 235.8125 C-8.87929529 240.06385254 -9.43031097 244.32778182 -9.9375 248.625 C-10.68057233 254.89142831 -11.68129686 261.0730631 -12.82177734 267.27832031 C-14.04575326 274.03245592 -14.99914246 280.8168731 -15.94287109 287.61499023 C-16.55831512 292.0153744 -17.21380477 296.38717607 -18.0625 300.75 C-18.92134335 305.20612985 -19.44272944 309.67936741 -19.9375 314.1875 C-20.62661649 320.42118454 -21.60046951 326.53081327 -22.82177734 332.68701172 C-24.10669129 339.279249 -25.0235049 345.91291544 -25.94287109 352.56445312 C-26.55716324 356.98216311 -27.20929287 361.37064778 -28.0625 365.75 C-28.92134015 370.20611325 -29.44295403 374.67934951 -29.9375 379.1875 C-30.63834687 385.55299638 -31.65304733 391.78497178 -32.89648438 398.06494141 C-33.76930795 402.55077211 -34.41152463 407.01956232 -34.9375 411.5625 C-37.64434796 433.71936029 -40.03104653 451.65188891 -56.8125 467.6875 C-69.82992824 477.13151657 -84.17298898 478.68914734 -99.875 476.25 C-103.96574782 475.40199096 -107.33949632 474.07212779 -110.98828125 472.06640625 C-113.99346584 470.47336665 -117.14058497 469.30104778 -120.3046875 468.0625 C-126.26914784 465.71129244 -132.16481378 463.18732418 -138.078125 460.7109375 C-146.56924465 457.16208493 -155.09157502 453.72475442 -163.6875 450.4375 C-168.88296447 448.44438614 -173.99159897 446.35349612 -179.06640625 444.0703125 C-183.78135015 441.95473767 -188.52621847 439.96637874 -193.33203125 438.06640625 C-196.23394181 436.90649178 -199.11734774 435.70694915 -202 434.5 C-207.31167964 432.27762626 -212.6467162 430.11999513 -218 428 C-218 428.66 -218 429.32 -218 430 C-218.66 430 -219.32 430 -220 430 C-220.35578125 431.04800781 -220.35578125 431.04800781 -220.71875 432.1171875 C-222.2376783 435.53477618 -224.21609271 438.16630192 -226.5 441.125 C-228.74662565 444.04998988 -230.95398459 446.93097688 -233 450 C-233.66 450 -234.32 450 -235 450 C-235.2578125 450.71542969 -235.515625 451.43085938 -235.78125 452.16796875 C-237.07384765 455.17160111 -238.6277709 457.63505372 -240.5 460.3125 C-241.41265625 461.63701172 -241.41265625 461.63701172 -242.34375 462.98828125 C-243.16359375 463.98408203 -243.16359375 463.98408203 -244 465 C-244.66 465 -245.32 465 -246 465 C-246.103125 465.598125 -246.20625 466.19625 -246.3125 466.8125 C-247.09911856 469.31537724 -248.13545831 470.21314755 -250 472 C-250.33 472.99 -250.66 473.98 -251 475 C-251.66 475 -252.32 475 -253 475 C-253.37125 475.804375 -253.37125 475.804375 -253.75 476.625 C-255.30652537 479.5823982 -257.03435673 482.29724051 -259 485 C-259.66 485 -260.32 485 -261 485 C-261.061875 485.556875 -261.12375 486.11375 -261.1875 486.6875 C-263.72355567 493.90550461 -273.4285944 499.45637599 -279.9375 502.875 C-291.81064142 507.53944841 -308.10543137 507.09196377 -319.9375 502.5625 C-321.64763968 501.75461436 -323.34383306 500.91343746 -325 500 C-325.66 499.67 -326.32 499.34 -327 499 C-327 498.34 -327 497.68 -327 497 C-327.680625 496.814375 -328.36125 496.62875 -329.0625 496.4375 C-336.80836118 492.64697219 -341.01995954 485.35629769 -345 478 C-345.49960739 477.10700447 -345.49960739 477.10700447 -346.00930786 476.19596863 C-350.78054947 465.62003239 -349.25948701 451.79830991 -349.1953125 440.48046875 C-349.19157437 438.52606858 -349.18873119 436.57166652 -349.18673706 434.61726379 C-349.17916351 429.51608957 -349.15957021 424.41503235 -349.1373291 419.31390381 C-349.11673413 414.09144676 -349.10770638 408.86897048 -349.09765625 403.64648438 C-349.07631737 393.43093866 -349.04225885 383.21547912 -349 373 C-349.67546875 372.80591553 -350.3509375 372.61183105 -351.046875 372.41186523 C-351.93890625 372.15091064 -352.8309375 371.88995605 -353.75 371.62109375 C-354.63171875 371.36513428 -355.5134375 371.1091748 -356.421875 370.84545898 C-359.45415535 369.85106629 -362.14668903 368.51285266 -364.96044922 367.02783203 C-367.1464139 365.92621469 -369.35502145 365.01320817 -371.6328125 364.1171875 C-372.51227539 363.76954346 -373.39173828 363.42189941 -374.29785156 363.0637207 C-375.63541504 362.53717896 -375.63541504 362.53717896 -377 362 C-378.64356389 361.3458925 -380.28680059 360.69096223 -381.9296875 360.03515625 C-382.73849365 359.71264893 -383.5472998 359.3901416 -384.38061523 359.05786133 C-391.67504847 356.14708475 -398.95109071 353.20520392 -406.1875 350.15234375 C-410.45058375 348.4056636 -414.76832322 346.80674062 -419.08984375 345.2109375 C-422 344 -422 344 -424.359375 342.53515625 C-428.49191251 340.13266033 -432.97575282 338.83723923 -437.49804688 337.33789062 C-441.93606955 335.82936095 -446.05785271 334.05843995 -450.22045898 331.90356445 C-452.38763515 330.80317771 -454.60049521 329.91642308 -456.875 329.0625 C-462.08751685 327.03091346 -467.03794404 324.57604607 -472 322 C-472 321.34 -472 320.68 -472 320 C-472.639375 319.896875 -473.27875 319.79375 -473.9375 319.6875 C-474.9584375 319.3471875 -474.9584375 319.3471875 -476 319 C-476.495 317.515 -476.495 317.515 -477 316 C-478.32271977 315.31251571 -479.65740339 314.64780905 -481 314 C-488.86202854 306.15807895 -492.59237336 295.30361493 -492.74414062 284.40771484 C-492.71610352 282.782771 -492.71610352 282.782771 -492.6875 281.125 C-492.68041016 279.99400879 -492.67332031 278.86301758 -492.66601562 277.69775391 C-492.42261566 268.68030321 -490.71411666 261.71656001 -486 254 C-485.34 254 -484.68 254 -484 254 C-483.77183594 253.27683594 -483.54367187 252.55367188 -483.30859375 251.80859375 C-479.23267242 243.06057156 -468.67277116 236.60388802 -460 233 C-459.01 233 -458.02 233 -457 233 C-457 232.34 -457 231.68 -457 231 C-455.71086513 230.32845067 -454.41859796 229.66291141 -453.125 229 C-452.40570313 228.62875 -451.68640625 228.2575 -450.9453125 227.875 C-449 227 -449 227 -447 227 C-447 226.34 -447 225.68 -447 225 C-445.92363281 224.443125 -444.84726562 223.88625 -443.73828125 223.3125 C-435.63345489 219.0885561 -427.74037938 214.71805173 -420.00390625 209.84765625 C-416.19715807 207.50618435 -412.28402343 205.40288321 -408.34375 203.296875 C-405.85078588 201.96449213 -405.85078588 201.96449213 -403.0625 200 C-400.14747759 198.09631189 -397.24767087 196.59459695 -394.125 195.0625 C-388.17360463 192.13836144 -382.6664078 188.87860549 -377.25 185.0625 C-374.37461765 183.23773813 -371.56219312 181.78688928 -368.5 180.3125 C-363.01724085 177.63264765 -357.96351805 174.53959332 -352.89648438 171.15942383 C-349.36830616 168.81710551 -345.79713181 166.86613311 -342 165 C-338.88461997 163.16995915 -335.79489847 161.30180624 -332.70703125 159.42578125 C-330 158 -330 158 -327 158 C-327 157.34 -327 156.68 -327 156 C-326.13955078 155.54173828 -326.13955078 155.54173828 -325.26171875 155.07421875 C-313.83922144 148.92097665 -302.59370769 142.41472435 -291.5 135.6875 C-288.31643446 133.75873052 -285.0915454 131.94908935 -281.8125 130.1875 C-277.29228466 127.75157066 -272.88982631 125.16038374 -268.5 122.5 C-263.36015091 119.38523216 -258.1716706 116.42912543 -252.87109375 113.59375 C-249.37670606 111.65400826 -245.9742935 109.5804981 -242.5625 107.5 C-237.04172011 104.13413229 -231.45259867 101.12285064 -225.5859375 98.38671875 C-222.91701996 97.05780218 -222.91701996 97.05780218 -220.5390625 95.01953125 C-217.81982611 92.85669246 -215.12804336 91.49776659 -212 90 C-210.09496544 88.91178524 -208.19921593 87.80717453 -206.3125 86.6875 C-202.28781275 84.31768415 -198.23886855 82.0237745 -194.125 79.8125 C-190.26423796 77.727246 -186.62768309 75.47342029 -183 73 C-178.76860663 70.44757694 -174.41927314 68.20963657 -170 66 C-164.78229525 63.05170587 -159.60660052 60.03253897 -154.4375 57 C-153.70853516 56.57460938 -152.97957031 56.14921875 -152.22851562 55.7109375 C-148.97371639 53.8008303 -145.79572483 51.87965442 -142.72265625 49.6875 C-140 48 -140 48 -136 48 C-136 47.34 -136 46.68 -136 46 C-134.71086513 45.32845067 -133.41859796 44.66291141 -132.125 44 C-131.40570313 43.62875 -130.68640625 43.2575 -129.9453125 42.875 C-128 42 -128 42 -126 42 C-126 41.34 -126 40.68 -126 40 C-125.32195312 39.63648438 -124.64390625 39.27296875 -123.9453125 38.8984375 C-119.25193792 36.36323517 -114.60759092 33.79356808 -110.0625 31 C-106.41539105 28.77926434 -102.70853623 26.81819343 -98.875 24.9375 C-93.01047633 22.05786851 -87.58696902 18.82263727 -82.25 15.0625 C-79.26418639 13.16765675 -76.29552561 11.61995118 -73.125 10.0625 C-67.18023309 7.14161824 -61.62734507 3.95523354 -56.3125 0 C-39.00574778 -10.44935983 -17.19654587 -10.96105037 0 0 Z M-38.875 48.125 C-44.57674501 51.61964002 -50.34465475 54.74693502 -56.36328125 57.671875 C-59.37219269 59.18747484 -62.1842821 60.8923313 -65.01171875 62.71875 C-71.83200361 67.11374693 -78.89493476 71.08956297 -86 75 C-89.33042767 76.8494793 -92.59938041 78.72685028 -95.75 80.875 C-98.44317684 82.63592332 -101.10678741 84.16970285 -103.9375 85.6875 C-109.33734209 88.5837116 -114.57177704 91.71182318 -119.78491211 94.9284668 C-123.10417818 96.95452381 -126.3347192 98.68997568 -130 100 C-130 100.66 -130 101.32 -130 102 C-130.84175781 102.24234375 -131.68351562 102.4846875 -132.55078125 102.734375 C-136.40556902 104.14881581 -139.72512366 106.08523013 -143.1875 108.25 C-144.51588481 109.06420293 -145.84532007 109.87669443 -147.17578125 110.6875 C-147.82498535 111.08324219 -148.47418945 111.47898437 -149.14306641 111.88671875 C-153.34593326 114.4064496 -157.68069526 116.68825943 -162 119 C-168.03273336 122.2594076 -168.03273336 122.2594076 -173.8125 125.9375 C-176.77443401 127.85404554 -179.71145772 129.38542419 -182.875 130.9375 C-188.82639537 133.86163856 -194.3335922 137.12139451 -199.75 140.9375 C-202.73581361 142.83234325 -205.70447439 144.38004882 -208.875 145.9375 C-214.82639537 148.86163856 -220.3335922 152.12139451 -225.75 155.9375 C-229.7150642 158.45379074 -233.85662324 160.4288769 -238.09765625 162.4375 C-241.02395049 163.89430113 -241.02395049 163.89430113 -243.37109375 165.9375 C-246.10029087 168.07868288 -248.75855514 169.46577121 -251.86816406 170.95996094 C-255.4484188 172.70662667 -258.90450825 174.67162753 -262.375 176.625 C-263.08527344 177.01945313 -263.79554688 177.41390625 -264.52734375 177.8203125 C-268.51896929 180.05994393 -268.51896929 180.05994393 -272 183 C-274.125 183.625 -274.125 183.625 -276 184 C-276 184.66 -276 185.32 -276 186 C-279.33333333 187.33333333 -282.66666667 188.66666667 -286 190 C-286 190.66 -286 191.32 -286 192 C-286.804375 192.226875 -287.60875 192.45375 -288.4375 192.6875 C-296.30192304 195.58491901 -303.35827669 200.37623827 -310.50756836 204.70141602 C-313.54175605 206.53606916 -316.58533067 208.34539367 -319.66796875 210.09765625 C-322.37591293 211.64369237 -325.03543407 213.23655089 -327.6875 214.875 C-331.42038528 217.13063996 -335.20949426 219.14177903 -339.125 221.0625 C-345.09046092 223.99169427 -350.55842176 227.3556718 -356.0625 231.0625 C-361.19049276 234.4447931 -366.50835603 237.25417802 -372 240 C-376.99151133 242.81916655 -381.93696555 245.71345044 -386.875 248.625 C-387.60605957 249.05522461 -388.33711914 249.48544922 -389.09033203 249.92871094 C-392.8964576 252.16894813 -396.69992327 254.41358 -400.5 256.6640625 C-407.44536662 260.7720256 -414.40184575 264.8135484 -421.51171875 268.6328125 C-424.96474751 270.53008105 -428.32779227 272.56519339 -431.6953125 274.609375 C-434.76626779 276.46235819 -437.87768616 278.23521392 -441 280 C-438.53881623 282.86723766 -436.05056212 283.99459826 -432.5625 285.375 C-430.95568359 286.02082031 -430.95568359 286.02082031 -429.31640625 286.6796875 C-427.67478516 287.33324219 -427.67478516 287.33324219 -426 288 C-423.99840318 288.82949057 -421.99836033 289.66274231 -420 290.5 C-418.515 291.11875 -418.515 291.11875 -417 291.75 C-406 296.33333333 -395 300.91666667 -384 305.5 C-383.01257813 305.91121094 -382.02515625 306.32242187 -381.0078125 306.74609375 C-378.9811553 307.59097292 -376.95512549 308.43735842 -374.9296875 309.28515625 C-365.27850853 313.32087943 -355.58292294 317.18469869 -345.78515625 320.8515625 C-343 322 -343 322 -340 324 C-336.8484326 324.4371529 -335.47135097 324.31256253 -332.796875 322.5390625 C-331.78367187 321.59160156 -331.78367187 321.59160156 -330.75 320.625 C-330.06421875 319.99851562 -329.3784375 319.37203125 -328.671875 318.7265625 C-326.9198876 317.09054407 -326.9198876 317.09054407 -326 315 C-325.13375 314.5978125 -325.13375 314.5978125 -324.25 314.1875 C-321.2628581 312.61095289 -319.36967772 310.40723745 -317 308 C-309.58763347 300.99117205 -301.94359923 294.40115278 -294 288 C-291.80528052 286.21699794 -289.6195139 284.42351838 -287.4375 282.625 C-286.44621094 281.81289063 -285.45492187 281.00078125 -284.43359375 280.1640625 C-281.85201666 278.05228887 -281.85201666 278.05228887 -280 275 C-279.01 274.67 -278.02 274.34 -277 274 C-275.2979598 272.3694741 -273.63653531 270.69626287 -272 269 C-270.07165601 267.1966659 -268.1379314 265.40395453 -266.1875 263.625 C-265.65906494 263.14240723 -265.13062988 262.65981445 -264.58618164 262.16259766 C-257.70103004 255.88924965 -250.66895809 249.86550639 -243.41796875 244.015625 C-241.49254561 242.41058729 -239.74551173 240.79001486 -238 239 C-236.9260163 238.03120027 -235.84155186 237.07396176 -234.75 236.125 C-234.0590625 235.52429688 -233.368125 234.92359375 -232.65625 234.3046875 C-231.7796875 233.54414063 -230.903125 232.78359375 -230 232 C-228.7603229 230.91937839 -227.52074786 229.8386397 -226.28125 228.7578125 C-224.93760731 227.58841836 -223.59385638 226.41914857 -222.25 225.25 C-221.59999023 224.68297363 -220.94998047 224.11594727 -220.28027344 223.53173828 C-217.75119524 221.33529595 -215.26742068 219.19247476 -212.546875 217.234375 C-211.78117187 216.62335938 -211.78117187 216.62335938 -211 216 C-211 215.34 -211 214.68 -211 214 C-209.9171875 213.6596875 -209.9171875 213.6596875 -208.8125 213.3125 C-205.43417673 211.73594914 -203.56203262 209.69013425 -201 207 C-199.33333333 205.66666667 -197.66666667 204.33333333 -196 203 C-195.278125 202.278125 -194.55625 201.55625 -193.8125 200.8125 C-187.23757091 194.23757091 -180.23047751 188.26013288 -172.8359375 182.62890625 C-172.23007812 182.09136719 -171.62421875 181.55382812 -171 181 C-171 180.34 -171 179.68 -171 179 C-170.278125 178.773125 -169.55625 178.54625 -168.8125 178.3125 C-165.43417673 176.73594914 -163.56203262 174.69013425 -161 172 C-160.071875 171.278125 -159.14375 170.55625 -158.1875 169.8125 C-157.465625 169.214375 -156.74375 168.61625 -156 168 C-156 167.34 -156 166.68 -156 166 C-155.45859375 165.7628125 -154.9171875 165.525625 -154.359375 165.28125 C-151.36749863 163.65652243 -148.88840601 161.6498123 -146.25 159.5 C-145.26515625 158.7059375 -144.2803125 157.911875 -143.265625 157.09375 C-142.51796875 156.4028125 -141.7703125 155.711875 -141 155 C-141 154.34 -141 153.68 -141 153 C-140.45472656 152.76152344 -139.90945313 152.52304688 -139.34765625 152.27734375 C-136.40886317 150.67836648 -134.01295103 148.69644514 -131.4375 146.5625 C-130.48746094 145.78003906 -129.53742188 144.99757813 -128.55859375 144.19140625 C-126.08650314 142.1464046 -126.08650314 142.1464046 -124.34765625 140.27734375 C-121.54738258 137.62317131 -118.26542705 137.83743443 -114.625 137.8125 C-113.68914062 137.79832031 -112.75328125 137.78414063 -111.7890625 137.76953125 C-107.41422217 138.13103766 -104.79358291 139.1383957 -101.8125 142.375 C-98.44849146 147.24701236 -97.00202902 150.96019645 -98 157 C-100.33435788 163.47159038 -104.12881645 168.73944465 -108.43359375 174.0390625 C-110.19671754 176.24626485 -111.60672996 178.54519088 -113 181 C-114.0828125 182.5778125 -114.0828125 182.5778125 -115.1875 184.1875 C-117.18056711 186.72253373 -117.18056711 186.72253373 -117 189 C-117.99 189.33 -118.98 189.66 -120 190 C-120.95371243 191.60087443 -121.89609133 193.20968537 -122.77734375 194.8515625 C-125.75836891 200.08978563 -129.49334971 204.90417324 -133.0078125 209.79296875 C-133.64460938 210.68628906 -134.28140625 211.57960937 -134.9375 212.5 C-135.52402344 213.3146875 -136.11054688 214.129375 -136.71484375 214.96875 C-138.1782218 216.8810772 -138.1782218 216.8810772 -138 219 C-138.66 219 -139.32 219 -140 219 C-141.05653484 220.63141409 -142.04147328 222.30914095 -143 224 C-144.55183115 226.41672786 -146.15325329 228.8002666 -147.75 231.1875 C-148.18957031 231.84733887 -148.62914062 232.50717773 -149.08203125 233.18701172 C-152.17173348 237.80917924 -155.34710521 242.36021627 -158.625 246.8515625 C-160.11247012 249.00676643 -160.11247012 249.00676643 -161 251.7109375 C-161.33 252.46632813 -161.66 253.22171875 -162 254 C-162.99 254.33 -163.98 254.66 -165 255 C-165.95371243 256.60087443 -166.89609133 258.20968537 -167.77734375 259.8515625 C-170.19872078 264.10637837 -173.16284705 268.01603997 -176 272 C-177.16823077 273.6655707 -178.3349153 275.33222707 -179.5 277 C-181.23413403 279.47954131 -182.9700821 281.95761062 -184.71484375 284.4296875 C-187.85701141 288.88999806 -190.92998413 293.38510781 -193.9375 297.9375 C-197.23937109 302.93214321 -200.7220043 307.75436026 -204.3359375 312.52734375 C-205.97136843 314.95745591 -207.02481749 317.24683323 -208 320 C-208.66 320 -209.32 320 -210 320 C-211.48407987 322.09766076 -212.84714966 324.18783267 -214.1875 326.375 C-215.00758559 327.68195024 -215.82920772 328.98793757 -216.65234375 330.29296875 C-217.05565918 330.93411621 -217.45897461 331.57526367 -217.87451172 332.23583984 C-219.78370119 335.22842186 -221.84016325 338.110224 -223.89453125 341.00390625 C-226.9488645 345.35023946 -229.94063251 349.73891758 -232.9375 354.125 C-233.53014648 354.99213623 -234.12279297 355.85927246 -234.73339844 356.75268555 C-236.15603748 358.83482475 -237.57825316 360.91725152 -239 363 C-236.01350849 366.37757969 -233.48703663 367.83383874 -229.25 369.3125 C-224.0117849 371.22159077 -218.90673865 373.29765831 -213.8125 375.5625 C-208.71412048 377.82009612 -203.60449596 380.00324992 -198.4140625 382.04296875 C-193.58096709 383.95900172 -188.7956968 385.99264091 -184 388 C-180.9991198 389.25101629 -177.9977817 390.50092309 -174.99609375 391.75 C-173.00756679 392.57963315 -171.02056678 393.41293627 -169.03515625 394.25 C-164.13446403 396.31073786 -159.22390057 398.30993488 -154.25 400.1875 C-144.74154749 403.80922012 -135.38430098 407.80692844 -126.00268555 411.74267578 C-122.90511919 413.03972975 -119.80428922 414.32876243 -116.703125 415.6171875 C-112.38783623 417.41367357 -108.09514368 419.25230276 -103.8125 421.125 C-98.60303667 423.3683649 -93.41544839 425.3193436 -88 427 C-86.56603161 421.66873164 -85.60300799 416.49862935 -85.0625 411 C-84.44837311 405.27150495 -83.6291627 399.64932676 -82.5 394 C-81.40673956 388.51406651 -80.59777024 383.06166956 -80 377.5 C-79.32658071 371.24019679 -78.32921712 365.12104405 -77.10546875 358.94702148 C-76.2080927 354.33833828 -75.5403336 349.72709418 -75 345.0625 C-74.28405327 338.89769533 -73.29972409 332.82346714 -72.17797852 326.72045898 C-70.95427413 319.96742367 -70.001444 313.18409375 -69.05712891 306.38720703 C-68.43844542 301.96652147 -67.78145349 297.5721021 -66.9375 293.1875 C-66.12070471 288.93614746 -65.56968903 284.67221818 -65.0625 280.375 C-64.31942767 274.10857169 -63.31870314 267.9269369 -62.17822266 261.72167969 C-60.95424674 254.96754408 -60.00085754 248.1831269 -59.05712891 241.38500977 C-58.44168488 236.9846256 -57.78619523 232.61282393 -56.9375 228.25 C-56.07865745 223.79387429 -55.55721591 219.32063638 -55.0625 214.8125 C-54.37652543 208.60107553 -53.40124849 202.51849863 -52.17822266 196.38549805 C-50.8557566 189.59313318 -49.96120856 182.75099909 -49.09008789 175.88793945 C-48.41363074 170.6543984 -47.52500072 165.52417822 -46.45288086 160.35791016 C-45.7851295 156.8812834 -45.41721817 153.39489569 -45.0625 149.875 C-44.37213578 143.5145952 -43.35664658 137.29490239 -42.10571289 131.02319336 C-41.16260347 126.17793153 -40.52448237 121.34452153 -40 116.4375 C-39.42300193 111.04892482 -38.62378945 105.80990515 -37.5 100.5 C-36.23156825 94.50031782 -35.41989232 88.56884421 -34.77172852 82.48095703 C-34.21275436 77.39423455 -33.39007411 72.40167797 -32.4375 67.375 C-30.97273213 59.59212174 -30.33395347 51.91124259 -30 44 C-33.40146559 44 -36.05362487 46.36848558 -38.875 48.125 Z M-299 394 C-299 413.8 -299 433.6 -299 454 C-291.61479345 444.76849181 -284.6909536 435.25733691 -277.98632812 425.52441406 C-277.49712891 424.82155273 -277.00792969 424.11869141 -276.50390625 423.39453125 C-276.06892822 422.76393799 -275.6339502 422.13334473 -275.18579102 421.48364258 C-274 420 -274 420 -272 419 C-270.97388051 417.34928604 -269.97691857 415.68029994 -269 414 C-268.443125 413.29875 -267.88625 412.5975 -267.3125 411.875 C-265.71326883 409.9718389 -265.71326883 409.9718389 -266 407 C-267.43279297 406.43732422 -267.43279297 406.43732422 -268.89453125 405.86328125 C-275.83908422 403.11935352 -282.70342696 400.31566012 -289.4375 397.078125 C-292.52401426 395.77953058 -295.78027023 394.91992279 -299 394 Z " fill="#FFFFFF" transform="translate(492,7)"/>
</svg>
