<?xml version="1.0" encoding="UTF-8"?>
<svg version="1.1" xmlns="http://www.w3.org/2000/svg" width="511" height="512">
<path d="M0 0 C1.18888824 -0.00698914 2.37777649 -0.01397827 3.60269165 -0.0211792 C18.4808897 -0.0697005 32.53970314 1.00049114 47.09005737 4.15454102 C50.29673963 4.8333493 53.51993718 5.38138516 56.75 5.9375 C63.32317986 7.26970349 69.7067727 9.12329342 76.125 11.0625 C77.08011475 11.3510083 78.03522949 11.6395166 79.01928711 11.93676758 C87.0858508 14.43704524 94.99889818 17.27556566 102.5 21.1875 C105.23456063 22.58875001 107.91099908 23.87528143 110.75 25.0625 C132.85214995 34.75642542 152.38828554 49.70517072 170.3125 65.625 C170.82828613 66.08148926 171.34407227 66.53797852 171.87548828 67.00830078 C179.25405865 73.54674928 185.8760624 80.1905923 192.03125 87.90625 C194.25838343 90.64882811 194.25838343 90.64882811 196.76171875 93.03125 C199.71463655 96.03391067 202.15794784 99.22124311 204.625 102.625 C205.10211426 103.27927979 205.57922852 103.93355957 206.07080078 104.60766602 C210.49709317 110.75001846 214.42847647 117.12704503 218.3125 123.625 C218.69132324 124.21055664 219.07014648 124.79611328 219.46044922 125.39941406 C223.00475201 130.8892536 225.88929772 136.59950762 228.6875 142.5 C229.16719238 143.5101416 229.64688477 144.5202832 230.14111328 145.56103516 C243.73174212 174.51935321 253.39189982 206.89196105 253.75390625 239.0625 C253.77053314 240.20970016 253.78716003 241.35690033 253.80429077 242.53886414 C253.84631702 246.2343858 253.86539787 249.92925654 253.875 253.625 C253.87895782 254.8897818 253.88291565 256.1545636 253.88699341 257.45767212 C253.8867593 287.08346133 249.75934198 314.79693045 239.3125 342.625 C239.03486816 343.37442871 238.75723633 344.12385742 238.47119141 344.89599609 C236.15688397 351.0816081 233.73174497 356.95722981 230.3125 362.625 C229.69585872 364.13263568 229.1124836 365.654291 228.5625 367.1875 C223.51269716 380.0777862 214.97891055 392.12538418 207.3125 403.625 C206.6525 403.625 205.9925 403.625 205.3125 403.625 C205.250625 404.16125 205.18875 404.6975 205.125 405.25 C203.9339912 408.73141033 201.72496533 410.85066487 199.3125 413.625 C198.9825 414.285 198.6525 414.945 198.3125 415.625 C197.6525 415.625 196.9925 415.625 196.3125 415.625 C195.9721875 416.44291016 195.9721875 416.44291016 195.625 417.27734375 C193.91236449 420.34071857 191.70896955 422.62731814 189.3125 425.1875 C186.73805742 427.94529678 184.40613537 430.48454694 182.3125 433.625 C181.6525 433.625 180.9925 433.625 180.3125 433.625 C180.065 434.24375 179.8175 434.8625 179.5625 435.5 C178.07509631 438.02858627 176.87571991 438.34339004 174.3125 439.625 C174.00699219 440.24342773 173.70148438 440.86185547 173.38671875 441.49902344 C172.22379738 443.80055056 171.07333912 444.97428233 169.125 446.640625 C168.50882812 447.16914063 167.89265625 447.69765625 167.2578125 448.2421875 C166.61585938 448.78101563 165.97390625 449.31984375 165.3125 449.875 C164.67054688 450.42929687 164.02859375 450.98359375 163.3671875 451.5546875 C158.57504618 455.625 158.57504618 455.625 156.3125 455.625 C156.3125 456.285 156.3125 456.945 156.3125 457.625 C154.91204449 458.61355683 153.50315051 459.59222029 152.05517578 460.50976562 C149.79355877 461.95709912 147.63899016 463.54453407 145.46948242 465.12524414 C124.66798298 480.24420987 101.6602561 492.31429925 77.3125 500.625 C76.59255859 500.8725 75.87261719 501.12 75.13085938 501.375 C36.00007518 514.47545434 -8.80465242 517.56202848 -49.21582031 509.12890625 C-51.48042462 508.66721687 -53.73870716 508.28325088 -56.0234375 507.9375 C-67.61866998 506.08596587 -78.59231747 502.3863521 -89.6875 498.625 C-90.77160156 498.26277344 -91.85570312 497.90054687 -92.97265625 497.52734375 C-105.49485964 493.16440411 -117.43826843 487.60532641 -128.79345703 480.76123047 C-130.84071809 479.53308495 -132.90236002 478.33129429 -134.96484375 477.12890625 C-151.71825126 467.2514901 -167.11126496 455.58912747 -180.6875 441.625 C-183.06988293 439.1830575 -185.36028342 436.87550843 -188.0703125 434.80078125 C-190.8065525 432.5260265 -192.85670535 430.16210516 -195.0625 427.375 C-197.72239652 424.05122848 -200.3972622 420.784554 -203.25 417.625 C-209.97551515 409.98518671 -215.48070442 401.56131183 -220.73046875 392.86328125 C-221.75083953 391.17488329 -222.7758726 389.48861336 -223.84863281 387.83300781 C-227.38824123 382.34953891 -230.26770112 376.64331572 -233.0625 370.75 C-233.78203857 369.2347876 -233.78203857 369.2347876 -234.51611328 367.68896484 C-248.20870261 338.51339384 -257.95972696 305.86185585 -258.0234375 273.44140625 C-258.0334227 271.61620705 -258.0334227 271.61620705 -258.04360962 269.75413513 C-258.05366741 267.19360854 -258.05842879 264.63305609 -258.05810547 262.07250977 C-258.06245394 258.2282192 -258.09878288 254.38510209 -258.13671875 250.54101562 C-258.20510687 235.43223368 -256.99630968 221.35921548 -253.6875 206.625 C-253.18509778 204.22924836 -252.69095067 201.83190676 -252.19773865 199.43424988 C-249.30729603 185.73698183 -245.48160254 172.38932142 -239.6875 159.625 C-239.22472656 158.59117187 -238.76195312 157.55734375 -238.28515625 156.4921875 C-228.78562391 135.57809773 -228.78562391 135.57809773 -222.6875 126.625 C-222.089375 125.5525 -221.49125 124.48 -220.875 123.375 C-218.16168792 118.5548809 -214.91794908 114.10778177 -211.6875 109.625 C-211.22601563 108.97789063 -210.76453125 108.33078125 -210.2890625 107.6640625 C-206.59519055 102.60367144 -202.55047576 97.85358307 -198.46972656 93.10424805 C-196.38772767 90.67488408 -194.46500189 88.29125284 -192.6875 85.625 C-192.0275 85.625 -191.3675 85.625 -190.6875 85.625 C-190.44 85.00625 -190.1925 84.3875 -189.9375 83.75 C-188.45009631 81.22141373 -187.25071991 80.90660996 -184.6875 79.625 C-184.3575 78.965 -184.0275 78.305 -183.6875 77.625 C-182.42327236 75.09654472 -181.15904472 74.86077236 -178.6875 73.625 C-178.42066406 73.04363281 -178.15382813 72.46226563 -177.87890625 71.86328125 C-173.82807303 64.25302736 -163.83905903 57.37174907 -156.6875 52.625 C-156.0275 52.625 -155.3675 52.625 -154.6875 52.625 C-154.3575 51.635 -154.0275 50.645 -153.6875 49.625 C-151.5703125 48.046875 -151.5703125 48.046875 -148.8125 46.375 C-147.81863281 45.76398437 -146.82476562 45.15296875 -145.80078125 44.5234375 C-144.77339844 43.89695313 -143.74601562 43.27046875 -142.6875 42.625 C-140.789017 41.42083399 -138.89308551 40.2126338 -137 39 C-135.23104425 37.87204999 -133.46001632 36.74734646 -131.6875 35.625 C-131.11676758 35.25068848 -130.54603516 34.87637695 -129.95800781 34.49072266 C-124.4563185 30.94074995 -118.72444412 28.05318814 -112.8125 25.25 C-111.79945801 24.76958252 -110.78641602 24.28916504 -109.74267578 23.79418945 C-94.15683748 16.48702443 -78.4088441 10.74187741 -61.6875 6.625 C-60.61435547 6.3470459 -59.54121094 6.0690918 -58.43554688 5.78271484 C-39.00379153 0.91377897 -19.98296502 0.03779269 0 0 Z M-13.24169922 35.71728516 C-25.96071395 36.24715016 -38.18656102 38.10621118 -50.5625 41 C-52.44231567 41.43807983 -52.44231567 41.43807983 -54.36010742 41.88500977 C-60.65320263 43.42433715 -66.64433078 45.1943626 -72.59985352 47.75537109 C-74.62707112 48.59982778 -76.64364418 49.25900818 -78.75 49.875 C-103.96584471 58.13230126 -127.6100629 74.09460962 -146.83984375 92 C-149.12284576 94.10449568 -151.4366282 96.12830774 -153.8125 98.125 C-162.65948713 105.78992622 -170.19148993 115.16685659 -177.14453125 124.55078125 C-178.17193628 125.93192574 -179.21104619 127.30444084 -180.26171875 128.66796875 C-180.77347656 129.33441406 -181.28523438 130.00085938 -181.8125 130.6875 C-182.26882812 131.27660156 -182.72515625 131.86570312 -183.1953125 132.47265625 C-185.23049445 135.40821974 -186.94053582 138.51381486 -188.6875 141.625 C-189.32429688 142.72199219 -189.96109375 143.81898438 -190.6171875 144.94921875 C-203.95058089 168.00153142 -214.28442462 193.44104867 -217.37133789 220.07568359 C-217.61313762 222.02539226 -217.89282259 223.97043749 -218.18920898 225.91259766 C-219.62540511 235.58217603 -220.04626642 244.98951841 -220 254.75 C-219.99884186 255.51235962 -219.99768372 256.27471924 -219.99649048 257.06018066 C-219.96160561 268.71751705 -219.3118933 280.04166364 -217.09326172 291.51416016 C-216.71425659 293.48580777 -216.38826805 295.46744072 -216.06640625 297.44921875 C-211.01995325 326.44281516 -198.3422583 354.49496646 -181.6875 378.625 C-181.11257812 379.45902344 -180.53765625 380.29304688 -179.9453125 381.15234375 C-174.72756924 388.52430051 -168.9255622 395.30110435 -162.99414062 402.09667969 C-161.84178193 403.44454318 -160.73714473 404.8328943 -159.640625 406.2265625 C-150.92003686 416.93544473 -138.99912797 425.85016137 -127.6875 433.625 C-127.12450195 434.01397461 -126.56150391 434.40294922 -125.98144531 434.80371094 C-111.05666529 445.08489235 -111.05666529 445.08489235 -94.9296875 453.25390625 C-91.6875 454.625 -91.6875 454.625 -89.3125 456.125 C-85.60802613 458.24184221 -81.75326125 459.36668325 -77.6875 460.625 C-76.47191406 461.00785156 -75.25632813 461.39070313 -74.00390625 461.78515625 C-70.69263728 462.82653618 -67.38086451 463.86603915 -64.06201172 464.88305664 C-62.28722646 465.4376086 -60.5189832 466.01317634 -58.75439453 466.59936523 C-50.90826326 469.14695675 -43.22919328 470.70775896 -35.0625 471.8125 C-33.35707031 472.0590332 -33.35707031 472.0590332 -31.6171875 472.31054688 C9.53659092 478.13909233 50.16176119 471.87356437 88.3125 455.625 C89.26253906 455.22667969 90.21257812 454.82835937 91.19140625 454.41796875 C101.7686176 449.8144954 111.71491028 443.99378195 121.046875 437.2265625 C123.90733585 435.20451259 126.8839171 433.42257864 129.9140625 431.66796875 C130.37554687 431.32378906 130.83703125 430.97960937 131.3125 430.625 C131.3125 429.965 131.3125 429.305 131.3125 428.625 C132.05886719 428.36307861 132.80523437 428.10115723 133.57421875 427.83129883 C136.34256187 426.6117568 137.95546757 425.40097512 140.125 423.32421875 C140.80820312 422.67646484 141.49140625 422.02871094 142.1953125 421.36132812 C142.89398438 420.68521484 143.59265625 420.00910156 144.3125 419.3125 C145.01117188 418.64798828 145.70984375 417.98347656 146.4296875 417.29882812 C150.10812198 413.79043449 153.72709355 410.22851456 157.3125 406.625 C158.58480469 405.3875 158.58480469 405.3875 159.8828125 404.125 C160.72585938 403.3 161.56890625 402.475 162.4375 401.625 C163.70980469 400.3875 163.70980469 400.3875 165.0078125 399.125 C167.21206709 396.73394417 168.66238451 394.40789748 170.3125 391.625 C170.92480469 391.0165625 171.53710938 390.408125 172.16796875 389.78125 C175.08961638 386.84363708 177.30332293 383.54584606 179.625 380.125 C180.11355469 379.40578369 180.60210937 378.68656738 181.10546875 377.94555664 C212.92728504 330.71267886 226.50474877 271.50566002 215.64355469 215.15429688 C212.64501549 200.85937414 208.99182254 186.94244253 203.14453125 173.5390625 C202.31918262 171.64037317 201.53047685 169.73001673 200.75 167.8125 C196.39892315 157.2973976 191.10079387 147.69554508 184.92578125 138.15234375 C182.93618664 135.03547278 181.107931 131.8567758 179.3125 128.625 C178.6525 128.625 177.9925 128.625 177.3125 128.625 C176.89484375 127.74328125 176.89484375 127.74328125 176.46875 126.84375 C171.25317781 116.83548985 162.31032113 107.44814173 154.3125 99.625 C153.52488281 98.81933594 152.73726563 98.01367188 151.92578125 97.18359375 C148.89184518 94.21314812 145.73017526 91.44094837 142.5 88.6875 C141.57622559 87.89907715 141.57622559 87.89907715 140.63378906 87.09472656 C133.62212696 80.16701178 133.62212696 80.16701178 125.3125 76.625 C125.3125 75.965 125.3125 75.305 125.3125 74.625 C123.3325 73.965 121.3525 73.305 119.3125 72.625 C119.3125 71.965 119.3125 71.305 119.3125 70.625 C118.59964844 70.23828125 117.88679688 69.8515625 117.15234375 69.453125 C108.8780527 64.95404884 108.8780527 64.95404884 104.875 62.625 C99.81489282 59.71453263 94.55878541 57.17885214 89.3125 54.625 C87.94544922 53.95404297 87.94544922 53.95404297 86.55078125 53.26953125 C80.58964743 50.44125608 74.59619006 48.34940683 68.2578125 46.51953125 C65.3125 45.625 65.3125 45.625 62.95288086 44.65893555 C45.08450243 37.66193299 25.28024724 36.30383925 6.3125 35.625 C5.48959473 35.59180664 4.66668945 35.55861328 3.81884766 35.52441406 C-1.88155085 35.31997205 -7.54479814 35.5114518 -13.24169922 35.71728516 Z " fill="#FFFFFF" transform="translate(257.6875,-0.625)"/>
<path d="M0 0 C11.55 0 23.1 0 35 0 C36 1 36 1 36.12304783 2.87219334 C36.12212604 3.69719806 36.12120424 4.52220278 36.12025452 5.37220764 C36.12232076 6.78489095 36.12232076 6.78489095 36.12442875 8.22611332 C36.12083064 9.2717718 36.11723253 10.31743029 36.11352539 11.39477539 C36.11364593 12.50506072 36.11376646 13.61534605 36.11389065 14.75927639 C36.11314112 18.37208969 36.10551106 21.98485212 36.09765625 25.59765625 C36.09618696 27.82059708 36.09516617 30.04353825 36.09460449 32.26647949 C36.08935016 40.53182492 36.0753891 48.79716295 36.0625 57.0625 C36.041875 75.521875 36.02125 93.98125 36 113 C72.96 113 109.92 113 148 113 C148 124.55 148 136.1 148 148 C111.04 148 74.08 148 36 148 C36 184.96 36 221.92 36 260 C24.12 260 12.24 260 0 260 C0 223.04 0 186.08 0 148 C-36.96 148 -73.92 148 -112 148 C-112 136.45 -112 124.9 -112 113 C-75.04 113 -38.08 113 0 113 C0 75.71 0 38.42 0 0 Z " fill="#FFFFFF" transform="translate(239,124)"/>
</svg>
