<?xml version="1.0" encoding="UTF-8"?>
<svg version="1.1" xmlns="http://www.w3.org/2000/svg" width="465" height="512">
<path d="M0 0 C2.54279013 1.21239834 5.13602754 2.1654305 7.80126953 3.07324219 C11.76818928 4.44594155 15.50873178 6.08519842 19.30126953 7.88574219 C24.9786204 10.5661522 30.73248804 12.69078497 36.66455078 14.73339844 C39.65051726 15.82462708 42.44450569 17.06091815 45.30126953 18.44824219 C51.22333727 21.226925 57.34566744 22.93760903 63.62548828 24.69824219 C67.62516248 25.82219015 71.54918519 27.12817204 75.48876953 28.44824219 C101.00732373 36.6366487 129.49172024 40.52532927 156.23876953 41.38574219 C164.33839436 41.69368882 172.4136617 42.11445301 180.48876953 42.82324219 C181.32956055 42.88954834 182.17035156 42.95585449 183.03662109 43.02416992 C190.718197 43.75003082 197.06347266 45.51834433 202.86376953 50.82324219 C203.97365234 51.809375 203.97365234 51.809375 205.10595703 52.81542969 C209.5436238 57.84233022 209.27811634 63.10036329 209.25619507 69.46810913 C209.26072618 70.43212226 209.26525729 71.39613538 209.26992571 72.38936102 C209.28259578 75.62306662 209.28094756 78.85660434 209.27929688 82.09033203 C209.28528109 84.4084037 209.29208639 86.72647336 209.2996521 89.04454041 C209.31734494 95.3493172 209.32200928 101.65403972 209.32328367 107.95883894 C209.32470567 111.90541236 209.32897655 115.85197202 209.33427811 119.79854202 C209.35184332 132.87816775 209.36111697 145.95775939 209.35961716 159.03739695 C209.35953725 159.74241924 209.35945733 160.44744153 209.359375 161.17382812 C209.35929324 161.87972441 209.35921148 162.58562069 209.35912724 163.31290777 C209.35831746 174.70729503 209.37737384 186.1015491 209.40565173 197.49589793 C209.43453179 209.22683541 209.44818329 220.95770835 209.44646418 232.6886822 C209.44580471 239.26165559 209.45149718 245.83450693 209.47282028 252.40745163 C209.49238257 258.60782336 209.49220568 264.80790463 209.47778702 271.00828743 C209.47571889 273.26589069 209.48027825 275.52351298 209.49250793 277.78108406 C209.59063106 297.17479818 207.07886871 315.84490904 201.98876953 334.57324219 C201.70533691 335.6217334 201.4219043 336.67022461 201.12988281 337.75048828 C198.61184493 346.59677006 195.37633615 355.08462964 191.86376953 363.57324219 C191.36103516 364.78834473 190.85830078 366.00344727 190.34033203 367.25537109 C187.93690922 372.8931369 185.43690219 378.20247607 182.05175781 383.31591797 C180.64665355 385.47359529 179.56759015 387.73836614 178.48876953 390.07324219 C177.02022796 393.09345033 175.57501752 395.66921006 173.36376953 398.19824219 C170.90980642 400.80217887 170.90980642 400.80217887 169.60595703 403.78808594 C167.94809281 407.02772882 166.08705176 409.48960494 163.73876953 412.26074219 C160.14978259 416.53473968 156.72083183 420.88203043 153.39892578 425.36621094 C152.93357422 425.88828125 152.46822266 426.41035156 151.98876953 426.94824219 C151.32876953 426.94824219 150.66876953 426.94824219 149.98876953 426.94824219 C149.61751953 427.78355469 149.61751953 427.78355469 149.23876953 428.63574219 C145.50488853 435.54342204 139.36520567 440.27850199 133.30126953 445.07324219 C130.9419278 446.90705972 130.9419278 446.90705972 128.89892578 449.12402344 C125.26960236 452.78211384 121.18193089 455.86109017 117.11376953 459.01074219 C116.33646484 459.62240234 115.55916016 460.2340625 114.75830078 460.86425781 C110.3230299 464.31184232 105.91341176 467.25271231 100.98876953 469.94824219 C99.66515927 470.84879197 98.35119773 471.76383291 97.05126953 472.69824219 C74.22902185 487.92573191 46.68415368 496.79449213 19.98876953 501.94824219 C18.96553589 502.15262909 18.96553589 502.15262909 17.92163086 502.36114502 C5.15261971 504.86122301 -7.34232782 505.41754568 -20.3359375 505.33935547 C-23.50808691 505.32325814 -26.67896279 505.33930997 -29.85107422 505.35839844 C-42.51844764 505.37261139 -54.59305867 504.45563229 -67.01123047 501.94824219 C-68.93418945 501.56539063 -68.93418945 501.56539063 -70.89599609 501.17480469 C-74.44997082 500.42479609 -77.98061254 499.61362619 -81.51123047 498.76074219 C-82.74591064 498.46321045 -83.98059082 498.16567871 -85.25268555 497.85913086 C-95.04389343 495.39713365 -104.09770664 492.04465204 -113.22363281 487.76611328 C-115.44579614 486.74941741 -117.71479534 485.90653125 -120.01123047 485.07324219 C-125.05095835 483.07872091 -129.8301083 480.56710596 -134.63623047 478.07324219 C-135.43673828 477.66219238 -136.23724609 477.25114258 -137.06201172 476.82763672 C-141.7555716 474.35188085 -145.93738612 471.60944495 -150.12084961 468.34985352 C-151.89366568 467.03540988 -153.66059988 465.94973686 -155.59326172 464.88964844 C-159.24191209 462.81721503 -162.42663797 460.49478814 -165.69873047 457.88574219 C-166.29959473 457.41040039 -166.90045898 456.93505859 -167.51953125 456.4453125 C-172.65740882 452.33122364 -177.51628307 447.95637326 -182.31591797 443.45605469 C-184.66930568 441.2663809 -187.06541351 439.15805295 -189.51123047 437.07324219 C-192.36997734 434.58970585 -194.85632192 432.09081716 -197.01123047 428.94824219 C-197.01123047 428.28824219 -197.01123047 427.62824219 -197.01123047 426.94824219 C-197.85041016 426.64273438 -197.85041016 426.64273438 -198.70654297 426.33105469 C-201.87276238 424.43132304 -203.7370467 421.7510978 -205.88623047 418.82324219 C-206.32604248 418.23647705 -206.76585449 417.64971191 -207.21899414 417.04516602 C-208.09318671 415.87770009 -208.96428483 414.70790964 -209.83203125 413.53564453 C-211.30620452 411.55115704 -212.81742476 409.59589585 -214.32373047 407.63574219 C-217.12656592 403.8802576 -219.5754015 399.94771621 -222.01123047 395.94824219 C-222.82357799 394.67731138 -223.63607989 393.40647924 -224.44873047 392.13574219 C-230.25155825 382.79681622 -234.8873187 373.13168212 -239.01123047 362.94824219 C-239.32350586 362.19285156 -239.63578125 361.43746094 -239.95751953 360.65917969 C-244.11340615 350.55180344 -247.6454321 340.4251253 -250.32373047 329.82324219 C-250.55382812 328.91977051 -250.78392578 328.01629883 -251.02099609 327.08544922 C-255.21484127 309.64286588 -256.45493869 292.75514877 -256.4152832 274.85522461 C-256.4209993 272.49765197 -256.4279683 270.14008209 -256.43608093 267.78251648 C-256.45387544 261.44042519 -256.45287185 255.09847324 -256.44713855 248.75636458 C-256.443637 242.77604927 -256.45162928 236.79575064 -256.4584992 230.81544057 C-256.47215948 218.26619091 -256.46682849 205.71700398 -256.45531399 193.16775582 C-256.4453499 181.69487092 -256.4583883 170.22214655 -256.48224818 158.74928638 C-256.50663058 146.93548953 -256.51625155 135.12176753 -256.50959545 123.30794603 C-256.50610626 116.68822397 -256.50865437 110.06861 -256.52584648 103.44890404 C-256.54127867 97.23771575 -256.53740137 91.0268364 -256.51854134 84.81566048 C-256.51484741 82.53639664 -256.51798719 80.25711005 -256.52842712 77.97786713 C-256.54158094 74.86930056 -256.53013942 71.76176581 -256.51243591 68.65324402 C-256.52204092 67.74985375 -256.53164593 66.84646348 -256.54154199 65.91569775 C-256.47713248 60.42757179 -255.65134538 57.31261468 -252.01123047 52.94824219 C-249.86279297 50.90136719 -249.86279297 50.90136719 -247.63623047 49.19824219 C-246.54181641 48.33972656 -246.54181641 48.33972656 -245.42529297 47.46386719 C-239.83765875 43.95577321 -233.99265536 43.44258048 -227.57373047 42.88574219 C-226.65487061 42.80122803 -225.73601074 42.71671387 -224.78930664 42.62963867 C-218.13705265 42.04973896 -211.49585059 41.74067584 -204.82373047 41.51074219 C-183.27210466 40.69706022 -162.45903998 37.37067208 -141.42431641 32.69628906 C-139.09279876 32.18528977 -136.75721257 31.69259842 -134.41845703 31.21582031 C-127.17024083 29.73112729 -120.23863002 27.9026577 -113.26123047 25.44824219 C-111.5377975 24.85296896 -109.81383973 24.25921295 -108.08935547 23.66699219 C-106.83155273 23.23302124 -106.83155273 23.23302124 -105.54833984 22.7902832 C-103.00404716 21.94585812 -100.44602631 21.18779442 -97.87060547 20.44433594 C-93.40918128 19.12583044 -89.23663453 17.4448611 -85.01123047 15.51074219 C-83.61853085 14.88716231 -82.22530281 14.26476124 -80.83154297 13.64355469 C-80.17186523 13.34868164 -79.5121875 13.05380859 -78.83251953 12.75 C-75.77364637 11.40343975 -72.66524694 10.19108533 -69.55419922 8.97167969 C-66.41093357 7.70664804 -63.30751655 6.35822482 -60.19873047 5.01074219 C-54.50406728 2.55337122 -48.76560682 0.27771245 -42.95263672 -1.88378906 C-40.38996325 -2.90137122 -38.06417489 -4.07086686 -35.63623047 -5.36425781 C-22.75775718 -10.99712907 -11.55998257 -5.72410201 0 0 Z M-31.69091797 45.76074219 C-35.12867494 47.52013296 -38.69234454 48.92867227 -42.26513672 50.38964844 C-45.22747072 51.60953046 -48.16533943 52.8805567 -51.10107422 54.16308594 C-52.01155518 54.55923096 -52.92203613 54.95537598 -53.86010742 55.36352539 C-55.66653018 56.15068789 -57.47116163 56.94197833 -59.27368164 57.73803711 C-64.38206719 59.95624696 -69.45616673 61.75513047 -74.80957031 63.28662109 C-77.48547936 64.09075876 -79.97428208 65.15655913 -82.51123047 66.32324219 C-88.92192191 69.05901497 -95.44542929 70.85809489 -102.16748047 72.63574219 C-105.34118641 73.47764167 -108.47602256 74.39064843 -111.60498047 75.38574219 C-135.73815978 82.94857854 -161.29244941 86.1397551 -186.3924408 88.58143616 C-190.73609831 89.0217159 -195.07452601 89.5028385 -199.41333008 89.98828125 C-200.24281914 90.08078156 -201.0723082 90.17328186 -201.92693329 90.26858521 C-203.95506992 90.49480097 -205.98315546 90.72147468 -208.01123047 90.94824219 C-208.05809493 116.28842878 -208.09328978 141.6286088 -208.11485481 166.96883011 C-208.12513705 178.73655909 -208.13913855 190.50426104 -208.16210938 202.27197266 C-208.18213721 212.53697534 -208.19496905 222.80195844 -208.19940746 233.06698012 C-208.20199903 238.49469287 -208.20802564 243.92234959 -208.22269058 249.35004425 C-208.23642347 254.47505144 -208.24042192 259.59998035 -208.23744583 264.7250042 C-208.23798906 266.59039932 -208.24187182 268.4557975 -208.24964142 270.32117653 C-208.36737106 294.6452565 -208.36737106 294.6452565 -203.19873047 318.26074219 C-202.93229736 319.08501709 -202.66586426 319.90929199 -202.39135742 320.75854492 C-201.8576694 322.40199808 -201.31594646 324.04286987 -200.76513672 325.68066406 C-200.08211023 327.73505203 -199.44322686 329.79587236 -198.82373047 331.87011719 C-193.96854952 347.58202222 -186.69582771 361.932967 -177.17041016 375.30859375 C-176.05400774 376.88773415 -174.97321182 378.49186401 -173.89404297 380.09667969 C-171.56321226 383.60522189 -171.56321226 383.60522189 -169.01123047 386.94824219 C-168.35123047 386.94824219 -167.69123047 386.94824219 -167.01123047 386.94824219 C-166.82560547 387.62886719 -166.63998047 388.30949219 -166.44873047 389.01074219 C-164.75390205 392.47408722 -162.63385393 394.49200087 -159.86669922 397.12792969 C-158.13633001 398.82551296 -156.60756603 400.5740212 -155.07373047 402.44824219 C-131.61765232 430.24803852 -95.05616079 444.69900804 -61.01123047 453.94824219 C-60.32488525 454.13757324 -59.63854004 454.3269043 -58.93139648 454.52197266 C-31.31479915 460.65275193 1.84605518 458.48247627 28.51611328 449.75390625 C30.91514699 448.97223057 33.32368742 448.23328106 35.73876953 447.50292969 C67.16690685 437.79326131 101.13971456 416.21205384 119.98876953 388.94824219 C119.98876953 388.28824219 119.98876953 387.62824219 119.98876953 386.94824219 C120.64876953 386.94824219 121.30876953 386.94824219 121.98876953 386.94824219 C123.45559548 385.06145363 124.79366936 383.18466272 126.11376953 381.19824219 C126.71427124 380.30588867 126.71427124 380.30588867 127.3269043 379.39550781 C128.15435666 378.16519745 128.9796181 376.93341087 129.80273438 375.70019531 C130.84261471 374.16413494 131.92239955 372.65524587 133.00830078 371.15136719 C145.06836626 354.15428917 151.38690218 334.82396739 156.98876953 314.94824219 C157.31241549 313.92353443 157.63606144 312.89882668 157.96951485 311.84306717 C159.1943121 307.53671232 159.67713124 303.230636 160.09957886 298.78289795 C160.18388747 297.90964772 160.26819608 297.03639749 160.3550595 296.13668513 C161.20512018 286.61982427 161.25558706 277.14122143 161.21582031 267.59375 C161.21525425 265.64993801 161.21557655 263.70612559 161.21670532 261.76231384 C161.21727222 256.55494781 161.205627 251.3476765 161.19155741 246.14033222 C161.17893786 240.67247834 161.1778708 235.20462157 161.17550659 229.73675537 C161.16932446 219.41364633 161.15295851 209.09058035 161.13280761 198.76749015 C161.11034609 187.00183908 161.09942956 175.23618581 161.08941674 163.47051859 C161.06858888 139.29640271 161.03347739 115.12232488 160.98876953 90.94824219 C158.12285383 90.62779222 155.25687937 90.3078838 152.39086914 89.98828125 C151.58625999 89.89825836 150.78165085 89.80823547 149.95265961 89.71548462 C145.48928382 89.21820499 141.02517382 88.74243558 136.55517578 88.30761719 C109.15932005 85.57749244 82.30926488 81.1296742 55.98876953 72.94824219 C54.44633884 72.48680438 52.90340504 72.02704339 51.35986328 71.56933594 C44.18023571 69.41536479 37.16522712 66.95288816 30.19580078 64.19433594 C26.83796964 62.88964881 23.45324061 61.69518818 20.05126953 60.51074219 C14.04757884 58.38512917 8.21369196 55.97567464 2.37939453 53.42480469 C-0.85957569 52.0142854 -4.11711332 50.66210172 -7.38623047 49.32324219 C-10.8383426 47.90286582 -14.15493949 46.3903785 -17.44873047 44.63574219 C-23.45093703 41.79259171 -25.89935762 42.68330791 -31.69091797 45.76074219 Z " fill="#FFFFFF" transform="translate(256.01123046875,7.0517578125)"/>
<path d="M0 0 C4.62251041 4.19408262 6.67005567 8.94226011 7.3359375 15.11328125 C7.42209703 22.16974664 7.11344915 28.07179387 3 34 C1.37591421 35.64820587 -0.3047434 37.05652061 -2.13671875 38.46875 C-4.89268409 40.7336104 -7.07577807 43.41950848 -9.38671875 46.125 C-12.60180399 49.86166081 -16.13137989 53.12215964 -19.875 56.3125 C-23.39172694 59.35238261 -26.41053563 62.6265801 -29.421875 66.16015625 C-32.62017546 69.88886792 -36.14461273 73.13343676 -39.875 76.3125 C-43.39172694 79.35238261 -46.41053563 82.6265801 -49.421875 86.16015625 C-52.62017546 89.88886792 -56.14461273 93.13343676 -59.875 96.3125 C-63.39032328 99.35116928 -66.40839258 102.62356466 -69.41796875 106.15625 C-72.4661558 109.70870503 -75.7789454 112.8317703 -79.375 115.8125 C-82.73327877 118.64513514 -85.53767959 121.78953952 -88.38671875 125.125 C-91.60180399 128.86166081 -95.13137989 132.12215964 -98.875 135.3125 C-102.39172694 138.35238261 -105.41053563 141.6265801 -108.421875 145.16015625 C-112.24596236 149.61843632 -116.58531761 153.36821243 -121.0390625 157.16796875 C-122.89482489 158.90173879 -124.30528051 160.6531893 -125.8125 162.6875 C-130.00325156 167.74373286 -136.05370692 169.36624101 -142.359375 170.37890625 C-149.5267191 170.77285601 -155.98180186 168.07920316 -161.8125 164.0625 C-165.7114475 160.3863495 -169.35616797 156.60339382 -172.875 152.5625 C-175.85997558 149.17278197 -178.9407378 146.19314891 -182.41796875 143.3203125 C-186.09195035 140.25412539 -189.21853822 136.75673843 -192.3125 133.125 C-195.35238261 129.60827306 -198.6265801 126.58946437 -202.16015625 123.578125 C-205.95463587 120.32341212 -209.25208692 116.72323955 -212.5 112.9375 C-214.49756655 110.61494974 -216.242597 108.81382091 -218.6875 106.9375 C-222.68329103 103.58967508 -225.02554994 99.13460223 -226 94 C-226.64943369 85.25762339 -225.94596301 78.80082861 -221.3125 71.25 C-215.44179549 65.53796318 -207.89384769 63.49866748 -199.859375 63.59375 C-192.88529276 64.58460321 -186.15723546 68.15229223 -181.625 73.5625 C-181.18671875 74.14902344 -180.7484375 74.73554688 -180.296875 75.33984375 C-178.9584772 77.05315418 -177.57747371 78.28072001 -175.875 79.625 C-173.12220231 81.89905027 -171.21008466 84.21957091 -169 87 C-168.175 87.66 -167.35 88.32 -166.5 89 C-164 91 -164 91 -162.0625 93.4375 C-160.01307596 96.15604996 -160.01307596 96.15604996 -157 98.5 C-154 101 -154 101 -152 103.5625 C-149.66581828 106.40728397 -147.12103041 108.08482225 -144 110 C-137.66319292 104.436311 -131.61433311 98.85842018 -126.0625 92.5 C-123.74991968 89.86949432 -121.48553969 87.43843176 -118.75 85.25 C-115.95696231 83.12453461 -115.95696231 83.12453461 -114 80.5 C-111.63956803 77.54946004 -108.89848263 75.41540219 -106 73 C-105.34 72.175 -104.68 71.35 -104 70.5 C-101.63956803 67.54946004 -98.89848263 65.41540219 -96 63 C-95.34 62.175 -94.68 61.35 -94 60.5 C-91.63956803 57.54946004 -88.89848263 55.41540219 -86 53 C-85.34 52.175 -84.68 51.35 -84 50.5 C-81.63304851 47.54131064 -78.93165 45.39318368 -76 43 C-72.84365071 40.00977436 -69.97768375 36.83760039 -67.125 33.5625 C-64.13876822 30.17135544 -61.05610289 27.1912213 -57.578125 24.31640625 C-53.70585751 21.08632174 -50.42797327 17.35362863 -47.125 13.5625 C-44.12230933 10.15189663 -41.02957032 7.1391495 -37.51171875 4.26953125 C-35.85465003 2.93490214 -35.85465003 2.93490214 -34.0625 0.875 C-24.07662517 -8.20306802 -10.57613632 -7.77534132 0 0 Z " fill="#FFFFFF" transform="translate(342,168)"/>
</svg>
