<?xml version="1.0" encoding="UTF-8"?>
<svg version="1.1" xmlns="http://www.w3.org/2000/svg" width="512" height="512">
<path d="M0 0 C3.4596758 0.00849328 6.91768363 -0.02035333 10.37719727 -0.05200195 C30.39339741 -0.11586407 49.94913825 2.27333914 69.23071289 7.75854492 C70.83571655 8.20194214 70.83571655 8.20194214 72.47314453 8.65429688 C81.2194243 11.13665927 89.62353932 14.2299913 98.00805664 17.72631836 C100.38017001 18.6826901 102.79980542 19.46553547 105.23071289 20.25854492 C126.74173698 27.99987825 150.72219614 42.09650102 166.79321289 58.44604492 C167.72133789 59.06479492 168.64946289 59.68354492 169.60571289 60.32104492 C176.02665124 64.60167049 181.1813819 69.74103902 186.14477539 75.61401367 C187.90534029 77.66593768 187.90534029 77.66593768 190.79321289 79.88354492 C195.72983086 84.10023944 199.37794015 89.28151014 202.91821289 94.69604492 C204.69973835 97.50356428 204.69973835 97.50356428 207.10571289 99.70385742 C216.1925253 108.9755759 222.41006679 120.99774142 228.66821289 132.25854492 C229.29840332 133.39050293 229.92859375 134.52246094 230.57788086 135.6887207 C235.99130856 145.55347745 240.6650215 155.4796216 244.29321289 166.13354492 C244.59018066 166.99874756 244.88714844 167.8639502 245.19311523 168.75537109 C246.06704161 171.31654605 246.93068169 173.88101455 247.79321289 176.44604492 C248.03072266 177.13859375 248.26823242 177.83114258 248.51293945 178.54467773 C251.3838259 186.9459316 253.57256092 195.40256299 255.48071289 204.07104492 C255.68325684 204.98861572 255.88580078 205.90618652 256.09448242 206.8515625 C256.70112724 209.70997774 257.25660437 212.57368093 257.79321289 215.44604492 C257.98230225 216.40736328 258.1713916 217.36868164 258.36621094 218.35913086 C260.46904976 230.61955854 260.23304061 243.04319852 260.23071289 255.44604492 C260.2317804 256.64824677 260.2328479 257.85044861 260.23394775 259.08908081 C260.21005685 277.71173173 259.28865397 295.30212042 254.79321289 313.44604492 C254.57391113 314.37320312 254.35460937 315.30036133 254.12866211 316.25561523 C249.05140133 337.27205197 241.43311307 358.59074641 230.79321289 377.44604492 C230.08358398 378.71158203 230.08358398 378.71158203 229.35961914 380.00268555 C223.86373608 389.7266981 218.18304837 399.28369543 211.60571289 408.32104492 C211.1483374 408.95147705 210.69096191 409.58190918 210.21972656 410.23144531 C209.13235087 411.67913975 207.96993424 413.06998826 206.79321289 414.44604492 C206.13321289 414.44604492 205.47321289 414.44604492 204.79321289 414.44604492 C204.42196289 415.25041992 204.42196289 415.25041992 204.04321289 416.07104492 C199.30104735 425.08115945 192.39291351 432.23908514 184.66430664 438.76245117 C182.83490129 440.40853407 181.29514182 442.11214169 179.73071289 444.00854492 C174.88727446 449.8654202 169.09087138 455.01349209 161.79321289 457.44604492 C161.46321289 458.43604492 161.13321289 459.42604492 160.79321289 460.44604492 C158.4578976 462.35675743 156.13918399 464.10088284 153.66821289 465.82104492 C152.92337646 466.3427124 152.17854004 466.86437988 151.41113281 467.40185547 C142.4050982 473.57508784 132.90918854 478.87775523 123.31665039 484.07592773 C121.2664335 485.18910664 119.23111792 486.32308274 117.19946289 487.46948242 C83.04660142 505.83958215 42.48961263 513.30522482 4.10571289 513.00854492 C2.93098419 513.00461731 1.75625549 513.0006897 0.54592896 512.99664307 C-17.85478701 512.9101367 -35.29775518 511.88328769 -53.20678711 507.44604492 C-54.59752441 507.11709229 -54.59752441 507.11709229 -56.01635742 506.78149414 C-77.03279416 501.70423336 -98.3514886 494.0859451 -117.20678711 483.44604492 C-118.47232422 482.73641602 -118.47232422 482.73641602 -119.76342773 482.01245117 C-129.48744028 476.51656811 -139.04443762 470.8358804 -148.08178711 464.25854492 C-148.71221924 463.80116943 -149.34265137 463.34379395 -149.9921875 462.87255859 C-151.43988194 461.7851829 -152.83073044 460.62276628 -154.20678711 459.44604492 C-154.20678711 458.78604492 -154.20678711 458.12604492 -154.20678711 457.44604492 C-154.74303711 457.19854492 -155.27928711 456.95104492 -155.83178711 456.69604492 C-164.81656317 451.96721542 -171.97200927 445.08722088 -178.46459961 437.36791992 C-180.23749849 435.412166 -182.10194736 433.80238285 -184.14428711 432.13354492 C-189.6148454 427.50707668 -194.92185004 421.30085612 -197.20678711 414.44604492 C-198.19678711 414.11604492 -199.18678711 413.78604492 -200.20678711 413.44604492 C-202.11749962 411.11072963 -203.86162503 408.79201602 -205.58178711 406.32104492 C-206.10345459 405.5762085 -206.62512207 404.83137207 -207.16259766 404.06396484 C-219.73068493 385.72857388 -230.45085479 365.6247588 -237.76928711 344.63354492 C-238.00357422 343.96817719 -238.23786133 343.30280945 -238.47924805 342.61727905 C-241.64017171 333.59945226 -244.46132563 324.55420905 -246.70678711 315.25854492 C-246.92536377 314.35450928 -247.14394043 313.45047363 -247.36914062 312.51904297 C-248.04984493 309.50434188 -248.64158894 306.48464129 -249.20678711 303.44604492 C-249.39954224 302.43652771 -249.39954224 302.43652771 -249.59619141 301.40661621 C-252.34704981 286.63598521 -252.76510984 272.06744008 -252.70678711 257.07104492 C-252.70535706 255.88382843 -252.703927 254.69661194 -252.70245361 253.47341919 C-252.64730586 234.9598185 -251.67139443 217.46552216 -247.20678711 199.44604492 C-246.98748535 198.51888672 -246.76818359 197.59172852 -246.54223633 196.63647461 C-241.46497555 175.62003787 -233.84668729 154.30134343 -223.20678711 135.44604492 C-222.73370117 134.60235352 -222.26061523 133.75866211 -221.77319336 132.8894043 C-216.2773103 123.16539175 -210.59662259 113.60839441 -204.01928711 104.57104492 C-203.33322388 103.62539673 -203.33322388 103.62539673 -202.63330078 102.66064453 C-201.54592508 101.21295009 -200.38350846 99.82210159 -199.20678711 98.44604492 C-198.54678711 98.44604492 -197.88678711 98.44604492 -197.20678711 98.44604492 C-196.94510742 97.88916992 -196.68342773 97.33229492 -196.41381836 96.75854492 C-192.03044476 88.36062527 -185.84790116 81.88066591 -178.85058594 75.65600586 C-176.02293184 73.13868896 -173.42204729 70.68940097 -171.08178711 67.69604492 C-166.87304346 62.47050999 -160.57516649 57.56883805 -154.20678711 55.44604492 C-153.52194292 54.12195631 -152.85656156 52.78769144 -152.20678711 51.44604492 C-150.73999023 50.12841797 -150.73999023 50.12841797 -148.98803711 48.95776367 C-148.31619385 48.5061084 -147.64435059 48.05445313 -146.95214844 47.58911133 C-146.2111792 47.10877441 -145.47020996 46.6284375 -144.70678711 46.13354492 C-143.92650146 45.62227051 -143.14621582 45.11099609 -142.34228516 44.58422852 C-111.67888773 24.77714732 -111.67888773 24.77714732 -95.33422852 19.19311523 C-92.74413082 18.28357898 -90.18719768 17.29796717 -87.62475586 16.31323242 C-77.02386804 12.29139702 -66.42000044 8.73997443 -55.39428711 6.07104492 C-54.46696777 5.84481445 -53.53964844 5.61858398 -52.58422852 5.38549805 C-49.46841241 4.6705511 -46.34737325 4.04346651 -43.20678711 3.44604492 C-42.52903229 3.31507416 -41.85127747 3.18410339 -41.15298462 3.04916382 C-27.43601647 0.47401548 -13.93612913 -0.05190182 0 0 Z M-85.38256836 57.08666992 C-87.42904213 58.07169464 -89.505516 58.99516186 -91.59741211 59.87963867 C-100.26490367 63.64117992 -108.86218591 68.0133195 -116.24584961 73.94604492 C-118.67726565 75.80593289 -121.23276216 77.39199321 -123.83178711 79.00854492 C-127.92005032 81.57863528 -131.69571108 84.12475679 -135.20678711 87.44604492 C-135.20678711 88.10604492 -135.20678711 88.76604492 -135.20678711 89.44604492 C-136.0769043 89.83856445 -136.0769043 89.83856445 -136.96459961 90.23901367 C-139.33777466 91.51655912 -141.08687141 92.95190439 -143.08178711 94.75854492 C-145.41391938 96.85832453 -147.71778827 98.83994165 -150.20678711 100.75854492 C-153.81036905 103.71407125 -156.48438991 107.43667902 -159.33178711 111.09838867 C-161.44832292 113.74846789 -163.81001773 116.04927554 -166.20678711 118.44604492 C-170.40867735 123.38887173 -173.87047404 128.41495357 -176.90209961 134.14135742 C-178.31721252 136.64110777 -179.90539651 138.92649933 -181.58178711 141.25854492 C-188.95126933 151.67471784 -193.96229358 162.26049211 -198.34741211 174.17138672 C-199.2506685 176.56219347 -200.21574884 178.92206019 -201.18725586 181.28588867 C-203.37618198 186.72958885 -205.13456511 192.26994561 -206.83178711 197.88354492 C-207.13084961 198.84325195 -207.42991211 199.80295898 -207.73803711 200.79174805 C-222.00127995 247.65218082 -215.29285141 301.58353668 -195.07739258 345.52661133 C-194.4627617 346.88169488 -193.86431905 348.24417727 -193.27758789 349.61157227 C-190.97421648 354.95847891 -188.32604707 359.95599443 -185.33178711 364.94604492 C-184.88907471 365.68943115 -184.4463623 366.43281738 -183.99023438 367.19873047 C-180.8810618 372.39016684 -177.72300943 377.51800606 -174.20678711 382.44604492 C-173.53131836 383.39866211 -172.85584961 384.3512793 -172.15991211 385.33276367 C-167.91186106 391.17017175 -163.48263061 396.3563888 -158.27319336 401.34838867 C-156.27314066 403.37868791 -154.62008479 405.44864559 -152.95678711 407.75854492 C-150.69845564 410.88642784 -148.53091595 413.37969456 -145.20678711 415.44604492 C-144.21678711 415.11604492 -143.22678711 414.78604492 -142.20678711 414.44604492 C-142.07143555 413.36709961 -141.93608398 412.2881543 -141.79663086 411.17651367 C-139.01826345 391.09165718 -132.55084564 373.88149971 -118.45678711 358.96948242 C-116.99534824 357.51679125 -116.99534824 357.51679125 -117.20678711 355.44604492 C-116.61510742 355.17920898 -116.02342773 354.91237305 -115.41381836 354.63745117 C-113.16874336 353.42550803 -111.71622858 352.15522594 -109.89428711 350.38354492 C-101.32046526 342.818408 -91.66812788 337.53367338 -80.83178711 334.00854492 C-79.77447388 333.65651001 -79.77447388 333.65651001 -78.69580078 333.29736328 C-62.29332263 328.37716592 -44.69165183 329.14836227 -27.76928711 329.18041992 C-25.23356082 329.17906909 -22.69783479 329.17712509 -20.16210938 329.17462158 C-14.87392167 329.17169001 -9.58578502 329.17570775 -4.29760742 329.18530273 C1.76738852 329.19618193 7.83224986 329.19265438 13.89724255 329.18164992 C19.79455758 329.17138867 25.69182256 329.172591 31.58914185 329.17841339 C34.07032287 329.17973517 36.5515074 329.17815461 39.03268433 329.17345428 C73.74882005 329.12209993 73.74882005 329.12209993 88.41821289 334.00854492 C89.20252686 334.26466553 89.98684082 334.52078613 90.79492188 334.78466797 C102.4335501 338.8112912 112.16919474 345.20140402 120.93774414 353.79370117 C122.62805464 355.66772714 122.62805464 355.66772714 124.79321289 355.44604492 C125.04586914 356.0106543 125.29852539 356.57526367 125.55883789 357.15698242 C126.96157242 359.75825594 128.64217338 361.80895527 130.54321289 364.07104492 C141.62906855 377.91338361 147.80730969 394.32929777 149.40649414 412.02416992 C149.53411133 412.82338867 149.66172852 413.62260742 149.79321289 414.44604492 C150.45321289 414.77604492 151.11321289 415.10604492 151.79321289 415.44604492 C157.36384656 412.44647295 160.60844169 408.17192959 164.49633789 403.24682617 C166.52469879 400.77346773 168.60479566 398.58487799 170.91821289 396.38354492 C175.23983903 392.18196395 178.48186529 387.46037128 181.79321289 382.44604492 C182.27274414 381.74995117 182.75227539 381.05385742 183.24633789 380.33666992 C187.69978597 373.82778426 191.72727511 367.04975862 195.72729492 360.25585938 C196.42989612 359.06291785 197.13907479 357.87382237 197.85522461 356.68896484 C200.2734478 352.6130056 202.08012137 348.45754483 203.66821289 344.00854492 C204.18352527 342.59697242 204.69915965 341.18551744 205.21508789 339.77416992 C205.47483398 339.0580957 205.73458008 338.34202148 206.00219727 337.60424805 C206.77435023 335.49750971 207.56801103 333.40044853 208.37133789 331.30541992 C211.51067227 323.11204268 214.46199319 314.91370392 216.79321289 306.44604492 C217.07036133 305.4431543 217.34750977 304.44026367 217.63305664 303.40698242 C227.61100074 262.60165879 224.53933755 208.75462679 204.67749023 171.1496582 C203.46680177 168.81719435 202.5467674 166.39783444 201.60571289 163.94604492 C196.98889512 152.74388892 190.81233116 142.4255041 183.50805664 132.77807617 C182.02164314 130.75668924 180.75077375 128.76532866 179.54321289 126.57104492 C177.31358663 122.58956945 174.78204886 119.41275547 171.52368164 116.22729492 C169.04355595 113.70104386 166.79458119 111.10721438 164.54296875 108.3828125 C159.97489126 102.86438453 155.52710349 97.93793419 149.63305664 93.77807617 C147.79321289 92.44604492 147.79321289 92.44604492 146.17211914 90.77026367 C144.87142281 89.21515845 144.87142281 89.21515845 142.79321289 89.44604492 C142.53668945 88.84663086 142.28016602 88.2472168 142.01586914 87.62963867 C138.77589471 81.84323067 131.64399629 78.73766515 125.98461914 75.71166992 C123.89842583 74.50680961 122.10914629 73.19879164 120.23071289 71.69604492 C111.1302428 64.68034388 100.62645476 59.4122917 89.84790039 55.55151367 C86.89268559 54.48204335 84.04507312 53.27165391 81.16821289 52.00854492 C29.58291779 30.34955347 -35.17774899 32.70342886 -85.38256836 57.08666992 Z M-91.33178711 384.63354492 C-106.21639219 403.32199352 -105.80522333 422.74229529 -105.20678711 445.44604492 C-97.51940599 450.09074446 -90.02067552 454.17876712 -81.53881836 457.23510742 C-78.5959878 458.30460036 -75.71026215 459.46690232 -72.82128906 460.67285156 C-64.75241948 464.01894426 -56.56348489 466.63594816 -48.13500977 468.91870117 C-46.46909402 469.3743074 -44.81159738 469.86049309 -43.15600586 470.35229492 C1.32621613 482.39078531 53.94836057 474.06982872 94.79321289 454.44604492 C95.94821289 453.97166992 97.10321289 453.49729492 98.29321289 453.00854492 C101.47218673 451.58936017 104.46302745 450.02395009 107.51196289 448.34838867 C108.50131836 447.80561279 109.49067383 447.26283691 110.51000977 446.70361328 C111.2634668 446.28861572 112.01692383 445.87361816 112.79321289 445.44604492 C113.38547034 422.97670844 113.87294806 402.17111979 98.70727539 383.93823242 C93.19242434 378.21208439 87.15210886 374.35024563 79.79321289 371.32104492 C78.61758789 370.8234668 77.44196289 370.32588867 76.23071289 369.81323242 C62.56041842 365.14527324 47.51813896 366.15167055 33.29321289 366.18041992 C30.92537395 366.1790697 28.55753527 366.17712621 26.18969727 366.17462158 C21.2476129 366.17168711 16.30560125 366.17591373 11.36352539 366.18530273 C5.06297007 366.19669614 -1.23741478 366.19012765 -7.53796387 366.17815781 C-12.42131815 366.17089376 -17.30463273 366.17324792 -22.18798828 366.17841339 C-24.50976584 366.17973734 -26.83154712 366.17814672 -29.15332031 366.17345428 C-52.22315557 366.13704885 -74.53476812 366.56468899 -91.33178711 384.63354492 Z " fill="#FFFFFF" transform="translate(252.206787109375,-0.446044921875)"/>
<path d="M0 0 C0.77601563 0.29648438 1.55203125 0.59296875 2.3515625 0.8984375 C11.86832264 4.83292844 19.81217947 10.34608973 26.875 17.8125 C28.88143057 19.87794324 30.96111152 21.67840942 33.1875 23.5 C45.80002504 34.46741308 54.3350776 56.6198544 56 73 C57.36957525 98.87725629 53.596734 124.48618217 35.61865234 144.60302734 C32.84238278 147.51889846 29.98639275 150.30023468 27 153 C26.37657715 153.58056152 25.7531543 154.16112305 25.11083984 154.75927734 C7.90255478 170.4097508 -15.10385782 178.83619541 -38.3671875 178.18359375 C-65.13999845 176.31664699 -88.56462551 166.2138329 -106.45703125 145.83422852 C-124.35817613 124.55395929 -129.76550099 100.20976728 -128 73 C-125.65640725 48.60218978 -111.33932379 27.34469577 -93 12 C-89.75625663 9.51122803 -86.45551045 7.18402861 -83 5 C-81.88044922 4.25943359 -81.88044922 4.25943359 -80.73828125 3.50390625 C-55.97860522 -10.09448929 -25.82255549 -9.92010196 0 0 Z M-75 47 C-76.44665107 48.9770898 -77.71656547 50.92246718 -79 53 C-79.56074219 53.83015625 -80.12148437 54.6603125 -80.69921875 55.515625 C-88.81270935 67.69436561 -91.49263234 79.61115156 -89.7265625 94.26953125 C-89.28395456 96.25291589 -88.69523832 98.0899242 -88 100 C-87.53980469 101.34964844 -87.53980469 101.34964844 -87.0703125 102.7265625 C-81.27691867 118.18893087 -71.27153101 127.97186654 -56.75 135.375 C-45.22265436 140.37382524 -31.91588813 141.89526483 -20.02490234 137.22412109 C-2.28676865 129.53384107 8.8674292 118.87263335 16.125 100.75390625 C19.97903295 88.62402576 18.67970506 75.67867743 14 64 C11.93744268 60.10960739 9.56671827 56.57182697 7 53 C6.34257812 51.92298828 6.34257812 51.92298828 5.671875 50.82421875 C-1.18338819 40.19030145 -15.13732491 34.4139278 -27.125 31.75 C-44.47121212 28.26875328 -61.99977417 35.82757393 -75 47 Z " fill="#FFFFFF" transform="translate(292,116)"/>
</svg>
