<?xml version="1.0" encoding="UTF-8"?>
<svg version="1.1" xmlns="http://www.w3.org/2000/svg" width="512" height="511">
<path d="M0 0 C2.67870418 0.00916365 5.35653438 0.0023102 8.03515625 -0.02050781 C29.64429031 -0.19140955 49.88817032 1.62580243 70.65600586 7.82104492 C71.69168701 8.12212158 72.72736816 8.42319824 73.79443359 8.73339844 C76.81616477 9.62074146 79.83051693 10.5295171 82.84350586 11.44604492 C83.69879883 11.70144043 84.5540918 11.95683594 85.43530273 12.2199707 C95.2367321 15.17185163 104.22124187 18.88170668 113.28491211 23.63354492 C116.25884621 25.14825999 119.15704458 26.41580501 122.28100586 27.57104492 C126.46494744 29.16359698 129.90426889 31.3125655 133.56225586 33.87573242 C135.93498034 35.50901194 138.3623658 36.98339754 140.84350586 38.44604492 C147.35606799 42.32112083 153.47389741 46.07643647 158.84350586 51.44604492 C161.04193556 52.94364694 163.27076075 54.37714841 165.52709961 55.78588867 C168.27850476 57.75780636 170.48113208 60.02282212 172.84350586 62.44604492 C174.7718425 64.24937215 176.706141 66.04148631 178.65600586 67.82104492 C179.18081543 68.3029126 179.705625 68.78478027 180.24633789 69.28125 C183.18336042 71.9684951 186.16707298 74.57598557 189.21850586 77.13354492 C192.39795085 79.88862867 194.77783312 82.84197682 197.20288086 86.26635742 C199.82218096 89.7462847 202.81980233 92.87320816 205.79272461 96.05151367 C207.81289143 98.41029893 209.27368026 100.774442 210.84350586 103.44604492 C212.16213329 105.16575486 213.49700651 106.87306964 214.84350586 108.57104492 C220.55676056 116.09193594 225.1033584 124.23709858 229.71655273 132.46264648 C230.63144467 134.07282458 231.58704967 135.65982078 232.55444336 137.23901367 C233.81665807 139.40007825 234.72222148 141.47844071 235.59350586 143.82104492 C236.72283915 146.7615731 237.90609784 149.56861407 239.33959961 152.37573242 C252.42929217 178.07143376 259.90805808 210.04979184 260.08178711 238.76245117 C260.08985886 240.05054184 260.0979306 241.33863251 260.10624695 242.66575623 C260.12120995 245.39321756 260.13107199 248.12065362 260.13867188 250.84814453 C260.14744173 253.59512126 260.16810998 256.34157717 260.20019531 259.08837891 C260.44901791 280.89285049 258.72344484 301.29059343 252.46850586 322.25854492 C252.01689087 323.81206665 252.01689087 323.81206665 251.55615234 325.39697266 C250.66880932 328.41870383 249.76003368 331.43305599 248.84350586 334.44604492 C248.58811035 335.30133789 248.33271484 336.15663086 248.06958008 337.0378418 C245.12781427 346.80568493 241.46601299 355.78881458 236.67553711 364.79760742 C235.34936898 367.32592589 234.28860764 369.84385933 233.32788086 372.53198242 C232.02713191 376.12717436 230.34141534 379.21133109 228.28100586 382.44604492 C227.58233398 383.54948242 226.88366211 384.65291992 226.16381836 385.78979492 C225.7903125 386.3750293 225.41680664 386.96026367 225.03198242 387.56323242 C223.75648872 389.58389951 222.51282958 391.62194872 221.27319336 393.66479492 C220.40081212 395.09188718 219.5284165 396.51897064 218.65600586 397.94604492 C218.25244873 398.61635742 217.8488916 399.28666992 217.43310547 399.97729492 C214.95041988 404.00233942 212.26193886 407.13751078 208.84350586 410.44604492 C207.93927903 412.12532331 207.03562417 413.80492891 206.14038086 415.48901367 C203.89406711 418.87878231 200.86137187 421.51088832 197.94116211 424.31713867 C195.67989924 426.47482678 195.67989924 426.47482678 193.78100586 429.57104492 C191.51611361 432.93185278 188.88194491 435.12885381 185.79272461 437.71557617 C184.04519495 439.26699028 182.64892017 440.79576343 181.21850586 442.63354492 C178.66630258 445.65589091 176.12449605 447.25871813 172.84350586 449.44604492 C171.53050774 450.73720524 170.24041943 452.05189373 168.96850586 453.38354492 C165.33655528 457.12026331 161.54410956 460.15091448 156.84350586 462.44604492 C156.18350586 462.44604492 155.52350586 462.44604492 154.84350586 462.44604492 C154.51350586 463.43604492 154.18350586 464.42604492 153.84350586 465.44604492 C151.99267578 466.86889648 151.99267578 466.86889648 149.57397461 468.33666992 C148.24873779 469.149021 148.24873779 469.149021 146.89672852 469.9777832 C145.95104004 470.54480957 145.00535156 471.11183594 144.03100586 471.69604492 C143.07500488 472.27725098 142.11900391 472.85845703 141.1340332 473.45727539 C138.37607566 475.12962903 135.61094961 476.78945068 132.84350586 478.44604492 C132.16529785 478.85564453 131.48708984 479.26524414 130.78833008 479.68725586 C125.24466181 483.03466631 119.81331328 485.92206883 113.84350586 488.44604492 C112.60509685 489.02750113 111.36948509 489.61494555 110.13647461 490.20776367 C83.12426052 502.99812841 51.58008084 511.72812208 21.60131836 511.78198242 C20.26252109 511.7884439 18.92372509 511.79517442 17.58493042 511.80215454 C14.79315944 511.81402895 12.00151118 511.81784617 9.2097168 511.81665039 C6.3998819 511.8164888 3.59070565 511.83023989 0.78100586 511.85766602 C-23.45238284 512.09047412 -45.58413167 509.34686009 -68.77856445 502.17651367 C-71.00028005 501.49403184 -73.22813257 500.84029361 -75.46118164 500.19604492 C-85.89172194 497.1377384 -96.48987219 493.44795606 -105.84399414 487.83276367 C-108.04666077 486.51190784 -110.04623332 485.70547621 -112.46899414 484.88354492 C-119.60791881 482.11321595 -125.85024462 477.81799538 -132.24829102 473.67260742 C-133.97011047 472.56584937 -135.71072372 471.48846272 -137.45336914 470.41479492 C-142.28514625 467.43737551 -146.18482859 464.52803451 -150.15649414 460.44604492 C-151.85905719 459.51445382 -153.56216254 458.58373411 -155.27368164 457.66870117 C-158.31105668 455.69629788 -160.62574039 453.06099383 -163.11743164 450.45385742 C-165.05321183 448.54774437 -167.00415323 447.01097113 -169.21899414 445.44604492 C-172.89217328 442.8079691 -175.61787595 439.77935903 -178.50415039 436.31713867 C-180.27034422 434.21525898 -180.27034422 434.21525898 -183.21899414 431.94604492 C-186.24649996 429.36944422 -188.28144627 426.76599353 -190.58227539 423.55932617 C-192.21336622 421.36969803 -193.95906255 419.35330872 -195.78149414 417.32104492 C-198.56584907 414.1848543 -200.87419871 410.97322877 -203.15649414 407.44604492 C-204.36330477 405.84073242 -205.57186084 404.23673157 -206.78149414 402.63354492 C-215.66017522 390.45423891 -222.74972618 377.06042683 -229.15649414 363.44604492 C-229.4671582 362.78749512 -229.77782227 362.12894531 -230.09790039 361.45043945 C-234.66018542 351.67445526 -238.21550838 341.81805414 -241.15649414 331.44604492 C-241.40286621 330.58640137 -241.64923828 329.72675781 -241.90307617 328.84106445 C-248.84753909 304.48169451 -252.57354991 281.03377436 -252.46899414 255.69604492 C-252.46717133 254.77439545 -252.46534851 253.85274597 -252.46347046 252.90316772 C-252.41790873 239.20036787 -251.88403317 225.91077418 -249.15649414 212.44604492 C-248.9848877 211.54047852 -248.81328125 210.63491211 -248.63647461 209.7019043 C-247.33918043 202.89893533 -245.82768758 196.16654764 -244.15649414 189.44604492 C-243.82536621 188.10050537 -243.82536621 188.10050537 -243.48754883 186.7277832 C-240.17393443 173.6984997 -235.24703643 161.53759771 -229.71899414 149.32104492 C-229.40633606 148.62593811 -229.09367798 147.9308313 -228.77154541 147.21466064 C-224.52410239 137.8308266 -219.72683712 129.11118729 -214.15649414 120.44604492 C-212.94598301 118.48905701 -211.73732811 116.53091822 -210.53149414 114.57104492 C-208.10652338 110.75958746 -205.50337994 107.39109939 -202.47680664 104.04760742 C-200.77877896 101.9878697 -199.66827978 99.67993568 -198.41821289 97.33276367 C-196.1741708 93.97712178 -193.1453155 91.35335216 -190.24633789 88.56713867 C-188.00799499 86.43894861 -188.00799499 86.43894861 -186.21899414 83.44604492 C-183.53228418 79.53810316 -180.18527664 76.76334215 -176.59399414 73.69213867 C-174.15108607 71.44106152 -172.22702491 69.03526263 -170.15649414 66.44604492 C-168.33227539 64.92651367 -168.33227539 64.92651367 -166.46899414 63.63354492 C-163.31187867 61.35830528 -160.41152986 58.93881769 -157.53149414 56.32104492 C-154.22651064 53.3420632 -150.91090607 50.84886856 -147.15649414 48.44604492 C-145.55084405 47.23968348 -143.94689625 46.03105524 -142.34399414 44.82104492 C-135.58866477 39.87269666 -128.3888206 35.72176089 -121.12329102 31.57299805 C-119.85409403 30.84576204 -118.58937571 30.11062621 -117.33032227 29.3659668 C-113.38248886 27.04655966 -109.38056777 25.20300131 -105.15649414 23.44604492 C-103.83620491 22.84096798 -102.51859867 22.23001127 -101.20336914 21.61401367 C-86.57948559 14.83226865 -71.69108828 10.25173939 -56.09399414 6.25854492 C-55.17408691 6.02055176 -54.25417969 5.78255859 -53.30639648 5.53735352 C-50.26663018 4.78361824 -47.21841545 4.10412209 -44.15649414 3.44604492 C-42.93808838 3.1731665 -41.71968262 2.90028809 -40.46435547 2.61914062 C-27.07737882 -0.13068662 -13.61762568 -0.04871275 0 0 Z M-96.15649414 61.44604492 C-97.2509082 62.0106543 -98.34532227 62.57526367 -99.47290039 63.15698242 C-107.05223847 67.11219781 -114.15423189 71.54633863 -121.15649414 76.44604492 C-122.11813477 77.11893555 -123.07977539 77.79182617 -124.07055664 78.48510742 C-129.04209104 82.03229037 -133.78532744 85.70664557 -138.32055664 89.79760742 C-140.10325564 91.39824355 -141.93394597 92.92121259 -143.78149414 94.44604492 C-146.74185497 96.96436092 -149.15443185 99.72695844 -151.61743164 102.72338867 C-153.22145686 104.518757 -154.91660502 105.98885868 -156.78149414 107.50854492 C-159.97007304 110.14832702 -161.89804595 112.9557159 -164.15649414 116.44604492 C-165.4116354 117.85600537 -166.68432561 119.25043436 -167.96899414 120.63354492 C-171.67237766 124.72098303 -174.57621839 129.0116679 -177.44555664 133.71166992 C-179.05630588 136.2859267 -180.78603691 138.69566593 -182.59399414 141.13354492 C-186.91919889 147.22770981 -190.03401703 153.89149968 -193.26049805 160.60717773 C-194.44538792 163.03894627 -195.71121064 165.426346 -196.96899414 167.82104492 C-198.86234416 171.6202837 -200.15749593 175.3587787 -201.28149414 179.44604492 C-201.97200472 181.81350976 -202.71983654 184.1195825 -203.53149414 186.44604492 C-220.00009973 233.66058008 -218.05085069 285.80221708 -200.88256836 332.42797852 C-200.27469538 334.11751383 -199.72236353 335.82689409 -199.18383789 337.53979492 C-197.88360238 341.2180277 -196.18482974 344.60406589 -194.40649414 348.07104492 C-193.67820265 349.500515 -192.95034098 350.93020414 -192.22290039 352.36010742 C-191.86728027 353.0578125 -191.51166016 353.75551758 -191.14526367 354.47436523 C-190.29637262 356.16711687 -189.48616193 357.87916897 -188.68383789 359.59448242 C-184.4758099 368.55034375 -178.90349369 376.43078841 -173.15649414 384.44604492 C-172.5287207 385.33420898 -171.90094727 386.22237305 -171.25415039 387.13745117 C-168.7944624 390.53595137 -166.60949497 393.00475134 -163.15649414 395.44604492 C-162.67180664 394.60041992 -162.18711914 393.75479492 -161.68774414 392.88354492 C-157.95245559 386.56228737 -154.38653424 381.17391702 -148.95727539 376.14526367 C-147.3367052 374.61609224 -146.01065537 373.08281321 -144.65649414 371.32104492 C-141.95258904 368.21155405 -139.10911473 366.06596148 -135.73071289 363.74291992 C-135.2112207 363.31495117 -134.69172852 362.88698242 -134.15649414 362.44604492 C-134.15649414 361.78604492 -134.15649414 361.12604492 -134.15649414 360.44604492 C-133.59188477 360.17276367 -133.02727539 359.89948242 -132.44555664 359.61791992 C-130.07321756 358.40341186 -127.81080348 357.07699455 -125.53149414 355.69604492 C-124.65364258 355.16624023 -123.77579102 354.63643555 -122.87133789 354.09057617 C-121.11339254 353.02569129 -119.35557192 351.96060046 -117.59790039 350.89526367 C-115.1236698 349.40146143 -112.64186189 347.92123094 -110.15649414 346.44604492 C-109.43977539 346.01291992 -108.72305664 345.57979492 -107.98461914 345.13354492 C-102.81182046 342.11293256 -97.5067552 339.8879129 -91.88696289 337.82495117 C-89.25821209 336.85327679 -86.67289827 335.84847491 -84.08227539 334.78588867 C-70.17092388 329.200282 -55.87335433 326.13341619 -41.15649414 323.44604492 C-40.20307129 323.26525391 -39.24964844 323.08446289 -38.26733398 322.89819336 C-10.26247889 317.7897828 21.92032926 317.98313482 49.84350586 323.44604492 C50.92905762 323.64472168 52.01460938 323.84339844 53.13305664 324.0480957 C69.3346945 327.04258366 84.59520886 331.21133682 99.84350586 337.44604492 C100.59583496 337.74655762 101.34816406 338.04707031 102.12329102 338.35668945 C111.67897839 342.19482269 120.19856573 346.82404515 128.84350586 352.44604492 C129.8115918 353.03385742 130.77967773 353.62166992 131.77709961 354.22729492 C137.31589475 357.60741956 142.1670842 361.26307515 146.92163086 365.68041992 C148.89397717 367.55561746 148.89397717 367.55561746 151.46850586 369.38354492 C154.51106968 372.02577139 156.73680664 375.07635978 159.15209961 378.28979492 C160.87636295 380.59502672 160.87636295 380.59502672 163.40600586 382.88354492 C166.95850363 386.61822206 169.31759587 390.97579186 171.84350586 395.44604492 C176.81992905 392.079641 179.93410382 387.62498051 182.84350586 382.44604492 C182.84350586 381.78604492 182.84350586 381.12604492 182.84350586 380.44604492 C183.50350586 380.44604492 184.16350586 380.44604492 184.84350586 380.44604492 C186.36274518 378.39203336 187.74038071 376.35656276 189.09350586 374.19604492 C189.49682129 373.55924805 189.90013672 372.92245117 190.31567383 372.26635742 C193.30549807 367.47309029 195.95062377 362.57714793 198.38647461 357.47729492 C199.38799585 355.39370114 200.43518795 353.33164135 201.51928711 351.28979492 C206.7513646 341.35928864 210.45565068 331.12825957 213.84350586 320.44604492 C214.1211377 319.57947266 214.39876953 318.71290039 214.68481445 317.82006836 C227.22432203 277.89806844 226.95515684 231.17919821 213.84350586 191.44604492 C213.53751465 190.5153418 213.23152344 189.58463867 212.91625977 188.62573242 C208.81736125 176.37701382 203.94760718 164.82070431 197.84350586 153.44604492 C197.35366211 152.47795898 196.86381836 151.50987305 196.35913086 150.51245117 C192.86984712 143.75931495 188.60415237 137.71865846 184.11303711 131.61010742 C181.84350586 128.44604492 181.84350586 128.44604492 180.36303711 125.88354492 C177.80216814 121.77562143 174.33722485 118.47563168 171.02319336 114.96948242 C168.84350586 112.44604492 168.84350586 112.44604492 167.84350586 109.44604492 C167.18350586 109.44604492 166.52350586 109.44604492 165.84350586 109.44604492 C165.59213867 108.85694336 165.34077148 108.2678418 165.08178711 107.66088867 C163.68895185 105.1696029 162.22264866 103.82304078 160.03100586 102.00854492 C156.80819935 99.2815548 153.83000582 96.43254488 150.84350586 93.44604492 C145.34984412 88.23840866 139.77156105 83.46273183 133.48803711 79.23510742 C131.68846141 78.01766921 129.91532979 76.76041413 128.16772461 75.46948242 C112.11704509 63.77693443 94.77371316 55.34477974 76.09350586 48.82104492 C75.37288971 48.56906342 74.65227356 48.31708191 73.90982056 48.0574646 C19.11453787 29.06386145 -45.05473552 33.77908537 -96.15649414 61.44604492 Z M-59.99951172 365.79077148 C-62.12147856 366.43540748 -64.24665891 366.98227862 -66.40258789 367.50073242 C-90.20504472 373.49469137 -117.27212009 390.32701749 -130.12524414 411.72338867 C-132.25988628 415.87687869 -134.18321375 419.86081286 -135.15649414 424.44604492 C-133.76535419 425.72201424 -132.36835001 426.9915914 -130.96899414 428.25854492 C-130.19168945 428.96624023 -129.41438477 429.67393555 -128.61352539 430.40307617 C-126.21736166 432.39543488 -123.84474125 433.87922634 -121.15649414 435.44604492 C-120.03505404 436.19429647 -118.91959269 436.95155257 -117.80883789 437.71557617 C-111.11761451 442.3057212 -104.50779191 446.54680919 -97.15258789 450.02416992 C-95.07985236 451.00784102 -93.03103581 452.04294228 -91.00415039 453.11791992 C-81.88636417 457.92683401 -72.55880303 461.42943675 -62.76538086 464.60083008 C-61.06064967 465.15312087 -59.3589578 465.7149072 -57.66088867 466.28735352 C-17.08320166 479.87209232 31.60796399 478.20762068 71.84350586 464.44604492 C72.70830566 464.15681152 73.57310547 463.86757813 74.46411133 463.56958008 C85.11855829 459.97563066 95.20234989 455.63219207 105.12866211 450.35424805 C106.64913432 449.54898657 108.18295452 448.76904098 109.71850586 447.99291992 C117.61803021 443.90209481 124.83148652 438.82660101 132.07592773 433.69116211 C133.57439646 432.63561094 135.09001681 431.60447397 136.60913086 430.57885742 C139.44620128 428.60923659 141.44132687 427.19007606 143.09350586 424.13354492 C141.92477561 411.56969476 129.72139271 399.49224871 120.80834961 391.65698242 C118.86666854 390.16583515 116.88860538 388.7917052 114.84350586 387.44604492 C114.04686523 386.9072168 113.25022461 386.36838867 112.42944336 385.81323242 C62.64299319 353.0628537 -3.85971838 347.89770805 -59.99951172 365.79077148 Z " fill="#FFFFFF" transform="translate(252.156494140625,-0.446044921875)"/>
<path d="M0 0 C11.82240501 9.60931053 22.43568249 22.03814001 27.21240234 36.62841797 C28.05785801 38.56973496 28.91259406 40.50702775 29.77490234 42.44091797 C33.51356743 51.390707 35.67943567 60.93811488 36.21240234 70.62841797 C36.26525391 71.56685547 36.31810547 72.50529297 36.37255859 73.47216797 C37.06425083 97.77161683 28.23093729 121.4700024 12.21240234 139.62841797 C11.42865234 140.65966797 10.64490234 141.69091797 9.83740234 142.75341797 C3.04578319 150.19185799 -4.83324273 155.47084773 -13.47509766 160.50341797 C-14.27061035 160.96772217 -15.06612305 161.43202637 -15.88574219 161.91040039 C-39.70420936 175.43721212 -67.87337218 174.47369312 -93.63916016 167.60107422 C-111.58627758 161.21735271 -127.04493346 149.51799962 -138.78759766 134.62841797 C-139.35865234 133.91814453 -139.92970703 133.20787109 -140.51806641 132.47607422 C-155.83125253 112.15990454 -159.90054696 86.10982035 -157.56933594 61.30615234 C-156.35864528 52.70152492 -153.23140161 44.55900651 -149.78759766 36.62841797 C-149.35705078 35.63068359 -148.92650391 34.63294922 -148.48291016 33.60498047 C-144.65844851 25.37266473 -139.47716385 18.62301667 -133.78759766 11.62841797 C-133.10181641 10.74669922 -132.41603516 9.86498047 -131.70947266 8.95654297 C-129.97033264 6.84977986 -128.23711734 5.08428607 -126.16259766 3.31591797 C-125.57220703 2.80416016 -124.98181641 2.29240234 -124.37353516 1.76513672 C-122.78759766 0.62841797 -122.78759766 0.62841797 -120.78759766 0.62841797 C-120.78759766 -0.03158203 -120.78759766 -0.69158203 -120.78759766 -1.37158203 C-117.15616907 -3.95001017 -113.30332952 -6.16882296 -109.45361328 -8.40380859 C-108.08308544 -9.19993585 -106.72289749 -10.01383665 -105.36572266 -10.83251953 C-72.53470439 -29.11078147 -28.80462282 -22.10111595 0 0 Z M-103.38916016 34.33544922 C-105.78759766 36.62841797 -105.78759766 36.62841797 -107.78759766 37.62841797 C-109.97748381 41.18854717 -111.85143557 44.92532134 -113.78759766 48.62841797 C-114.17560547 49.33998047 -114.56361328 50.05154297 -114.96337891 50.78466797 C-122.00097089 64.04468684 -122.91613384 78.67886875 -118.69384766 93.06591797 C-117.36570615 96.82135258 -115.80698019 100.19742823 -113.78759766 103.62841797 C-113.31708984 104.48048828 -112.84658203 105.33255859 -112.36181641 106.21044922 C-105.56736253 117.80480368 -95.44585311 126.93979272 -82.66259766 131.31591797 C-80.86435547 131.94046875 -80.86435547 131.94046875 -79.02978516 132.57763672 C-67.24956734 136.39556273 -53.35297738 136.01221367 -41.78759766 131.62841797 C-40.81693359 131.31130859 -39.84626953 130.99419922 -38.84619141 130.66748047 C-30.52743573 127.67145352 -24.94954325 122.86130702 -18.78759766 116.62841797 C-18.10697266 115.99162109 -17.42634766 115.35482422 -16.72509766 114.69873047 C-14.36014163 112.17166052 -12.61577952 109.50457748 -10.78759766 106.56591797 C-10.12759766 105.52306641 -9.46759766 104.48021484 -8.78759766 103.40576172 C-3.75043814 94.39097885 -2.08547708 86.02571856 -2.22509766 75.75341797 C-2.23677979 74.60591064 -2.24846191 73.45840332 -2.26049805 72.27612305 C-2.70627716 55.19683138 -10.61385811 42.06647151 -22.86572266 30.31201172 C-23.49994141 29.75642578 -24.13416016 29.20083984 -24.78759766 28.62841797 C-25.86267578 27.64615234 -25.86267578 27.64615234 -26.95947266 26.64404297 C-30.67366471 23.99691162 -34.53306221 22.52600869 -38.78759766 20.94091797 C-39.58166016 20.63347656 -40.37572266 20.32603516 -41.19384766 20.00927734 C-63.6672533 11.45065536 -86.54894973 17.86232785 -103.38916016 34.33544922 Z " fill="#FFFFFF" transform="translate(317.78759765625,120.37158203125)"/>
</svg>
